<svg width="97" height="52" viewBox="0 0 97 52" fill="none" xmlns="http://www.w3.org/2000/svg">
<g filter="url(#filter0_dd_16_136)">
<rect x="18" y="16" width="71" height="26" rx="8" fill="#FF2E57"/>
</g>
<path d="M34.5732 27.2173H32.9794C32.9339 26.956 32.8501 26.7244 32.728 26.5227C32.6058 26.3182 32.4538 26.1449 32.272 26.0028C32.0902 25.8608 31.8828 25.7543 31.6499 25.6832C31.4197 25.6094 31.1712 25.5724 30.9041 25.5724C30.4297 25.5724 30.0092 25.6918 29.6428 25.9304C29.2763 26.1662 28.9893 26.5128 28.782 26.9702C28.5746 27.4247 28.4709 27.9801 28.4709 28.6364C28.4709 29.304 28.5746 29.8665 28.782 30.3239C28.9922 30.7784 29.2791 31.1222 29.6428 31.3551C30.0092 31.5852 30.4283 31.7003 30.8999 31.7003C31.1612 31.7003 31.4055 31.6662 31.6328 31.598C31.8629 31.527 32.0689 31.4233 32.2507 31.2869C32.4354 31.1506 32.5902 30.983 32.7152 30.7841C32.843 30.5852 32.9311 30.358 32.9794 30.1023L34.5732 30.1108C34.5135 30.5256 34.3842 30.9148 34.1854 31.2784C33.9893 31.642 33.7322 31.9631 33.4141 32.2415C33.0959 32.517 32.7237 32.733 32.2976 32.8892C31.8714 33.0426 31.3984 33.1193 30.8786 33.1193C30.1115 33.1193 29.4268 32.9418 28.8246 32.5866C28.2223 32.2315 27.7479 31.7188 27.4013 31.0483C27.0547 30.3778 26.8814 29.5739 26.8814 28.6364C26.8814 27.696 27.0561 26.892 27.4055 26.2244C27.755 25.554 28.2308 25.0412 28.8331 24.6861C29.4354 24.331 30.1172 24.1534 30.8786 24.1534C31.3643 24.1534 31.8161 24.2216 32.2337 24.358C32.6513 24.4943 33.0234 24.6946 33.3501 24.9588C33.6768 25.2202 33.9453 25.5412 34.1555 25.9219C34.3686 26.2997 34.5078 26.7315 34.5732 27.2173ZM37.4954 29.1648V33H35.9528V24.2727H37.4613V27.5668H37.538C37.6914 27.1974 37.9286 26.9062 38.2496 26.6932C38.5735 26.4773 38.9854 26.3693 39.4854 26.3693C39.94 26.3693 40.3363 26.4645 40.6744 26.6548C41.0124 26.8452 41.2738 27.1236 41.4585 27.4901C41.646 27.8565 41.7397 28.304 41.7397 28.8324V33H40.1971V29.071C40.1971 28.6307 40.0835 28.2884 39.8562 28.044C39.6317 27.7969 39.3164 27.6733 38.9102 27.6733C38.6374 27.6733 38.3931 27.733 38.1772 27.8523C37.9641 27.9687 37.7965 28.1378 37.6744 28.3594C37.555 28.581 37.4954 28.8494 37.4954 29.1648ZM45.1957 33.1321C44.7809 33.1321 44.4073 33.0582 44.0749 32.9105C43.7454 32.7599 43.484 32.5384 43.2908 32.2457C43.1005 31.9531 43.0053 31.5923 43.0053 31.1634C43.0053 30.794 43.0735 30.4886 43.2099 30.2472C43.3462 30.0057 43.5323 29.8125 43.7681 29.6676C44.0039 29.5227 44.2695 29.4134 44.565 29.3395C44.8633 29.2628 45.1715 29.2074 45.4897 29.1733C45.8732 29.1335 46.1843 29.098 46.4229 29.0668C46.6616 29.0327 46.8349 28.9815 46.9428 28.9134C47.0536 28.8423 47.109 28.733 47.109 28.5852V28.5597C47.109 28.2386 47.0138 27.9901 46.8235 27.8139C46.6332 27.6378 46.359 27.5497 46.0011 27.5497C45.6232 27.5497 45.3235 27.6321 45.1019 27.7969C44.8832 27.9616 44.7354 28.1562 44.6587 28.3807L43.2184 28.1761C43.332 27.7784 43.5195 27.446 43.7809 27.179C44.0423 26.9091 44.3619 26.7074 44.7397 26.5739C45.1175 26.4375 45.5352 26.3693 45.9925 26.3693C46.3079 26.3693 46.6218 26.4062 46.9343 26.4801C47.2468 26.554 47.5323 26.6761 47.7908 26.8466C48.0494 27.0142 48.2567 27.2429 48.413 27.5327C48.5721 27.8224 48.6516 28.1847 48.6516 28.6193V33H47.1687V32.1009H47.1175C47.0238 32.2827 46.8917 32.4531 46.7212 32.6122C46.5536 32.7685 46.342 32.8949 46.0863 32.9915C45.8335 33.0852 45.5366 33.1321 45.1957 33.1321ZM45.5962 31.9986C45.9059 31.9986 46.1744 31.9375 46.4016 31.8153C46.6289 31.6903 46.8036 31.5256 46.9258 31.321C47.0508 31.1165 47.1133 30.8935 47.1133 30.652V29.8807C47.065 29.9205 46.9826 29.9574 46.8661 29.9915C46.7525 30.0256 46.6246 30.0554 46.4826 30.081C46.3406 30.1065 46.1999 30.1293 46.0607 30.1491C45.9215 30.169 45.8008 30.1861 45.6985 30.2003C45.4684 30.2315 45.2624 30.2827 45.0806 30.3537C44.8988 30.4247 44.7553 30.5241 44.6502 30.652C44.5451 30.777 44.4925 30.9389 44.4925 31.1378C44.4925 31.4219 44.5962 31.6364 44.8036 31.7812C45.011 31.9261 45.2752 31.9986 45.5962 31.9986ZM50.2028 33V26.4545H51.6985V27.5455H51.7667C51.886 27.1676 52.0906 26.8764 52.3803 26.6719C52.6729 26.4645 53.0067 26.3608 53.3817 26.3608C53.467 26.3608 53.5621 26.3651 53.6673 26.3736C53.7752 26.3793 53.8647 26.3892 53.9357 26.4034V27.8224C53.8704 27.7997 53.7667 27.7798 53.6246 27.7628C53.4854 27.7429 53.3505 27.733 53.2198 27.733C52.9386 27.733 52.6857 27.794 52.4613 27.9162C52.2397 28.0355 52.065 28.2017 51.9371 28.4148C51.8093 28.6278 51.7454 28.8736 51.7454 29.152V33H50.2028ZM56.5032 24.2727V33H54.9606V24.2727H56.5032ZM60.9446 33.1278C60.3054 33.1278 59.7514 32.9872 59.2827 32.706C58.8139 32.4247 58.4503 32.0312 58.1918 31.5256C57.9361 31.0199 57.8082 30.429 57.8082 29.7528C57.8082 29.0767 57.9361 28.4844 58.1918 27.9759C58.4503 27.4673 58.8139 27.0724 59.2827 26.7912C59.7514 26.5099 60.3054 26.3693 60.9446 26.3693C61.5838 26.3693 62.1378 26.5099 62.6065 26.7912C63.0753 27.0724 63.4375 27.4673 63.6932 27.9759C63.9517 28.4844 64.081 29.0767 64.081 29.7528C64.081 30.429 63.9517 31.0199 63.6932 31.5256C63.4375 32.0312 63.0753 32.4247 62.6065 32.706C62.1378 32.9872 61.5838 33.1278 60.9446 33.1278ZM60.9531 31.892C61.2997 31.892 61.5895 31.7969 61.8224 31.6065C62.0554 31.4134 62.2287 31.1548 62.3423 30.831C62.4588 30.5071 62.517 30.1463 62.517 29.7486C62.517 29.348 62.4588 28.9858 62.3423 28.6619C62.2287 28.3352 62.0554 28.0753 61.8224 27.8821C61.5895 27.6889 61.2997 27.5923 60.9531 27.5923C60.598 27.5923 60.3026 27.6889 60.0668 27.8821C59.8338 28.0753 59.6591 28.3352 59.5426 28.6619C59.429 28.9858 59.3722 29.348 59.3722 29.7486C59.3722 30.1463 59.429 30.5071 59.5426 30.831C59.6591 31.1548 59.8338 31.4134 60.0668 31.6065C60.3026 31.7969 60.598 31.892 60.9531 31.892ZM68.6587 26.4545V27.6477H64.896V26.4545H68.6587ZM65.8249 24.8864H67.3675V31.0312C67.3675 31.2386 67.3988 31.3977 67.4613 31.5085C67.5266 31.6165 67.6119 31.6903 67.717 31.7301C67.8221 31.7699 67.9386 31.7898 68.0664 31.7898C68.163 31.7898 68.2511 31.7827 68.3306 31.7685C68.413 31.7543 68.4755 31.7415 68.5181 31.7301L68.7781 32.9361C68.6957 32.9645 68.5778 32.9957 68.4244 33.0298C68.2738 33.0639 68.0891 33.0838 67.8704 33.0895C67.484 33.1009 67.136 33.0426 66.8263 32.9148C66.5167 32.7841 66.271 32.5824 66.0891 32.3097C65.9102 32.0369 65.8221 31.696 65.8249 31.2869V24.8864ZM73.2173 26.4545V27.6477H69.4545V26.4545H73.2173ZM70.3835 24.8864H71.9261V31.0312C71.9261 31.2386 71.9574 31.3977 72.0199 31.5085C72.0852 31.6165 72.1705 31.6903 72.2756 31.7301C72.3807 31.7699 72.4972 31.7898 72.625 31.7898C72.7216 31.7898 72.8097 31.7827 72.8892 31.7685C72.9716 31.7543 73.0341 31.7415 73.0767 31.7301L73.3366 32.9361C73.2543 32.9645 73.1364 32.9957 72.983 33.0298C72.8324 33.0639 72.6477 33.0838 72.429 33.0895C72.0426 33.1009 71.6946 33.0426 71.3849 32.9148C71.0753 32.7841 70.8295 32.5824 70.6477 32.3097C70.4688 32.0369 70.3807 31.696 70.3835 31.2869V24.8864ZM77.3349 33.1278C76.6786 33.1278 76.1119 32.9915 75.6346 32.7188C75.1602 32.4432 74.7951 32.054 74.5394 31.5511C74.2837 31.0455 74.1559 30.4503 74.1559 29.7656C74.1559 29.0923 74.2837 28.5014 74.5394 27.9929C74.7979 27.4815 75.1587 27.0838 75.6218 26.7997C76.0849 26.5128 76.6289 26.3693 77.2539 26.3693C77.6573 26.3693 78.038 26.4347 78.396 26.5653C78.7567 26.6932 79.0749 26.892 79.3505 27.1619C79.6289 27.4318 79.8477 27.7756 80.0067 28.1932C80.1658 28.608 80.2454 29.1023 80.2454 29.6761V30.1491H74.8803V29.1094H78.7667C78.7638 28.8139 78.6999 28.5511 78.5749 28.321C78.4499 28.0881 78.2752 27.9048 78.0508 27.7713C77.8292 27.6378 77.5707 27.571 77.2752 27.571C76.9599 27.571 76.6829 27.6477 76.4442 27.8011C76.2056 27.9517 76.0195 28.1506 75.886 28.3977C75.7553 28.642 75.6886 28.9105 75.6857 29.2031V30.1108C75.6857 30.4915 75.7553 30.8182 75.8945 31.0909C76.0337 31.3608 76.2283 31.5682 76.4783 31.7131C76.7283 31.8551 77.021 31.9261 77.3562 31.9261C77.5806 31.9261 77.7837 31.8949 77.9656 31.8324C78.1474 31.767 78.305 31.6719 78.4386 31.5469C78.5721 31.4219 78.6729 31.267 78.7411 31.0824L80.1815 31.2443C80.0906 31.625 79.9173 31.9574 79.6616 32.2415C79.4087 32.5227 79.0849 32.7415 78.69 32.8977C78.2951 33.0511 77.8434 33.1278 77.3349 33.1278Z" fill="white"/>
<g filter="url(#filter1_dd_16_136)">
<path d="M14.0691 18.2383C13.2698 19.0376 11.9072 18.6991 11.5748 17.6188L8.83316 8.70794C8.47906 7.55704 9.55704 6.47906 10.7079 6.83316L19.6187 9.57477C20.6991 9.90718 21.0376 11.2698 20.2383 12.0691L14.0691 18.2383Z" fill="#FF2E57"/>
</g>
<defs>
<filter id="filter0_dd_16_136" x="10" y="10" width="87" height="42" filterUnits="userSpaceOnUse" color-interpolation-filters="sRGB">
<feFlood flood-opacity="0" result="BackgroundImageFix"/>
<feColorMatrix in="SourceAlpha" type="matrix" values="0 0 0 0 0 0 0 0 0 0 0 0 0 0 0 0 0 0 127 0" result="hardAlpha"/>
<feOffset dy="2"/>
<feGaussianBlur stdDeviation="4"/>
<feComposite in2="hardAlpha" operator="out"/>
<feColorMatrix type="matrix" values="0 0 0 0 0.105882 0 0 0 0 0.105882 0 0 0 0 0.101961 0 0 0 0.04 0"/>
<feBlend mode="normal" in2="BackgroundImageFix" result="effect1_dropShadow_16_136"/>
<feColorMatrix in="SourceAlpha" type="matrix" values="0 0 0 0 0 0 0 0 0 0 0 0 0 0 0 0 0 0 127 0" result="hardAlpha"/>
<feOffset dy="2"/>
<feGaussianBlur stdDeviation="4"/>
<feComposite in2="hardAlpha" operator="out"/>
<feColorMatrix type="matrix" values="0 0 0 0 0.105882 0 0 0 0 0.105882 0 0 0 0 0.101961 0 0 0 0.02 0"/>
<feBlend mode="normal" in2="effect1_dropShadow_16_136" result="effect2_dropShadow_16_136"/>
<feBlend mode="normal" in="SourceGraphic" in2="effect2_dropShadow_16_136" result="shape"/>
</filter>
<filter id="filter1_dd_16_136" x="0.764648" y="0.764664" width="27.9138" height="27.9137" filterUnits="userSpaceOnUse" color-interpolation-filters="sRGB">
<feFlood flood-opacity="0" result="BackgroundImageFix"/>
<feColorMatrix in="SourceAlpha" type="matrix" values="0 0 0 0 0 0 0 0 0 0 0 0 0 0 0 0 0 0 127 0" result="hardAlpha"/>
<feOffset dy="2"/>
<feGaussianBlur stdDeviation="4"/>
<feComposite in2="hardAlpha" operator="out"/>
<feColorMatrix type="matrix" values="0 0 0 0 0.105882 0 0 0 0 0.105882 0 0 0 0 0.101961 0 0 0 0.04 0"/>
<feBlend mode="normal" in2="BackgroundImageFix" result="effect1_dropShadow_16_136"/>
<feColorMatrix in="SourceAlpha" type="matrix" values="0 0 0 0 0 0 0 0 0 0 0 0 0 0 0 0 0 0 127 0" result="hardAlpha"/>
<feOffset dy="2"/>
<feGaussianBlur stdDeviation="4"/>
<feComposite in2="hardAlpha" operator="out"/>
<feColorMatrix type="matrix" values="0 0 0 0 0.105882 0 0 0 0 0.105882 0 0 0 0 0.101961 0 0 0 0.02 0"/>
<feBlend mode="normal" in2="effect1_dropShadow_16_136" result="effect2_dropShadow_16_136"/>
<feBlend mode="normal" in="SourceGraphic" in2="effect2_dropShadow_16_136" result="shape"/>
</filter>
</defs>
</svg>
