<svg width="571" height="214" viewBox="0 0 571 214" fill="none" xmlns="http://www.w3.org/2000/svg">
<path opacity="0.08" d="M34.16 126.52C26.544 126.52 19.292 125.176 12.404 122.488C5.516 119.744 -0.587999 115.712 -5.908 110.392C-11.172 105.072 -15.344 98.492 -18.424 90.652C-21.448 82.812 -22.96 73.768 -22.96 63.52C-22.96 50.136 -20.412 38.768 -15.316 29.416C-10.164 20.008 -3.276 12.84 5.348 7.91199C14.028 2.984 23.632 0.519998 34.16 0.519998C49.728 0.519998 61.964 4.132 70.868 11.356C79.772 18.58 85.736 28.8 88.76 42.016L65.408 45.376C63.224 38.32 59.64 32.692 54.656 28.492C49.728 24.236 43.4 22.08 35.672 22.024C28 21.912 21.616 23.564 16.52 26.98C11.424 30.396 7.588 35.24 5.012 41.512C2.492 47.784 1.232 55.12 1.232 63.52C1.232 71.92 2.492 79.2 5.012 85.36C7.588 91.52 11.424 96.308 16.52 99.724C21.616 103.14 28 104.904 35.672 105.016C40.88 105.128 45.584 104.232 49.784 102.328C54.04 100.424 57.624 97.428 60.536 93.34C63.448 89.252 65.52 84.016 66.752 77.632H47.6V59.992H91.112C91.224 60.72 91.308 62.008 91.364 63.856C91.42 65.704 91.448 66.768 91.448 67.048C91.448 78.64 89.096 88.916 84.392 97.876C79.688 106.836 73.052 113.864 64.484 118.96C55.916 124 45.808 126.52 34.16 126.52ZM150.451 126.52C141.155 126.52 132.951 124.532 125.839 120.556C118.783 116.524 113.239 111.008 109.207 104.008C105.231 96.952 103.243 88.888 103.243 79.816C103.243 69.904 105.203 61.28 109.123 53.944C113.043 46.608 118.447 40.924 125.335 36.892C132.223 32.804 140.147 30.76 149.107 30.76C158.627 30.76 166.719 33 173.383 37.48C180.047 41.96 184.975 48.26 188.167 56.38C191.359 64.5 192.479 74.048 191.527 85.024H168.931V76.624C168.931 67.384 167.447 60.748 164.479 56.716C161.567 52.628 156.779 50.584 150.115 50.584C142.331 50.584 136.591 52.964 132.895 57.724C129.255 62.428 127.435 69.4 127.435 78.64C127.435 87.096 129.255 93.648 132.895 98.296C136.591 102.888 141.995 105.184 149.107 105.184C153.587 105.184 157.423 104.204 160.615 102.244C163.807 100.284 166.243 97.456 167.923 93.76L190.771 100.312C187.355 108.6 181.951 115.04 174.559 119.632C167.223 124.224 159.187 126.52 150.451 126.52ZM120.379 85.024V68.056H180.523V85.024H120.379ZM264.926 124C258.654 125.176 252.494 125.68 246.446 125.512C240.454 125.4 235.078 124.364 230.318 122.404C225.614 120.388 222.03 117.168 219.566 112.744C217.326 108.6 216.15 104.4 216.038 100.144C215.926 95.832 215.87 90.96 215.87 85.528V8.07999H238.718V84.184C238.718 87.712 238.746 90.904 238.802 93.76C238.914 96.56 239.502 98.8 240.566 100.48C242.582 103.672 245.802 105.408 250.226 105.688C254.65 105.968 259.55 105.744 264.926 105.016V124ZM200.414 50.92V33.28H264.926V50.92H200.414ZM19.208 254.52C7.784 254.52 -1.456 251.944 -8.512 246.792C-15.512 241.584 -19.768 234.248 -21.28 224.784L2.072 221.256C3.024 225.512 5.124 228.844 8.372 231.252C11.676 233.66 15.848 234.864 20.888 234.864C25.032 234.864 28.224 234.08 30.464 232.512C32.704 230.888 33.824 228.648 33.824 225.792C33.824 224 33.376 222.572 32.48 221.508C31.584 220.388 29.568 219.296 26.432 218.232C23.352 217.168 18.536 215.768 11.984 214.032C4.592 212.128 -1.316 210 -5.74 207.648C-10.164 205.296 -13.356 202.496 -15.316 199.248C-17.276 195.944 -18.256 191.968 -18.256 187.32C-18.256 181.496 -16.772 176.456 -13.804 172.2C-10.836 167.888 -6.664 164.584 -1.288 162.288C4.144 159.936 10.528 158.76 17.864 158.76C24.976 158.76 31.276 159.852 36.764 162.036C42.252 164.22 46.676 167.328 50.036 171.36C53.452 175.392 55.552 180.152 56.336 185.64L32.984 189.84C32.592 186.48 31.136 183.82 28.616 181.86C26.096 179.9 22.68 178.752 18.368 178.416C14.168 178.136 10.78 178.696 8.204 180.096C5.684 181.496 4.424 183.512 4.424 186.144C4.424 187.712 4.956 189.028 6.02 190.092C7.14 191.156 9.408 192.248 12.824 193.368C16.296 194.488 21.56 195.944 28.616 197.736C35.504 199.528 41.02 201.628 45.164 204.036C49.364 206.388 52.416 209.244 54.32 212.604C56.224 215.908 57.176 219.912 57.176 224.616C57.176 233.912 53.816 241.22 47.096 246.54C40.376 251.86 31.08 254.52 19.208 254.52ZM130.067 252C123.795 253.176 117.635 253.68 111.587 253.512C105.595 253.4 100.219 252.364 95.459 250.404C90.755 248.388 87.171 245.168 84.707 240.744C82.467 236.6 81.291 232.4 81.179 228.144C81.067 223.832 81.011 218.96 81.011 213.528V136.08H103.859V212.184C103.859 215.712 103.887 218.904 103.943 221.76C104.055 224.56 104.643 226.8 105.707 228.48C107.723 231.672 110.943 233.408 115.367 233.688C119.791 233.968 124.691 233.744 130.067 233.016V252ZM65.555 178.92V161.28H130.067V178.92H65.555ZM175.483 254.52C168.987 254.52 163.471 253.288 158.935 250.824C154.455 248.304 151.039 244.972 148.687 240.828C146.391 236.628 145.243 232.008 145.243 226.968C145.243 222.768 145.887 218.932 147.175 215.46C148.463 211.988 150.535 208.936 153.391 206.304C156.303 203.616 160.195 201.376 165.067 199.584C168.427 198.352 172.431 197.26 177.079 196.308C181.727 195.356 186.991 194.46 192.871 193.62C198.751 192.724 205.219 191.744 212.275 190.68L204.043 195.216C204.043 189.84 202.755 185.892 200.179 183.372C197.603 180.852 193.291 179.592 187.243 179.592C183.883 179.592 180.383 180.404 176.743 182.028C173.103 183.652 170.555 186.536 169.099 190.68L148.435 184.128C150.731 176.624 155.043 170.52 161.371 165.816C167.699 161.112 176.323 158.76 187.243 158.76C195.251 158.76 202.363 159.992 208.579 162.456C214.795 164.92 219.499 169.176 222.691 175.224C224.483 178.584 225.547 181.944 225.883 185.304C226.219 188.664 226.387 192.416 226.387 196.56V252H206.395V233.352L209.251 237.216C204.827 243.32 200.039 247.744 194.887 250.488C189.791 253.176 183.323 254.52 175.483 254.52ZM180.355 236.544C184.555 236.544 188.083 235.816 190.939 234.36C193.851 232.848 196.147 231.14 197.827 229.236C199.563 227.332 200.739 225.736 201.355 224.448C202.531 221.984 203.203 219.128 203.371 215.88C203.595 212.576 203.707 209.832 203.707 207.648L210.427 209.328C203.651 210.448 198.163 211.4 193.963 212.184C189.763 212.912 186.375 213.584 183.799 214.2C181.223 214.816 178.955 215.488 176.995 216.216C174.755 217.112 172.935 218.092 171.535 219.156C170.191 220.164 169.183 221.284 168.511 222.516C167.895 223.748 167.587 225.12 167.587 226.632C167.587 228.704 168.091 230.496 169.099 232.008C170.163 233.464 171.647 234.584 173.551 235.368C175.455 236.152 177.723 236.544 180.355 236.544ZM248.229 252V161.28H268.389V183.456L266.205 180.6C267.381 177.464 268.949 174.608 270.909 172.032C272.869 169.456 275.277 167.328 278.133 165.648C280.317 164.304 282.697 163.268 285.273 162.54C287.849 161.756 290.509 161.28 293.253 161.112C295.997 160.888 298.741 160.944 301.485 161.28V182.616C298.965 181.832 296.025 181.58 292.665 181.86C289.361 182.084 286.365 182.84 283.677 184.128C280.989 185.36 278.721 187.012 276.873 189.084C275.025 191.1 273.625 193.508 272.673 196.308C271.721 199.052 271.245 202.16 271.245 205.632V252H248.229ZM371.895 252C365.623 253.176 359.463 253.68 353.415 253.512C347.423 253.4 342.047 252.364 337.287 250.404C332.583 248.388 328.999 245.168 326.535 240.744C324.295 236.6 323.119 232.4 323.007 228.144C322.895 223.832 322.839 218.96 322.839 213.528V136.08H345.687V212.184C345.687 215.712 345.715 218.904 345.771 221.76C345.883 224.56 346.471 226.8 347.535 228.48C349.551 231.672 352.771 233.408 357.195 233.688C361.619 233.968 366.519 233.744 371.895 233.016V252ZM307.383 178.92V161.28H371.895V178.92H307.383ZM429.358 254.52C420.062 254.52 411.858 252.532 404.746 248.556C397.69 244.524 392.146 239.008 388.114 232.008C384.138 224.952 382.15 216.888 382.15 207.816C382.15 197.904 384.11 189.28 388.03 181.944C391.95 174.608 397.354 168.924 404.242 164.892C411.13 160.804 419.054 158.76 428.014 158.76C437.534 158.76 445.626 161 452.29 165.48C458.954 169.96 463.882 176.26 467.074 184.38C470.266 192.5 471.386 202.048 470.434 213.024H447.838V204.624C447.838 195.384 446.354 188.748 443.386 184.716C440.474 180.628 435.686 178.584 429.022 178.584C421.238 178.584 415.498 180.964 411.802 185.724C408.162 190.428 406.342 197.4 406.342 206.64C406.342 215.096 408.162 221.648 411.802 226.296C415.498 230.888 420.902 233.184 428.014 233.184C432.494 233.184 436.33 232.204 439.522 230.244C442.714 228.284 445.15 225.456 446.83 221.76L469.678 228.312C466.262 236.6 460.858 243.04 453.466 247.632C446.13 252.224 438.094 254.52 429.358 254.52ZM399.286 213.024V196.056H459.43V213.024H399.286ZM526.193 254.52C517.849 254.52 510.541 252.42 504.269 248.22C497.997 244.02 493.097 238.308 489.569 231.084C486.097 223.86 484.361 215.712 484.361 206.64C484.361 197.4 486.125 189.196 489.653 182.028C493.237 174.804 498.249 169.12 504.689 164.976C511.129 160.832 518.689 158.76 527.369 158.76C535.993 158.76 543.245 160.86 549.125 165.06C555.005 169.26 559.457 174.972 562.481 182.196C565.505 189.42 567.017 197.568 567.017 206.64C567.017 215.712 565.477 223.86 562.397 231.084C559.373 238.308 554.837 244.02 548.789 248.22C542.741 252.42 535.209 254.52 526.193 254.52ZM529.889 234.192C534.985 234.192 539.045 233.044 542.069 230.748C545.149 228.452 547.361 225.232 548.705 221.088C550.049 216.944 550.721 212.128 550.721 206.64C550.721 201.152 550.049 196.336 548.705 192.192C547.361 188.048 545.205 184.828 542.237 182.532C539.325 180.236 535.489 179.088 530.729 179.088C525.633 179.088 521.433 180.348 518.129 182.868C514.881 185.332 512.473 188.664 510.905 192.864C509.337 197.008 508.553 201.6 508.553 206.64C508.553 211.736 509.309 216.384 510.821 220.584C512.333 224.728 514.657 228.032 517.793 230.496C520.929 232.96 524.961 234.192 529.889 234.192ZM550.721 252V189.84H547.865V131.04H570.881V252H550.721Z" fill="black"/>
</svg>
