<svg width="394" height="802" viewBox="0 0 394 802" fill="none" xmlns="http://www.w3.org/2000/svg">
<g filter="none">
<g clip-path="url(#clip0_26_9)">
<rect x="5" y="3" width="384" height="792" rx="12" fill="#179690"/>
<path d="M49.74 636H52.46V624.14H57V621.6H45.2V624.14H49.74V636ZM59.3355 631.36H66.9155C67.2455 627.44 65.2655 624.9 61.8655 624.9C58.6655 624.9 56.4055 627.2 56.4055 630.74C56.4055 633.98 58.7055 636.3 62.0255 636.3C64.1055 636.3 66.0055 635.16 66.8255 633.18L64.1055 632.4C63.7055 633.28 62.9255 633.76 61.8655 633.76C60.3955 633.76 59.5355 632.9 59.3355 631.36ZM61.9855 627.26C63.2955 627.26 63.9755 627.88 64.1655 629.34H59.4055C59.6855 627.97 60.5255 627.26 61.9855 627.26ZM77.5981 626.86C76.8381 625.42 75.2781 624.9 73.3781 624.9C70.7781 624.9 69.2981 626.14 68.7581 627.92L71.2181 628.7C71.5581 627.72 72.5781 627.38 73.3781 627.38C74.6581 627.38 75.2481 627.84 75.3581 628.85C73.3281 629.15 71.7781 629.38 70.7381 629.76C68.9981 630.4 68.3781 631.52 68.3781 633.02C68.3781 634.82 69.6581 636.3 71.9781 636.3C73.6381 636.3 74.6981 635.82 75.6581 634.68V636H78.0381V629.4C78.0381 628.42 78.0181 627.66 77.5981 626.86ZM75.0581 632.72C74.8381 633.18 74.0581 634.16 72.5581 634.16C71.6181 634.16 71.0381 633.72 71.0381 632.98C71.0381 632.44 71.3581 632.06 72.1581 631.74C72.7781 631.51 73.5181 631.36 75.3381 631.05C75.3281 631.57 75.2881 632.25 75.0581 632.72ZM92.6183 624.94C91.2283 624.94 90.0183 625.58 89.3183 626.62C88.7583 625.61 87.7283 624.94 86.1783 624.94C84.8783 624.94 83.7383 625.49 83.0183 626.38V625.2H80.6183V636H83.3583V629.46C83.3583 628.22 84.0983 627.36 85.2383 627.36C86.4183 627.36 87.1383 628.2 87.1383 629.62V636H89.8583V629.46C89.8583 628.22 90.5983 627.36 91.7383 627.36C92.9183 627.36 93.6383 628.2 93.6383 629.62V636H96.3583V628.9C96.3583 626.54 95.0783 624.94 92.6183 624.94ZM109.143 636.3C112.443 636.3 114.763 634.54 115.683 631.74L112.943 630.98C112.403 632.72 111.143 633.74 109.143 633.74C106.403 633.74 105.023 631.8 105.023 628.8C105.023 625.8 106.403 623.86 109.143 623.86C111.143 623.86 112.403 624.88 112.943 626.62L115.683 625.86C114.763 623.06 112.443 621.3 109.143 621.3C104.823 621.3 102.163 624.32 102.163 628.8C102.163 633.28 104.823 636.3 109.143 636.3ZM122.744 636.3C125.984 636.3 128.224 633.96 128.224 630.6C128.224 627.26 126.004 624.9 122.744 624.9C119.544 624.9 117.284 627.22 117.284 630.6C117.284 633.94 119.484 636.3 122.744 636.3ZM122.744 633.76C121.044 633.76 120.164 632.54 120.164 630.6C120.164 628.72 120.964 627.44 122.744 627.44C124.464 627.44 125.344 628.68 125.344 630.6C125.344 632.46 124.484 633.76 122.744 633.76ZM130.623 636H133.343V621.3H130.623V636ZM136.541 636H139.261V621.3H136.541V636ZM150.879 626.86C150.119 625.42 148.559 624.9 146.659 624.9C144.059 624.9 142.579 626.14 142.039 627.92L144.499 628.7C144.839 627.72 145.859 627.38 146.659 627.38C147.939 627.38 148.529 627.84 148.639 628.85C146.609 629.15 145.059 629.38 144.019 629.76C142.279 630.4 141.659 631.52 141.659 633.02C141.659 634.82 142.939 636.3 145.259 636.3C146.919 636.3 147.979 635.82 148.939 634.68V636H151.319V629.4C151.319 628.42 151.299 627.66 150.879 626.86ZM148.339 632.72C148.119 633.18 147.339 634.16 145.839 634.16C144.899 634.16 144.319 633.72 144.319 632.98C144.319 632.44 144.639 632.06 145.439 631.74C146.059 631.51 146.799 631.36 148.619 631.05C148.609 631.57 148.569 632.25 148.339 632.72ZM159.08 624.9C158.13 624.9 157.31 625.14 156.64 625.56V621.6H153.9V636H156.3V635.38C157.06 635.96 158.03 636.3 159.22 636.3C162.2 636.3 164.2 633.84 164.2 630.6C164.2 627.3 162.18 624.9 159.08 624.9ZM158.78 633.88C156.96 633.88 156.3 632.56 156.3 630.6C156.3 628.64 156.98 627.32 158.68 627.32C160.5 627.32 161.32 628.8 161.32 630.6C161.32 632.42 160.54 633.88 158.78 633.88ZM171.26 636.3C174.5 636.3 176.74 633.96 176.74 630.6C176.74 627.26 174.52 624.9 171.26 624.9C168.06 624.9 165.8 627.22 165.8 630.6C165.8 633.94 168 636.3 171.26 636.3ZM171.26 633.76C169.56 633.76 168.68 632.54 168.68 630.6C168.68 628.72 169.48 627.44 171.26 627.44C172.98 627.44 173.86 628.68 173.86 630.6C173.86 632.46 173 633.76 171.26 633.76ZM182.499 625.72C181.999 626.01 181.619 626.44 181.339 626.94V625.2H178.939V636H181.679V630.48C181.679 629.24 182.199 628.36 183.159 627.92C183.799 627.62 184.679 627.56 185.279 627.74V625.2C184.299 625.08 183.279 625.24 182.499 625.72ZM195.606 626.86C194.846 625.42 193.286 624.9 191.386 624.9C188.786 624.9 187.306 626.14 186.766 627.92L189.226 628.7C189.566 627.72 190.586 627.38 191.386 627.38C192.666 627.38 193.256 627.84 193.366 628.85C191.336 629.15 189.786 629.38 188.746 629.76C187.006 630.4 186.386 631.52 186.386 633.02C186.386 634.82 187.666 636.3 189.986 636.3C191.646 636.3 192.706 635.82 193.666 634.68V636H196.046V629.4C196.046 628.42 196.026 627.66 195.606 626.86ZM193.066 632.72C192.846 633.18 192.066 634.16 190.566 634.16C189.626 634.16 189.046 633.72 189.046 632.98C189.046 632.44 189.366 632.06 190.166 631.74C190.786 631.51 191.526 631.36 193.346 631.05C193.336 631.57 193.296 632.25 193.066 632.72ZM202.006 627.3H205.126V625.2H202.006V622.2H199.286V625.2H197.446V627.3H199.286V631.42C199.286 632.72 199.186 633.68 199.726 634.66C200.606 636.24 202.886 636.42 205.126 636V633.74C203.846 633.92 202.706 633.96 202.226 633.2C201.966 632.8 202.006 632.1 202.006 631.26V627.3ZM207.733 623.7H210.453V621.3H207.733V623.7ZM207.733 636H210.453V625.2H207.733V636ZM218.311 636.3C221.551 636.3 223.791 633.96 223.791 630.6C223.791 627.26 221.571 624.9 218.311 624.9C215.111 624.9 212.851 627.22 212.851 630.6C212.851 633.94 215.051 636.3 218.311 636.3ZM218.311 633.76C216.611 633.76 215.731 632.54 215.731 630.6C215.731 628.72 216.531 627.44 218.311 627.44C220.031 627.44 220.911 628.68 220.911 630.6C220.911 632.46 220.051 633.76 218.311 633.76ZM231.89 624.88C230.34 624.88 229.17 625.44 228.39 626.31V625.2H225.97V636H228.73V630.52C228.73 627.84 230.09 627.44 231.03 627.44C233.35 627.44 233.35 629.92 233.35 630.9V636H236.11V629.94C236.11 629.04 236.11 624.88 231.89 624.88ZM251.329 626.86C250.569 625.42 249.009 624.9 247.109 624.9C244.509 624.9 243.029 626.14 242.489 627.92L244.949 628.7C245.289 627.72 246.309 627.38 247.109 627.38C248.389 627.38 248.979 627.84 249.089 628.85C247.059 629.15 245.509 629.38 244.469 629.76C242.729 630.4 242.109 631.52 242.109 633.02C242.109 634.82 243.389 636.3 245.709 636.3C247.369 636.3 248.429 635.82 249.389 634.68V636H251.769V629.4C251.769 628.42 251.749 627.66 251.329 626.86ZM248.789 632.72C248.569 633.18 247.789 634.16 246.289 634.16C245.349 634.16 244.769 633.72 244.769 632.98C244.769 632.44 245.089 632.06 245.889 631.74C246.509 631.51 247.249 631.36 249.069 631.05C249.059 631.57 249.019 632.25 248.789 632.72ZM260.269 624.88C258.719 624.88 257.549 625.44 256.769 626.31V625.2H254.349V636H257.109V630.52C257.109 627.84 258.469 627.44 259.409 627.44C261.729 627.44 261.729 629.92 261.729 630.9V636H264.489V629.94C264.489 629.04 264.489 624.88 260.269 624.88ZM273.848 621.6V625.56C273.178 625.14 272.358 624.9 271.408 624.9C268.308 624.9 266.288 627.3 266.288 630.6C266.288 633.84 268.288 636.3 271.268 636.3C272.458 636.3 273.428 635.96 274.188 635.38V636H276.588V621.6H273.848ZM271.708 633.88C269.948 633.88 269.168 632.42 269.168 630.6C269.168 628.8 269.988 627.32 271.808 627.32C273.508 627.32 274.188 628.64 274.188 630.6C274.188 632.56 273.528 633.88 271.708 633.88ZM52.58 666.3C55.88 666.3 58.2 664.54 59.12 661.74L56.38 660.98C55.84 662.72 54.58 663.74 52.58 663.74C49.84 663.74 48.46 661.8 48.46 658.8C48.46 655.8 49.84 653.86 52.58 653.86C54.58 653.86 55.84 654.88 56.38 656.62L59.12 655.86C58.2 653.06 55.88 651.3 52.58 651.3C48.26 651.3 45.6 654.32 45.6 658.8C45.6 663.28 48.26 666.3 52.58 666.3ZM66.1819 666.3C69.4219 666.3 71.6619 663.96 71.6619 660.6C71.6619 657.26 69.4419 654.9 66.1819 654.9C62.9819 654.9 60.7219 657.22 60.7219 660.6C60.7219 663.94 62.9219 666.3 66.1819 666.3ZM66.1819 663.76C64.4819 663.76 63.6019 662.54 63.6019 660.6C63.6019 658.72 64.4019 657.44 66.1819 657.44C67.9019 657.44 68.7819 658.68 68.7819 660.6C68.7819 662.46 67.9219 663.76 66.1819 663.76ZM85.8409 654.94C84.4509 654.94 83.2409 655.58 82.5409 656.62C81.9809 655.61 80.9509 654.94 79.4009 654.94C78.1009 654.94 76.9609 655.49 76.2409 656.38V655.2H73.8409V666H76.5809V659.46C76.5809 658.22 77.3209 657.36 78.4609 657.36C79.6409 657.36 80.3609 658.2 80.3609 659.62V666H83.0809V659.46C83.0809 658.22 83.8209 657.36 84.9609 657.36C86.1409 657.36 86.8609 658.2 86.8609 659.62V666H89.5809V658.9C89.5809 656.54 88.3009 654.94 85.8409 654.94ZM104.161 654.94C102.771 654.94 101.561 655.58 100.861 656.62C100.301 655.61 99.2713 654.94 97.7213 654.94C96.4213 654.94 95.2813 655.49 94.5613 656.38V655.2H92.1613V666H94.9013V659.46C94.9013 658.22 95.6413 657.36 96.7813 657.36C97.9613 657.36 98.6813 658.2 98.6813 659.62V666H101.401V659.46C101.401 658.22 102.141 657.36 103.281 657.36C104.461 657.36 105.181 658.2 105.181 659.62V666H107.901V658.9C107.901 656.54 106.621 654.94 104.161 654.94ZM117.682 655.2V660.68C117.682 663.36 116.322 663.76 115.382 663.76C113.062 663.76 113.062 661.28 113.062 660.3V655.2H110.302V661.26C110.302 662.16 110.302 666.32 114.522 666.32C116.072 666.32 117.242 665.76 118.022 664.89V666H120.422V655.2H117.682ZM129.116 654.88C127.566 654.88 126.396 655.44 125.616 656.31V655.2H123.196V666H125.956V660.52C125.956 657.84 127.316 657.44 128.256 657.44C130.576 657.44 130.576 659.92 130.576 660.9V666H133.336V659.94C133.336 659.04 133.336 654.88 129.116 654.88ZM136.131 653.7H138.851V651.3H136.131V653.7ZM136.131 666H138.851V655.2H136.131V666ZM146.609 666.3C149.109 666.3 150.889 665.02 151.509 662.72L148.729 662.14C148.409 663.18 147.829 663.76 146.609 663.76C144.969 663.76 144.129 662.48 144.129 660.6C144.129 658.8 144.889 657.44 146.609 657.44C147.609 657.44 148.469 658.1 148.789 659.22L151.509 658.5C151.029 656.28 149.189 654.9 146.649 654.9C143.349 654.9 141.249 657.32 141.249 660.6C141.249 663.84 143.249 666.3 146.609 666.3ZM161.934 656.86C161.174 655.42 159.614 654.9 157.714 654.9C155.114 654.9 153.634 656.14 153.094 657.92L155.554 658.7C155.894 657.72 156.914 657.38 157.714 657.38C158.994 657.38 159.584 657.84 159.694 658.85C157.664 659.15 156.114 659.38 155.074 659.76C153.334 660.4 152.714 661.52 152.714 663.02C152.714 664.82 153.994 666.3 156.314 666.3C157.974 666.3 159.034 665.82 159.994 664.68V666H162.374V659.4C162.374 658.42 162.354 657.66 161.934 656.86ZM159.394 662.72C159.174 663.18 158.394 664.16 156.894 664.16C155.954 664.16 155.374 663.72 155.374 662.98C155.374 662.44 155.694 662.06 156.494 661.74C157.114 661.51 157.854 661.36 159.674 661.05C159.664 661.57 159.624 662.25 159.394 662.72ZM168.334 657.3H171.454V655.2H168.334V652.2H165.614V655.2H163.774V657.3H165.614V661.42C165.614 662.72 165.514 663.68 166.054 664.66C166.934 666.24 169.214 666.42 171.454 666V663.74C170.174 663.92 169.034 663.96 168.554 663.2C168.294 662.8 168.334 662.1 168.334 661.26V657.3ZM174.061 653.7H176.781V651.3H174.061V653.7ZM174.061 666H176.781V655.2H174.061V666ZM184.639 666.3C187.879 666.3 190.119 663.96 190.119 660.6C190.119 657.26 187.899 654.9 184.639 654.9C181.439 654.9 179.179 657.22 179.179 660.6C179.179 663.94 181.379 666.3 184.639 666.3ZM184.639 663.76C182.939 663.76 182.059 662.54 182.059 660.6C182.059 658.72 182.859 657.44 184.639 657.44C186.359 657.44 187.239 658.68 187.239 660.6C187.239 662.46 186.379 663.76 184.639 663.76ZM198.218 654.88C196.668 654.88 195.498 655.44 194.718 656.31V655.2H192.298V666H195.058V660.52C195.058 657.84 196.418 657.44 197.358 657.44C199.678 657.44 199.678 659.92 199.678 660.9V666H202.438V659.94C202.438 659.04 202.438 654.88 198.218 654.88Z" fill="white"/>
<path opacity="0.9" d="M46.4091 701H53.5227V699.75H47.8182V695.795H53.0682V694.545H47.8182V690.614H53.4318V689.364H46.4091V701ZM56.7898 692.273H55.2443L58.017 696.636L55.2443 701H56.7898L58.8807 697.614L60.9716 701H62.517L59.6989 696.636L62.517 692.273H60.9716L58.8807 695.841L56.7898 692.273ZM67.6165 701.182C69.5483 701.182 70.821 700 71.0483 698.455H69.7074C69.4574 699.409 68.6619 699.977 67.6165 699.977C66.0256 699.977 65.0028 698.659 65.0028 696.636C65.0028 694.659 66.0483 693.364 67.6165 693.364C68.7983 693.364 69.5028 694.091 69.7074 694.886H71.0483C70.821 693.25 69.4347 692.159 67.5938 692.159C65.2301 692.159 63.6619 694.023 63.6619 696.682C63.6619 699.295 65.1619 701.182 67.6165 701.182ZM74.3494 695.75C74.3494 694.227 75.321 693.364 76.6449 693.364C77.9062 693.364 78.6676 694.159 78.6676 695.545V701H80.0085V695.455C80.0085 693.21 78.8153 692.159 77.0312 692.159C75.6562 692.159 74.8722 692.733 74.4631 693.636H74.3494V689.364H73.0085V701H74.3494V695.75ZM85.0298 701.205C86.5526 701.205 87.348 700.386 87.6207 699.818H87.6889V701H89.0298V695.25C89.0298 692.477 86.9162 692.159 85.8026 692.159C84.4844 692.159 82.9844 692.614 82.3026 694.205L83.5753 694.659C83.8707 694.023 84.5696 693.341 85.848 693.341C87.081 693.341 87.6889 693.994 87.6889 695.114V695.159C87.6889 695.807 87.0298 695.75 85.4389 695.955C83.8196 696.165 82.0526 696.523 82.0526 698.523C82.0526 700.227 83.3707 701.205 85.0298 701.205ZM85.2344 700C84.1662 700 83.3935 699.523 83.3935 698.591C83.3935 697.568 84.3253 697.25 85.3707 697.114C85.9389 697.045 87.4616 696.886 87.6889 696.614V697.841C87.6889 698.932 86.8253 700 85.2344 700ZM92.8182 695.75C92.8182 694.227 93.7614 693.364 95.0455 693.364C96.2898 693.364 97.0455 694.176 97.0455 695.545V701H98.3864V695.455C98.3864 693.227 97.1989 692.159 95.4318 692.159C94.1136 692.159 93.2955 692.75 92.8864 693.636H92.7727V692.273H91.4773V701H92.8182V695.75ZM104.359 704.455C106.45 704.455 108.132 703.5 108.132 701.25V692.273H106.837V693.659H106.7C106.405 693.205 105.859 692.159 104.155 692.159C101.95 692.159 100.428 693.909 100.428 696.591C100.428 699.318 102.018 700.864 104.132 700.864C105.837 700.864 106.382 699.864 106.678 699.386H106.791V701.159C106.791 702.614 105.768 703.273 104.359 703.273C102.774 703.273 102.217 702.438 101.859 701.955L100.791 702.705C101.337 703.619 102.411 704.455 104.359 704.455ZM104.314 699.659C102.632 699.659 101.768 698.386 101.768 696.568C101.768 694.795 102.609 693.364 104.314 693.364C105.95 693.364 106.814 694.682 106.814 696.568C106.814 698.5 105.928 699.659 104.314 699.659ZM114.246 701.182C116.018 701.182 117.314 700.295 117.723 698.977L116.428 698.614C116.087 699.523 115.297 699.977 114.246 699.977C112.672 699.977 111.587 698.96 111.524 697.091H117.859V696.523C117.859 693.273 115.928 692.159 114.109 692.159C111.746 692.159 110.178 694.023 110.178 696.705C110.178 699.386 111.723 701.182 114.246 701.182ZM111.524 695.932C111.615 694.574 112.575 693.364 114.109 693.364C115.564 693.364 116.496 694.455 116.496 695.932H111.524ZM124.399 701H125.74V692.273H124.399V701ZM125.081 690.818C125.604 690.818 126.036 690.409 126.036 689.909C126.036 689.409 125.604 689 125.081 689C124.558 689 124.126 689.409 124.126 689.909C124.126 690.409 124.558 690.818 125.081 690.818ZM131.491 701.182C133.173 701.182 133.741 700.136 134.037 699.659H134.196V701H135.491V689.364H134.151V693.659H134.037C133.741 693.205 133.219 692.159 131.514 692.159C129.31 692.159 127.787 693.909 127.787 696.659C127.787 699.432 129.31 701.182 131.491 701.182ZM131.673 699.977C129.991 699.977 129.128 698.5 129.128 696.636C129.128 694.795 129.969 693.364 131.673 693.364C133.31 693.364 134.173 694.682 134.173 696.636C134.173 698.614 133.287 699.977 131.673 699.977ZM141.793 701.182C143.565 701.182 144.861 700.295 145.27 698.977L143.974 698.614C143.634 699.523 142.844 699.977 141.793 699.977C140.219 699.977 139.134 698.96 139.071 697.091H145.406V696.523C145.406 693.273 143.474 692.159 141.656 692.159C139.293 692.159 137.724 694.023 137.724 696.705C137.724 699.386 139.27 701.182 141.793 701.182ZM139.071 695.932C139.162 694.574 140.122 693.364 141.656 693.364C143.111 693.364 144.043 694.455 144.043 695.932H139.071ZM150.014 701.205C151.537 701.205 152.332 700.386 152.605 699.818H152.673V701H154.014V695.25C154.014 692.477 151.901 692.159 150.787 692.159C149.469 692.159 147.969 692.614 147.287 694.205L148.56 694.659C148.855 694.023 149.554 693.341 150.832 693.341C152.065 693.341 152.673 693.994 152.673 695.114V695.159C152.673 695.807 152.014 695.75 150.423 695.955C148.804 696.165 147.037 696.523 147.037 698.523C147.037 700.227 148.355 701.205 150.014 701.205ZM150.219 700C149.151 700 148.378 699.523 148.378 698.591C148.378 697.568 149.31 697.25 150.355 697.114C150.923 697.045 152.446 696.886 152.673 696.614V697.841C152.673 698.932 151.81 700 150.219 700ZM162.643 694.227C162.223 692.989 161.28 692.159 159.553 692.159C157.712 692.159 156.348 693.205 156.348 694.682C156.348 695.886 157.064 696.693 158.666 697.068L160.121 697.409C161.001 697.614 161.416 698.034 161.416 698.636C161.416 699.386 160.621 700 159.371 700C158.274 700 157.587 699.528 157.348 698.591L156.075 698.909C156.388 700.392 157.609 701.182 159.393 701.182C161.422 701.182 162.803 700.074 162.803 698.568C162.803 697.352 162.041 696.585 160.484 696.205L159.189 695.886C158.155 695.631 157.689 695.284 157.689 694.614C157.689 693.864 158.484 693.318 159.553 693.318C160.723 693.318 161.206 693.966 161.439 694.568L162.643 694.227ZM171.889 701.205C173.412 701.205 174.207 700.386 174.48 699.818H174.548V701H175.889V695.25C175.889 692.477 173.776 692.159 172.662 692.159C171.344 692.159 169.844 692.614 169.162 694.205L170.435 694.659C170.73 694.023 171.429 693.341 172.707 693.341C173.94 693.341 174.548 693.994 174.548 695.114V695.159C174.548 695.807 173.889 695.75 172.298 695.955C170.679 696.165 168.912 696.523 168.912 698.523C168.912 700.227 170.23 701.205 171.889 701.205ZM172.094 700C171.026 700 170.253 699.523 170.253 698.591C170.253 697.568 171.185 697.25 172.23 697.114C172.798 697.045 174.321 696.886 174.548 696.614V697.841C174.548 698.932 173.685 700 172.094 700ZM179.678 695.75C179.678 694.227 180.621 693.364 181.905 693.364C183.149 693.364 183.905 694.176 183.905 695.545V701H185.246V695.455C185.246 693.227 184.058 692.159 182.291 692.159C180.973 692.159 180.155 692.75 179.746 693.636H179.632V692.273H178.337V701H179.678V695.75ZM190.991 701.182C192.673 701.182 193.241 700.136 193.537 699.659H193.696V701H194.991V689.364H193.651V693.659H193.537C193.241 693.205 192.719 692.159 191.014 692.159C188.81 692.159 187.287 693.909 187.287 696.659C187.287 699.432 188.81 701.182 190.991 701.182ZM191.173 699.977C189.491 699.977 188.628 698.5 188.628 696.636C188.628 694.795 189.469 693.364 191.173 693.364C192.81 693.364 193.673 694.682 193.673 696.636C193.673 698.614 192.787 699.977 191.173 699.977ZM202.134 704.273H203.474V699.659H203.588C203.884 700.136 204.452 701.182 206.134 701.182C208.315 701.182 209.838 699.432 209.838 696.659C209.838 693.909 208.315 692.159 206.111 692.159C204.406 692.159 203.884 693.205 203.588 693.659H203.429V692.273H202.134V704.273ZM203.452 696.636C203.452 694.682 204.315 693.364 205.952 693.364C207.656 693.364 208.497 694.795 208.497 696.636C208.497 698.5 207.634 699.977 205.952 699.977C204.338 699.977 203.452 698.614 203.452 696.636ZM211.884 701H213.224V695.477C213.224 694.295 214.156 693.432 215.429 693.432C215.787 693.432 216.156 693.5 216.247 693.523V692.159C216.094 692.148 215.741 692.136 215.543 692.136C214.497 692.136 213.588 692.727 213.27 693.591H213.179V692.273H211.884V701ZM221.116 701.182C223.48 701.182 225.071 699.386 225.071 696.682C225.071 693.955 223.48 692.159 221.116 692.159C218.753 692.159 217.162 693.955 217.162 696.682C217.162 699.386 218.753 701.182 221.116 701.182ZM221.116 699.977C219.321 699.977 218.503 698.432 218.503 696.682C218.503 694.932 219.321 693.364 221.116 693.364C222.912 693.364 223.73 694.932 223.73 696.682C223.73 698.432 222.912 699.977 221.116 699.977ZM230.641 704.455C232.732 704.455 234.413 703.5 234.413 701.25V692.273H233.118V693.659H232.982C232.686 693.205 232.141 692.159 230.436 692.159C228.232 692.159 226.709 693.909 226.709 696.591C226.709 699.318 228.3 700.864 230.413 700.864C232.118 700.864 232.663 699.864 232.959 699.386H233.072V701.159C233.072 702.614 232.05 703.273 230.641 703.273C229.055 703.273 228.499 702.438 228.141 701.955L227.072 702.705C227.618 703.619 228.692 704.455 230.641 704.455ZM230.595 699.659C228.913 699.659 228.05 698.386 228.05 696.568C228.05 694.795 228.891 693.364 230.595 693.364C232.232 693.364 233.095 694.682 233.095 696.568C233.095 698.5 232.209 699.659 230.595 699.659ZM236.868 701H238.209V695.477C238.209 694.295 239.141 693.432 240.413 693.432C240.771 693.432 241.141 693.5 241.232 693.523V692.159C241.078 692.148 240.726 692.136 240.527 692.136C239.482 692.136 238.572 692.727 238.254 693.591H238.163V692.273H236.868V701ZM246.214 701.182C247.987 701.182 249.283 700.295 249.692 698.977L248.396 698.614C248.055 699.523 247.266 699.977 246.214 699.977C244.641 699.977 243.555 698.96 243.493 697.091H249.828V696.523C249.828 693.273 247.896 692.159 246.078 692.159C243.714 692.159 242.146 694.023 242.146 696.705C242.146 699.386 243.692 701.182 246.214 701.182ZM243.493 695.932C243.584 694.574 244.544 693.364 246.078 693.364C247.533 693.364 248.464 694.455 248.464 695.932H243.493ZM258.05 694.227C257.629 692.989 256.686 692.159 254.959 692.159C253.118 692.159 251.754 693.205 251.754 694.682C251.754 695.886 252.47 696.693 254.072 697.068L255.527 697.409C256.408 697.614 256.822 698.034 256.822 698.636C256.822 699.386 256.027 700 254.777 700C253.68 700 252.993 699.528 252.754 698.591L251.482 698.909C251.794 700.392 253.016 701.182 254.8 701.182C256.828 701.182 258.209 700.074 258.209 698.568C258.209 697.352 257.447 696.585 255.891 696.205L254.595 695.886C253.561 695.631 253.095 695.284 253.095 694.614C253.095 693.864 253.891 693.318 254.959 693.318C256.129 693.318 256.612 693.966 256.845 694.568L258.05 694.227ZM266.409 694.227C265.989 692.989 265.045 692.159 263.318 692.159C261.477 692.159 260.114 693.205 260.114 694.682C260.114 695.886 260.83 696.693 262.432 697.068L263.886 697.409C264.767 697.614 265.182 698.034 265.182 698.636C265.182 699.386 264.386 700 263.136 700C262.04 700 261.352 699.528 261.114 698.591L259.841 698.909C260.153 700.392 261.375 701.182 263.159 701.182C265.188 701.182 266.568 700.074 266.568 698.568C266.568 697.352 265.807 696.585 264.25 696.205L262.955 695.886C261.92 695.631 261.455 695.284 261.455 694.614C261.455 693.864 262.25 693.318 263.318 693.318C264.489 693.318 264.972 693.966 265.205 694.568L266.409 694.227ZM275.064 701H276.382L278.291 694.295H278.428L280.337 701H281.655L284.314 692.273H282.905L281.018 698.932H280.928L279.087 692.273H277.655L275.791 698.955H275.7L273.814 692.273H272.405L275.064 701ZM286.087 701H287.428V692.273H286.087V701ZM286.768 690.818C287.291 690.818 287.723 690.409 287.723 689.909C287.723 689.409 287.291 689 286.768 689C286.246 689 285.814 689.409 285.814 689.909C285.814 690.409 286.246 690.818 286.768 690.818ZM293.679 692.273H291.815V690.182H290.474V692.273H289.156V693.409H290.474V698.864C290.474 700.386 291.702 701.114 292.838 701.114C293.338 701.114 293.656 701.023 293.838 700.955L293.565 699.75C293.452 699.773 293.27 699.818 292.974 699.818C292.384 699.818 291.815 699.636 291.815 698.5V693.409H293.679V692.273ZM297.224 695.75C297.224 694.227 298.196 693.364 299.52 693.364C300.781 693.364 301.543 694.159 301.543 695.545V701H302.884V695.455C302.884 693.21 301.69 692.159 299.906 692.159C298.531 692.159 297.747 692.733 297.338 693.636H297.224V689.364H295.884V701H297.224V695.75ZM313.632 692.273H311.768V690.182H310.428V692.273H309.109V693.409H310.428V698.864C310.428 700.386 311.655 701.114 312.791 701.114C313.291 701.114 313.609 701.023 313.791 700.955L313.518 699.75C313.405 699.773 313.223 699.818 312.928 699.818C312.337 699.818 311.768 699.636 311.768 698.5V693.409H313.632V692.273ZM319.214 701.182C320.987 701.182 322.283 700.295 322.692 698.977L321.396 698.614C321.055 699.523 320.266 699.977 319.214 699.977C317.641 699.977 316.555 698.96 316.493 697.091H322.828V696.523C322.828 693.273 320.896 692.159 319.078 692.159C316.714 692.159 315.146 694.023 315.146 696.705C315.146 699.386 316.692 701.182 319.214 701.182ZM316.493 695.932C316.584 694.574 317.544 693.364 319.078 693.364C320.533 693.364 321.464 694.455 321.464 695.932H316.493ZM327.436 701.205C328.959 701.205 329.754 700.386 330.027 699.818H330.095V701H331.436V695.25C331.436 692.477 329.322 692.159 328.209 692.159C326.891 692.159 325.391 692.614 324.709 694.205L325.982 694.659C326.277 694.023 326.976 693.341 328.254 693.341C329.487 693.341 330.095 693.994 330.095 695.114V695.159C330.095 695.807 329.436 695.75 327.845 695.955C326.226 696.165 324.459 696.523 324.459 698.523C324.459 700.227 325.777 701.205 327.436 701.205ZM327.641 700C326.572 700 325.8 699.523 325.8 698.591C325.8 697.568 326.732 697.25 327.777 697.114C328.345 697.045 329.868 696.886 330.095 696.614V697.841C330.095 698.932 329.232 700 327.641 700ZM333.884 701H335.224V695.545C335.224 694.267 336.156 693.364 337.202 693.364C338.219 693.364 338.929 694.028 338.929 695.023V701H340.293V695.318C340.293 694.193 340.997 693.364 342.224 693.364C343.179 693.364 343.997 693.869 343.997 695.159V701H345.338V695.159C345.338 693.108 344.236 692.159 342.679 692.159C341.429 692.159 340.514 692.733 340.065 693.636H339.974C339.543 692.705 338.781 692.159 337.634 692.159C336.497 692.159 335.656 692.705 335.293 693.636H335.179V692.273H333.884V701ZM46.2273 725H47.5682V719.545C47.5682 718.267 48.5 717.364 49.5455 717.364C50.5625 717.364 51.2727 718.028 51.2727 719.023V725H52.6364V719.318C52.6364 718.193 53.3409 717.364 54.5682 717.364C55.5227 717.364 56.3409 717.869 56.3409 719.159V725H57.6818V719.159C57.6818 717.108 56.5795 716.159 55.0227 716.159C53.7727 716.159 52.858 716.733 52.4091 717.636H52.3182C51.8864 716.705 51.125 716.159 49.9773 716.159C48.8409 716.159 48 716.705 47.6364 717.636H47.5227V716.273H46.2273V725ZM63.7926 725.182C65.5653 725.182 66.8608 724.295 67.2699 722.977L65.9744 722.614C65.6335 723.523 64.8438 723.977 63.7926 723.977C62.2188 723.977 61.1335 722.96 61.071 721.091H67.4062V720.523C67.4062 717.273 65.4744 716.159 63.6562 716.159C61.2926 716.159 59.7244 718.023 59.7244 720.705C59.7244 723.386 61.2699 725.182 63.7926 725.182ZM61.071 719.932C61.1619 718.574 62.1222 717.364 63.6562 717.364C65.1108 717.364 66.0426 718.455 66.0426 719.932H61.071ZM69.446 725H70.7869V719.545C70.7869 718.267 71.7188 717.364 72.7642 717.364C73.7812 717.364 74.4915 718.028 74.4915 719.023V725H75.8551V719.318C75.8551 718.193 76.5597 717.364 77.7869 717.364C78.7415 717.364 79.5597 717.869 79.5597 719.159V725H80.9006V719.159C80.9006 717.108 79.7983 716.159 78.2415 716.159C76.9915 716.159 76.0767 716.733 75.6278 717.636H75.5369C75.1051 716.705 74.3438 716.159 73.196 716.159C72.0597 716.159 71.2188 716.705 70.8551 717.636H70.7415V716.273H69.446V725ZM83.5341 725H84.8295V723.659H84.9886C85.2841 724.136 85.8523 725.182 87.5341 725.182C89.7159 725.182 91.2386 723.432 91.2386 720.659C91.2386 717.909 89.7159 716.159 87.5114 716.159C85.8068 716.159 85.2841 717.205 84.9886 717.659H84.875V713.364H83.5341V725ZM84.8523 720.636C84.8523 718.682 85.7159 717.364 87.3523 717.364C89.0568 717.364 89.8977 718.795 89.8977 720.636C89.8977 722.5 89.0341 723.977 87.3523 723.977C85.7386 723.977 84.8523 722.614 84.8523 720.636ZM96.9489 725.182C98.7216 725.182 100.017 724.295 100.426 722.977L99.1307 722.614C98.7898 723.523 98 723.977 96.9489 723.977C95.375 723.977 94.2898 722.96 94.2273 721.091H100.562V720.523C100.562 717.273 98.6307 716.159 96.8125 716.159C94.4489 716.159 92.8807 718.023 92.8807 720.705C92.8807 723.386 94.4261 725.182 96.9489 725.182ZM94.2273 719.932C94.3182 718.574 95.2784 717.364 96.8125 717.364C98.267 717.364 99.1989 718.455 99.1989 719.932H94.2273ZM102.602 725H103.943V719.477C103.943 718.295 104.875 717.432 106.148 717.432C106.506 717.432 106.875 717.5 106.966 717.523V716.159C106.812 716.148 106.46 716.136 106.261 716.136C105.216 716.136 104.307 716.727 103.989 717.591H103.898V716.273H102.602V725ZM114.737 718.227C114.317 716.989 113.374 716.159 111.646 716.159C109.805 716.159 108.442 717.205 108.442 718.682C108.442 719.886 109.158 720.693 110.76 721.068L112.214 721.409C113.095 721.614 113.51 722.034 113.51 722.636C113.51 723.386 112.714 724 111.464 724C110.368 724 109.68 723.528 109.442 722.591L108.169 722.909C108.482 724.392 109.703 725.182 111.487 725.182C113.516 725.182 114.896 724.074 114.896 722.568C114.896 721.352 114.135 720.585 112.578 720.205L111.283 719.886C110.249 719.631 109.783 719.284 109.783 718.614C109.783 717.864 110.578 717.318 111.646 717.318C112.817 717.318 113.3 717.966 113.533 718.568L114.737 718.227ZM125.21 716.273H123.347V714.182H122.006V716.273H120.688V717.409H122.006V722.864C122.006 724.386 123.233 725.114 124.369 725.114C124.869 725.114 125.188 725.023 125.369 724.955L125.097 723.75C124.983 723.773 124.801 723.818 124.506 723.818C123.915 723.818 123.347 723.636 123.347 722.5V717.409H125.21V716.273ZM130.679 725.182C133.043 725.182 134.634 723.386 134.634 720.682C134.634 717.955 133.043 716.159 130.679 716.159C128.315 716.159 126.724 717.955 126.724 720.682C126.724 723.386 128.315 725.182 130.679 725.182ZM130.679 723.977C128.884 723.977 128.065 722.432 128.065 720.682C128.065 718.932 128.884 717.364 130.679 717.364C132.474 717.364 133.293 718.932 133.293 720.682C133.293 722.432 132.474 723.977 130.679 723.977ZM141.18 725H142.521V719.545C142.521 718.267 143.453 717.364 144.499 717.364C145.516 717.364 146.226 718.028 146.226 719.023V725H147.589V719.318C147.589 718.193 148.294 717.364 149.521 717.364C150.476 717.364 151.294 717.869 151.294 719.159V725H152.635V719.159C152.635 717.108 151.533 716.159 149.976 716.159C148.726 716.159 147.811 716.733 147.362 717.636H147.271C146.839 716.705 146.078 716.159 144.93 716.159C143.794 716.159 142.953 716.705 142.589 717.636H142.476V716.273H141.18V725ZM157.655 725.205C159.178 725.205 159.973 724.386 160.246 723.818H160.314V725H161.655V719.25C161.655 716.477 159.541 716.159 158.428 716.159C157.109 716.159 155.609 716.614 154.928 718.205L156.2 718.659C156.496 718.023 157.195 717.341 158.473 717.341C159.706 717.341 160.314 717.994 160.314 719.114V719.159C160.314 719.807 159.655 719.75 158.064 719.955C156.445 720.165 154.678 720.523 154.678 722.523C154.678 724.227 155.996 725.205 157.655 725.205ZM157.859 724C156.791 724 156.018 723.523 156.018 722.591C156.018 721.568 156.95 721.25 157.996 721.114C158.564 721.045 160.087 720.886 160.314 720.614V721.841C160.314 722.932 159.45 724 157.859 724ZM164.102 725H165.443V721.733L166.381 720.864L169.648 725H171.352L167.392 720L171.08 716.273H169.42L165.602 720.159H165.443V713.364H164.102V725ZM176.105 725.182C177.878 725.182 179.173 724.295 179.582 722.977L178.287 722.614C177.946 723.523 177.156 723.977 176.105 723.977C174.531 723.977 173.446 722.96 173.384 721.091H179.719V720.523C179.719 717.273 177.787 716.159 175.969 716.159C173.605 716.159 172.037 718.023 172.037 720.705C172.037 723.386 173.582 725.182 176.105 725.182ZM173.384 719.932C173.474 718.574 174.435 717.364 175.969 717.364C177.423 717.364 178.355 718.455 178.355 719.932H173.384ZM190.054 716.273H188.19V714.182H186.849V716.273H185.531V717.409H186.849V722.864C186.849 724.386 188.077 725.114 189.213 725.114C189.713 725.114 190.031 725.023 190.213 724.955L189.94 723.75C189.827 723.773 189.645 723.818 189.349 723.818C188.759 723.818 188.19 723.636 188.19 722.5V717.409H190.054V716.273ZM193.599 719.75C193.599 718.227 194.571 717.364 195.895 717.364C197.156 717.364 197.918 718.159 197.918 719.545V725H199.259V719.455C199.259 717.21 198.065 716.159 196.281 716.159C194.906 716.159 194.122 716.733 193.713 717.636H193.599V713.364H192.259V725H193.599V719.75ZM205.371 725.182C207.143 725.182 208.439 724.295 208.848 722.977L207.553 722.614C207.212 723.523 206.422 723.977 205.371 723.977C203.797 723.977 202.712 722.96 202.649 721.091H208.984V720.523C208.984 717.273 207.053 716.159 205.234 716.159C202.871 716.159 201.303 718.023 201.303 720.705C201.303 723.386 202.848 725.182 205.371 725.182ZM202.649 719.932C202.74 718.574 203.7 717.364 205.234 717.364C206.689 717.364 207.621 718.455 207.621 719.932H202.649ZM215.524 725H216.865V719.477C216.865 718.295 217.797 717.432 219.07 717.432C219.428 717.432 219.797 717.5 219.888 717.523V716.159C219.734 716.148 219.382 716.136 219.183 716.136C218.138 716.136 217.229 716.727 216.911 717.591H216.82V716.273H215.524V725ZM221.477 725H222.818V716.273H221.477V725ZM222.159 714.818C222.682 714.818 223.114 714.409 223.114 713.909C223.114 713.409 222.682 713 222.159 713C221.636 713 221.205 713.409 221.205 713.909C221.205 714.409 221.636 714.818 222.159 714.818ZM228.797 728.455C230.888 728.455 232.57 727.5 232.57 725.25V716.273H231.274V717.659H231.138C230.842 717.205 230.297 716.159 228.592 716.159C226.388 716.159 224.865 717.909 224.865 720.591C224.865 723.318 226.456 724.864 228.57 724.864C230.274 724.864 230.82 723.864 231.115 723.386H231.229V725.159C231.229 726.614 230.206 727.273 228.797 727.273C227.212 727.273 226.655 726.438 226.297 725.955L225.229 726.705C225.774 727.619 226.848 728.455 228.797 728.455ZM228.751 723.659C227.07 723.659 226.206 722.386 226.206 720.568C226.206 718.795 227.047 717.364 228.751 717.364C230.388 717.364 231.251 718.682 231.251 720.568C231.251 722.5 230.365 723.659 228.751 723.659ZM236.365 719.75C236.365 718.227 237.337 717.364 238.661 717.364C239.922 717.364 240.683 718.159 240.683 719.545V725H242.024V719.455C242.024 717.21 240.831 716.159 239.047 716.159C237.672 716.159 236.888 716.733 236.479 717.636H236.365V713.364H235.024V725H236.365V719.75ZM248.273 716.273H246.409V714.182H245.068V716.273H243.75V717.409H245.068V722.864C245.068 724.386 246.295 725.114 247.432 725.114C247.932 725.114 248.25 725.023 248.432 724.955L248.159 723.75C248.045 723.773 247.864 723.818 247.568 723.818C246.977 723.818 246.409 723.636 246.409 722.5V717.409H248.273V716.273ZM258.085 725.182C259.767 725.182 260.335 724.136 260.631 723.659H260.79V725H262.085V713.364H260.744V717.659H260.631C260.335 717.205 259.812 716.159 258.108 716.159C255.903 716.159 254.381 717.909 254.381 720.659C254.381 723.432 255.903 725.182 258.085 725.182ZM258.267 723.977C256.585 723.977 255.722 722.5 255.722 720.636C255.722 718.795 256.562 717.364 258.267 717.364C259.903 717.364 260.767 718.682 260.767 720.636C260.767 722.614 259.881 723.977 258.267 723.977ZM268.386 725.182C270.159 725.182 271.455 724.295 271.864 722.977L270.568 722.614C270.227 723.523 269.438 723.977 268.386 723.977C266.812 723.977 265.727 722.96 265.665 721.091H272V720.523C272 717.273 270.068 716.159 268.25 716.159C265.886 716.159 264.318 718.023 264.318 720.705C264.318 723.386 265.864 725.182 268.386 725.182ZM265.665 719.932C265.756 718.574 266.716 717.364 268.25 717.364C269.705 717.364 270.636 718.455 270.636 719.932H265.665ZM277.585 725.182C279.517 725.182 280.79 724 281.017 722.455H279.676C279.426 723.409 278.631 723.977 277.585 723.977C275.994 723.977 274.972 722.659 274.972 720.636C274.972 718.659 276.017 717.364 277.585 717.364C278.767 717.364 279.472 718.091 279.676 718.886H281.017C280.79 717.25 279.403 716.159 277.562 716.159C275.199 716.159 273.631 718.023 273.631 720.682C273.631 723.295 275.131 725.182 277.585 725.182ZM282.977 725H284.318V716.273H282.977V725ZM283.659 714.818C284.182 714.818 284.614 714.409 284.614 713.909C284.614 713.409 284.182 713 283.659 713C283.136 713 282.705 713.409 282.705 713.909C282.705 714.409 283.136 714.818 283.659 714.818ZM292.956 718.227C292.536 716.989 291.592 716.159 289.865 716.159C288.024 716.159 286.661 717.205 286.661 718.682C286.661 719.886 287.376 720.693 288.979 721.068L290.433 721.409C291.314 721.614 291.729 722.034 291.729 722.636C291.729 723.386 290.933 724 289.683 724C288.587 724 287.899 723.528 287.661 722.591L286.388 722.909C286.7 724.392 287.922 725.182 289.706 725.182C291.734 725.182 293.115 724.074 293.115 722.568C293.115 721.352 292.354 720.585 290.797 720.205L289.501 719.886C288.467 719.631 288.001 719.284 288.001 718.614C288.001 717.864 288.797 717.318 289.865 717.318C291.036 717.318 291.518 717.966 291.751 718.568L292.956 718.227ZM295.134 725H296.474V716.273H295.134V725ZM295.815 714.818C296.338 714.818 296.77 714.409 296.77 713.909C296.77 713.409 296.338 713 295.815 713C295.293 713 294.861 713.409 294.861 713.909C294.861 714.409 295.293 714.818 295.815 714.818ZM302.476 725.182C304.839 725.182 306.43 723.386 306.43 720.682C306.43 717.955 304.839 716.159 302.476 716.159C300.112 716.159 298.521 717.955 298.521 720.682C298.521 723.386 300.112 725.182 302.476 725.182ZM302.476 723.977C300.68 723.977 299.862 722.432 299.862 720.682C299.862 718.932 300.68 717.364 302.476 717.364C304.271 717.364 305.089 718.932 305.089 720.682C305.089 722.432 304.271 723.977 302.476 723.977ZM309.818 719.75C309.818 718.227 310.761 717.364 312.045 717.364C313.29 717.364 314.045 718.176 314.045 719.545V725H315.386V719.455C315.386 717.227 314.199 716.159 312.432 716.159C311.114 716.159 310.295 716.75 309.886 717.636H309.773V716.273H308.477V725H309.818V719.75ZM324.018 718.227C323.598 716.989 322.655 716.159 320.928 716.159C319.087 716.159 317.723 717.205 317.723 718.682C317.723 719.886 318.439 720.693 320.041 721.068L321.496 721.409C322.376 721.614 322.791 722.034 322.791 722.636C322.791 723.386 321.996 724 320.746 724C319.649 724 318.962 723.528 318.723 722.591L317.45 722.909C317.763 724.392 318.984 725.182 320.768 725.182C322.797 725.182 324.178 724.074 324.178 722.568C324.178 721.352 323.416 720.585 321.859 720.205L320.564 719.886C319.53 719.631 319.064 719.284 319.064 718.614C319.064 717.864 319.859 717.318 320.928 717.318C322.098 717.318 322.581 717.966 322.814 718.568L324.018 718.227ZM50.0227 740.273H48.1591V738.182H46.8182V740.273H45.5V741.409H46.8182V746.864C46.8182 748.386 48.0455 749.114 49.1818 749.114C49.6818 749.114 50 749.023 50.1818 748.955L49.9091 747.75C49.7955 747.773 49.6136 747.818 49.3182 747.818C48.7273 747.818 48.1591 747.636 48.1591 746.5V741.409H50.0227V740.273ZM55.4915 749.182C57.8551 749.182 59.446 747.386 59.446 744.682C59.446 741.955 57.8551 740.159 55.4915 740.159C53.1278 740.159 51.5369 741.955 51.5369 744.682C51.5369 747.386 53.1278 749.182 55.4915 749.182ZM55.4915 747.977C53.696 747.977 52.8778 746.432 52.8778 744.682C52.8778 742.932 53.696 741.364 55.4915 741.364C57.2869 741.364 58.1051 742.932 58.1051 744.682C58.1051 746.432 57.2869 747.977 55.4915 747.977ZM65.0156 752.455C67.1065 752.455 68.7884 751.5 68.7884 749.25V740.273H67.4929V741.659H67.3565C67.0611 741.205 66.5156 740.159 64.8111 740.159C62.6065 740.159 61.0838 741.909 61.0838 744.591C61.0838 747.318 62.6747 748.864 64.7884 748.864C66.4929 748.864 67.0384 747.864 67.3338 747.386H67.4474V749.159C67.4474 750.614 66.4247 751.273 65.0156 751.273C63.4304 751.273 62.8736 750.438 62.5156 749.955L61.4474 750.705C61.9929 751.619 63.0668 752.455 65.0156 752.455ZM64.9702 747.659C63.2884 747.659 62.4247 746.386 62.4247 744.568C62.4247 742.795 63.2656 741.364 64.9702 741.364C66.6065 741.364 67.4702 742.682 67.4702 744.568C67.4702 746.5 66.5838 747.659 64.9702 747.659ZM74.902 749.182C76.6747 749.182 77.9702 748.295 78.3793 746.977L77.0838 746.614C76.7429 747.523 75.9531 747.977 74.902 747.977C73.3281 747.977 72.2429 746.96 72.1804 745.091H78.5156V744.523C78.5156 741.273 76.5838 740.159 74.7656 740.159C72.402 740.159 70.8338 742.023 70.8338 744.705C70.8338 747.386 72.3793 749.182 74.902 749.182ZM72.1804 743.932C72.2713 742.574 73.2315 741.364 74.7656 741.364C76.2202 741.364 77.152 742.455 77.152 743.932H72.1804ZM84.3509 740.273H82.4872V738.182H81.1463V740.273H79.8281V741.409H81.1463V746.864C81.1463 748.386 82.3736 749.114 83.5099 749.114C84.0099 749.114 84.3281 749.023 84.5099 748.955L84.2372 747.75C84.1236 747.773 83.9418 747.818 83.6463 747.818C83.0554 747.818 82.4872 747.636 82.4872 746.5V741.409H84.3509V740.273ZM87.8963 743.75C87.8963 742.227 88.8679 741.364 90.1918 741.364C91.4531 741.364 92.2145 742.159 92.2145 743.545V749H93.5554V743.455C93.5554 741.21 92.3622 740.159 90.5781 740.159C89.2031 740.159 88.419 740.733 88.0099 741.636H87.8963V737.364H86.5554V749H87.8963V743.75ZM99.6676 749.182C101.44 749.182 102.736 748.295 103.145 746.977L101.849 746.614C101.509 747.523 100.719 747.977 99.6676 747.977C98.0938 747.977 97.0085 746.96 96.946 745.091H103.281V744.523C103.281 741.273 101.349 740.159 99.5312 740.159C97.1676 740.159 95.5994 742.023 95.5994 744.705C95.5994 747.386 97.1449 749.182 99.6676 749.182ZM96.946 743.932C97.0369 742.574 97.9972 741.364 99.5312 741.364C100.986 741.364 101.918 742.455 101.918 743.932H96.946ZM105.321 749H106.662V743.477C106.662 742.295 107.594 741.432 108.866 741.432C109.224 741.432 109.594 741.5 109.685 741.523V740.159C109.531 740.148 109.179 740.136 108.98 740.136C107.935 740.136 107.026 740.727 106.707 741.591H106.616V740.273H105.321V749ZM111.251 749.091C111.814 749.091 112.274 748.631 112.274 748.068C112.274 747.506 111.814 747.045 111.251 747.045C110.689 747.045 110.229 747.506 110.229 748.068C110.229 748.631 110.689 749.091 111.251 749.091Z" fill="white"/>
<g filter="url(#filter1_ii_26_9)">
<path d="M8.61847 221.132C5.85633 223.899 1.1476 222.728 -0.0010767 218.988L-9.47535 188.143C-10.699 184.159 -6.97384 180.427 -2.99682 181.653L27.7962 191.143C31.5297 192.294 32.6995 197.011 29.9373 199.778L8.61847 221.132Z" fill="#1B1B1A"/>
</g>
<g filter="url(#filter2_ii_26_9)">
<path d="M177.709 213.385H49.8481C34.5799 213.385 22.2025 225.783 22.2025 241.077V275.692C22.2025 290.986 34.5799 303.385 49.8481 303.385H177.709C192.977 303.385 205.354 290.986 205.354 275.692V241.077C205.354 225.783 192.977 213.385 177.709 213.385Z" fill="#1B1B1A"/>
</g>
<path d="M52.9307 272.231H65.1386C72.0452 272.231 75.4321 268.705 75.4321 264C75.4321 259.427 72.1924 256.743 68.982 256.58V256.285C71.9273 255.592 74.254 253.527 74.254 249.854C74.254 245.355 71.0143 242.021 64.4761 242.021H52.9307V272.231ZM58.3941 267.658V258.808H64.4171C67.7895 258.808 69.8805 260.873 69.8805 263.572C69.8805 265.977 68.2311 267.658 64.2698 267.658H58.3941ZM58.3941 254.869V246.535H63.9163C67.1267 246.535 68.7906 248.231 68.7906 250.562C68.7906 253.217 66.6408 254.869 63.7985 254.869H58.3941ZM89.8157 272.673C96.4424 272.673 100.654 267.997 100.654 260.991C100.654 253.969 96.4424 249.278 89.8157 249.278C83.1891 249.278 78.9773 253.969 78.9773 260.991C78.9773 267.997 83.1891 272.673 89.8157 272.673ZM89.8451 268.396C86.1783 268.396 84.382 265.121 84.382 260.976C84.382 256.831 86.1783 253.512 89.8451 253.512C93.4532 253.512 95.2495 256.831 95.2495 260.976C95.2495 265.121 93.4532 268.396 89.8451 268.396ZM119.595 262.702C119.595 266.153 117.136 267.865 114.78 267.865C112.218 267.865 110.509 266.05 110.509 263.174V249.573H105.179V264C105.179 269.443 108.271 272.526 112.718 272.526C116.105 272.526 118.491 270.741 119.522 268.204H119.757V272.231H124.926V249.573H119.595V262.702ZM130.643 272.231H135.886V268.661H136.195C137.035 270.313 138.787 272.629 142.675 272.629C148.006 272.629 151.996 268.396 151.996 260.932C151.996 253.379 147.888 249.278 142.66 249.278C138.669 249.278 137.005 251.683 136.195 253.32H135.974V242.021H130.643V272.231ZM135.871 260.902C135.871 256.507 137.756 253.659 141.187 253.659C144.736 253.659 146.562 256.683 146.562 260.902C146.562 265.15 144.707 268.248 141.187 268.248C137.786 268.248 135.871 265.298 135.871 260.902ZM163.037 272.688C166.586 272.688 168.707 271.021 169.678 269.119H169.855V272.231H174.98V257.067C174.98 251.078 170.105 249.278 165.791 249.278C161.034 249.278 157.382 251.403 156.204 255.533L161.181 256.241C161.711 254.692 163.214 253.364 165.82 253.364C168.294 253.364 169.649 254.633 169.649 256.861V256.949C169.649 258.483 168.044 258.557 164.053 258.985C159.665 259.457 155.468 260.769 155.468 265.873C155.468 270.328 158.722 272.688 163.037 272.688ZM164.421 268.765C162.198 268.765 160.607 267.746 160.607 265.785C160.607 263.735 162.389 262.879 164.775 262.54C166.173 262.348 168.972 261.994 169.664 261.433V264.103C169.664 266.626 167.631 268.765 164.421 268.765Z" fill="white"/>
<g filter="url(#filter3_ii_26_9)">
<path d="M448.604 127.217H181.644C161.652 127.217 145.446 143.413 145.446 163.391V208.609C145.446 228.587 161.652 244.783 181.644 244.783H448.604C468.596 244.783 484.802 228.587 484.802 208.609V163.391C484.802 143.413 468.596 127.217 448.604 127.217Z" fill="#FFB423"/>
</g>
<path d="M190.866 204.087L194.124 194.356H208.971L212.249 204.087H219.885L205.963 164.625H197.132L183.23 204.087H190.866ZM196.053 188.614L201.394 172.718H201.702L207.043 188.614H196.053ZM231.757 164.625H224.777V204.087H231.757V164.625ZM252.046 204.665C258.949 204.665 263.692 201.293 264.927 196.148L258.409 195.416C257.464 197.921 255.151 199.231 252.143 199.231C247.631 199.231 244.642 196.264 244.584 191.196H265.216V189.057C265.216 178.672 258.968 174.105 251.68 174.105C243.196 174.105 237.662 180.329 237.662 189.462C237.662 198.75 243.119 204.665 252.046 204.665ZM244.604 186.495C244.816 182.718 247.612 179.539 251.776 179.539C255.787 179.539 258.487 182.468 258.525 186.495H244.604ZM276.245 174.49H268.841L277.633 189.289L268.609 204.087H276.014L282.222 193.432L288.489 204.087H295.835L286.753 189.289L295.68 174.49H288.296L282.222 185.415L276.245 174.49ZM309.496 204.684C314.143 204.684 316.919 202.507 318.192 200.022H318.423V204.087H325.133V184.279C325.133 176.456 318.751 174.105 313.102 174.105C306.874 174.105 302.092 176.88 300.549 182.275L307.067 183.2C307.761 181.176 309.728 179.442 313.14 179.442C316.379 179.442 318.154 181.099 318.154 184.009V184.125C318.154 186.129 316.052 186.225 310.826 186.784C305.081 187.401 299.585 189.115 299.585 195.782C299.585 201.601 303.846 204.684 309.496 204.684ZM311.308 199.559C308.397 199.559 306.315 198.229 306.315 195.667C306.315 192.988 308.647 191.871 311.771 191.428C313.603 191.177 317.266 190.714 318.173 189.982V193.47C318.173 196.765 315.512 199.559 311.308 199.559ZM339.132 186.745C339.132 182.468 341.716 180.001 345.398 180.001C349.004 180.001 351.163 182.371 351.163 186.321V204.087H358.143V185.242C358.163 178.151 354.114 174.105 348.002 174.105C343.566 174.105 340.52 176.225 339.171 179.52H338.823V174.49H332.152V204.087H339.132V186.745ZM376.23 204.608C381.32 204.608 383.614 201.582 384.714 199.424H385.138V204.087H392.002V164.625H385.003V179.384H384.714C383.653 177.246 381.474 174.105 376.249 174.105C369.404 174.105 364.025 179.462 364.025 189.327C364.025 199.077 369.25 204.608 376.23 204.608ZM378.177 198.884C373.569 198.884 371.139 194.838 371.139 189.289C371.139 183.778 373.53 179.828 378.177 179.828C382.67 179.828 385.138 183.547 385.138 189.289C385.138 195.031 382.631 198.884 378.177 198.884ZM399.44 204.087H406.42V186.687C406.42 182.93 409.254 180.271 413.091 180.271C414.267 180.271 415.733 180.483 416.331 180.675V174.259C415.694 174.143 414.595 174.066 413.824 174.066C410.43 174.066 407.596 175.993 406.516 179.423H406.207V174.49H399.44V204.087ZM432.86 204.665C439.763 204.665 444.506 201.293 445.74 196.148L439.223 195.416C438.278 197.921 435.964 199.231 432.956 199.231C428.444 199.231 425.456 196.264 425.398 191.196H446.029V189.057C446.029 178.672 439.782 174.105 432.494 174.105C424.01 174.105 418.475 180.329 418.475 189.462C418.475 198.75 423.932 204.665 432.86 204.665ZM425.417 186.495C425.629 182.718 428.425 179.539 432.59 179.539C436.6 179.539 439.3 182.468 439.338 186.495H425.417Z" fill="white"/>
<g filter="url(#filter4_ii_26_9)">
<path d="M127.659 137.338C124.043 140.953 117.877 139.422 116.373 134.537L103.968 94.2445C102.366 89.0404 107.243 84.1661 112.451 85.7672L152.77 98.1641C157.658 99.6671 159.19 105.829 155.573 109.443L127.659 137.338Z" fill="#FFB423"/>
</g>
<g filter="url(#filter5_ii_26_9)">
<path d="M265 447H100C86.7452 447 76 457.745 76 471V501C76 514.255 86.7452 525 100 525H265C278.255 525 289 514.255 289 501V471C289 457.745 278.255 447 265 447Z" fill="#FF2E57"/>
</g>
<path d="M125.72 480.652C124.914 474.835 120.44 471.46 114.636 471.46C107.796 471.46 102.644 476.446 102.644 484.909C102.644 493.359 107.732 498.358 114.636 498.358C120.861 498.358 124.991 494.331 125.72 489.332L120.938 489.307C120.337 492.375 117.832 494.101 114.7 494.101C110.455 494.101 107.413 490.917 107.413 484.909C107.413 479.003 110.43 475.717 114.712 475.717C117.896 475.717 120.389 477.52 120.938 480.652H125.72ZM134.486 486.494C134.486 483.656 136.251 482.02 138.731 482.02C141.159 482.02 142.591 483.566 142.591 486.213V498H147.219V485.497C147.219 480.754 144.534 478.108 140.456 478.108C137.439 478.108 135.522 479.476 134.614 481.7H134.384V471.818H129.858V498H134.486V486.494ZM157.587 498.396C160.668 498.396 162.509 496.952 163.353 495.302H163.506V498H167.955V484.858C167.955 479.667 163.723 478.108 159.978 478.108C155.848 478.108 152.678 479.949 151.655 483.528L155.976 484.142C156.436 482.799 157.74 481.649 160.003 481.649C162.151 481.649 163.327 482.748 163.327 484.679V484.755C163.327 486.085 161.934 486.149 158.469 486.52C154.659 486.929 151.016 488.066 151.016 492.49C151.016 496.351 153.841 498.396 157.587 498.396ZM158.789 494.996C156.858 494.996 155.478 494.113 155.478 492.413C155.478 490.636 157.025 489.895 159.096 489.601C160.31 489.434 162.739 489.128 163.34 488.642V490.956C163.34 493.142 161.576 494.996 158.789 494.996ZM172.608 498H177.236V486.456C177.236 483.963 179.115 482.199 181.659 482.199C182.439 482.199 183.411 482.339 183.807 482.467V478.21C183.385 478.133 182.657 478.082 182.145 478.082C179.895 478.082 178.016 479.36 177.3 481.636H177.096V478.363H172.608V498ZM191.51 471.818H186.882V498H191.51V471.818ZM204.834 498.383C210.587 498.383 214.243 494.331 214.243 488.258C214.243 482.173 210.587 478.108 204.834 478.108C199.081 478.108 195.425 482.173 195.425 488.258C195.425 494.331 199.081 498.383 204.834 498.383ZM204.859 494.676C201.676 494.676 200.117 491.838 200.117 488.246C200.117 484.653 201.676 481.777 204.859 481.777C207.992 481.777 209.551 484.653 209.551 488.246C209.551 491.838 207.992 494.676 204.859 494.676ZM227.976 478.363H224.103V473.659H219.475V478.363H216.688V481.943H219.475V492.86C219.449 496.555 222.134 498.371 225.611 498.268C226.928 498.23 227.836 497.974 228.334 497.808L227.554 494.19C227.299 494.254 226.775 494.369 226.199 494.369C225.036 494.369 224.103 493.96 224.103 492.093V481.943H227.976V478.363ZM241.652 478.363H237.778V473.659H233.151V478.363H230.364V481.943H233.151V492.86C233.125 496.555 235.81 498.371 239.287 498.268C240.604 498.23 241.512 497.974 242.01 497.808L241.23 494.19C240.975 494.254 240.45 494.369 239.875 494.369C238.712 494.369 237.778 493.96 237.778 492.093V481.943H241.652V478.363ZM254.005 498.383C258.581 498.383 261.726 496.146 262.545 492.733L258.223 492.247C257.597 493.909 256.063 494.778 254.069 494.778C251.077 494.778 249.096 492.809 249.057 489.447H262.736V488.028C262.736 481.138 258.594 478.108 253.762 478.108C248.137 478.108 244.468 482.237 244.468 488.297C244.468 494.459 248.086 498.383 254.005 498.383ZM249.07 486.328C249.211 483.822 251.064 481.713 253.826 481.713C256.485 481.713 258.275 483.656 258.3 486.328H249.07Z" fill="white"/>
<g filter="url(#filter6_ii_26_9)">
<path d="M64.2072 453.715C61.8093 456.113 57.7215 455.097 56.7243 451.856L48.4994 425.124C47.4371 421.671 50.6711 418.437 54.1236 419.499L80.856 427.724C84.0972 428.721 85.1127 432.809 82.7148 435.207L64.2072 453.715Z" fill="#FF2E57"/>
</g>
<g filter="url(#filter7_ii_26_9)">
<path d="M385.677 332.461H272.774C247.832 332.461 227.613 352.712 227.613 377.692V434.231C227.613 459.211 247.832 479.461 272.774 479.461H385.677C410.619 479.461 430.839 459.211 430.839 434.231V377.692C430.839 352.712 410.619 332.461 385.677 332.461Z" fill="#33D1EA"/>
</g>
<path d="M277.689 428.577H308.312V421.084H286.613V379.234H277.689V428.577ZM315.674 428.577H324.382V391.569H315.674V428.577ZM320.051 386.318C322.818 386.318 325.079 384.197 325.079 381.595C325.079 378.969 322.818 376.849 320.051 376.849C317.261 376.849 314.999 378.969 314.999 381.595C314.999 384.197 317.261 386.318 320.051 386.318ZM342.045 379.234H333.337V428.577H342.045V379.234ZM356.412 442.454C363.196 442.454 367.117 438.961 369.21 433.058L384.053 391.618L374.743 391.569L366.203 419.518H365.818L357.302 391.569H348.065L361.464 429.348L360.718 431.348C359.106 435.564 356.556 435.853 352.755 434.745L350.735 441.539C351.914 442.02 354.031 442.454 356.412 442.454Z" fill="white"/>
<g filter="url(#filter8_ii_26_9)">
<path d="M205.422 345.116C200.91 349.636 193.218 347.722 191.342 341.614L175.865 291.233C173.866 284.726 179.951 278.632 186.448 280.634L236.751 296.134C242.85 298.014 244.761 305.718 240.248 310.237L205.422 345.116Z" fill="#33D1EA"/>
</g>
</g>
</g>
<defs>
<filter id="filter0_ddd_26_9" x="0" y="0" width="394" height="802" filterUnits="userSpaceOnUse" color-interpolation-filters="sRGB">
<feFlood flood-opacity="0" result="BackgroundImageFix"/>
<feColorMatrix in="SourceAlpha" type="matrix" values="0 0 0 0 0 0 0 0 0 0 0 0 0 0 0 0 0 0 127 0" result="hardAlpha"/>
<feMorphology radius="1" operator="dilate" in="SourceAlpha" result="effect1_dropShadow_26_9"/>
<feOffset/>
<feComposite in2="hardAlpha" operator="out"/>
<feColorMatrix type="matrix" values="0 0 0 0 0.0901961 0 0 0 0 0.588235 0 0 0 0 0.564706 0 0 0 1 0"/>
<feBlend mode="normal" in2="BackgroundImageFix" result="effect1_dropShadow_26_9"/>
<feColorMatrix in="SourceAlpha" type="matrix" values="0 0 0 0 0 0 0 0 0 0 0 0 0 0 0 0 0 0 127 0" result="hardAlpha"/>
<feOffset dy="1"/>
<feGaussianBlur stdDeviation="0.5"/>
<feComposite in2="hardAlpha" operator="out"/>
<feColorMatrix type="matrix" values="0 0 0 0 0.105882 0 0 0 0 0.105882 0 0 0 0 0.101961 0 0 0 0.12 0"/>
<feBlend mode="normal" in2="effect1_dropShadow_26_9" result="effect2_dropShadow_26_9"/>
<feColorMatrix in="SourceAlpha" type="matrix" values="0 0 0 0 0 0 0 0 0 0 0 0 0 0 0 0 0 0 127 0" result="hardAlpha"/>
<feOffset dy="2"/>
<feGaussianBlur stdDeviation="2.5"/>
<feComposite in2="hardAlpha" operator="out"/>
<feColorMatrix type="matrix" values="0 0 0 0 0.105882 0 0 0 0 0.105882 0 0 0 0 0.101961 0 0 0 0.08 0"/>
<feBlend mode="normal" in2="effect2_dropShadow_26_9" result="effect3_dropShadow_26_9"/>
<feBlend mode="normal" in="SourceGraphic" in2="effect3_dropShadow_26_9" result="shape"/>
</filter>
<filter id="filter1_ii_26_9" x="-9.71204" y="181.416" width="41.1702" height="43.2397" filterUnits="userSpaceOnUse" color-interpolation-filters="sRGB">
<feFlood flood-opacity="0" result="BackgroundImageFix"/>
<feBlend mode="normal" in="SourceGraphic" in2="BackgroundImageFix" result="shape"/>
<feColorMatrix in="SourceAlpha" type="matrix" values="0 0 0 0 0 0 0 0 0 0 0 0 0 0 0 0 0 0 127 0" result="hardAlpha"/>
<feOffset dy="2"/>
<feGaussianBlur stdDeviation="4"/>
<feComposite in2="hardAlpha" operator="arithmetic" k2="-1" k3="1"/>
<feColorMatrix type="matrix" values="0 0 0 0 0.105882 0 0 0 0 0.105882 0 0 0 0 0.101961 0 0 0 0.04 0"/>
<feBlend mode="normal" in2="shape" result="effect1_innerShadow_26_9"/>
<feColorMatrix in="SourceAlpha" type="matrix" values="0 0 0 0 0 0 0 0 0 0 0 0 0 0 0 0 0 0 127 0" result="hardAlpha"/>
<feOffset dy="2"/>
<feGaussianBlur stdDeviation="4"/>
<feComposite in2="hardAlpha" operator="arithmetic" k2="-1" k3="1"/>
<feColorMatrix type="matrix" values="0 0 0 0 0.105882 0 0 0 0 0.105882 0 0 0 0 0.101961 0 0 0 0.02 0"/>
<feBlend mode="normal" in2="effect1_innerShadow_26_9" result="effect2_innerShadow_26_9"/>
</filter>
<filter id="filter2_ii_26_9" x="22.2025" y="213.385" width="183.152" height="92" filterUnits="userSpaceOnUse" color-interpolation-filters="sRGB">
<feFlood flood-opacity="0" result="BackgroundImageFix"/>
<feBlend mode="normal" in="SourceGraphic" in2="BackgroundImageFix" result="shape"/>
<feColorMatrix in="SourceAlpha" type="matrix" values="0 0 0 0 0 0 0 0 0 0 0 0 0 0 0 0 0 0 127 0" result="hardAlpha"/>
<feOffset dy="2"/>
<feGaussianBlur stdDeviation="4"/>
<feComposite in2="hardAlpha" operator="arithmetic" k2="-1" k3="1"/>
<feColorMatrix type="matrix" values="0 0 0 0 0.105882 0 0 0 0 0.105882 0 0 0 0 0.101961 0 0 0 0.04 0"/>
<feBlend mode="normal" in2="shape" result="effect1_innerShadow_26_9"/>
<feColorMatrix in="SourceAlpha" type="matrix" values="0 0 0 0 0 0 0 0 0 0 0 0 0 0 0 0 0 0 127 0" result="hardAlpha"/>
<feOffset dy="2"/>
<feGaussianBlur stdDeviation="4"/>
<feComposite in2="hardAlpha" operator="arithmetic" k2="-1" k3="1"/>
<feColorMatrix type="matrix" values="0 0 0 0 0.105882 0 0 0 0 0.105882 0 0 0 0 0.101961 0 0 0 0.02 0"/>
<feBlend mode="normal" in2="effect1_innerShadow_26_9" result="effect2_innerShadow_26_9"/>
</filter>
<filter id="filter3_ii_26_9" x="145.446" y="127.217" width="339.356" height="119.565" filterUnits="userSpaceOnUse" color-interpolation-filters="sRGB">
<feFlood flood-opacity="0" result="BackgroundImageFix"/>
<feBlend mode="normal" in="SourceGraphic" in2="BackgroundImageFix" result="shape"/>
<feColorMatrix in="SourceAlpha" type="matrix" values="0 0 0 0 0 0 0 0 0 0 0 0 0 0 0 0 0 0 127 0" result="hardAlpha"/>
<feOffset dy="2"/>
<feGaussianBlur stdDeviation="4"/>
<feComposite in2="hardAlpha" operator="arithmetic" k2="-1" k3="1"/>
<feColorMatrix type="matrix" values="0 0 0 0 0.105882 0 0 0 0 0.105882 0 0 0 0 0.101961 0 0 0 0.04 0"/>
<feBlend mode="normal" in2="shape" result="effect1_innerShadow_26_9"/>
<feColorMatrix in="SourceAlpha" type="matrix" values="0 0 0 0 0 0 0 0 0 0 0 0 0 0 0 0 0 0 127 0" result="hardAlpha"/>
<feOffset dy="2"/>
<feGaussianBlur stdDeviation="4"/>
<feComposite in2="hardAlpha" operator="arithmetic" k2="-1" k3="1"/>
<feColorMatrix type="matrix" values="0 0 0 0 0.105882 0 0 0 0 0.105882 0 0 0 0 0.101961 0 0 0 0.02 0"/>
<feBlend mode="normal" in2="effect1_innerShadow_26_9" result="effect2_innerShadow_26_9"/>
</filter>
<filter id="filter4_ii_26_9" x="103.658" y="85.4575" width="53.9066" height="55.8708" filterUnits="userSpaceOnUse" color-interpolation-filters="sRGB">
<feFlood flood-opacity="0" result="BackgroundImageFix"/>
<feBlend mode="normal" in="SourceGraphic" in2="BackgroundImageFix" result="shape"/>
<feColorMatrix in="SourceAlpha" type="matrix" values="0 0 0 0 0 0 0 0 0 0 0 0 0 0 0 0 0 0 127 0" result="hardAlpha"/>
<feOffset dy="2"/>
<feGaussianBlur stdDeviation="4"/>
<feComposite in2="hardAlpha" operator="arithmetic" k2="-1" k3="1"/>
<feColorMatrix type="matrix" values="0 0 0 0 0.105882 0 0 0 0 0.105882 0 0 0 0 0.101961 0 0 0 0.04 0"/>
<feBlend mode="normal" in2="shape" result="effect1_innerShadow_26_9"/>
<feColorMatrix in="SourceAlpha" type="matrix" values="0 0 0 0 0 0 0 0 0 0 0 0 0 0 0 0 0 0 127 0" result="hardAlpha"/>
<feOffset dy="2"/>
<feGaussianBlur stdDeviation="4"/>
<feComposite in2="hardAlpha" operator="arithmetic" k2="-1" k3="1"/>
<feColorMatrix type="matrix" values="0 0 0 0 0.105882 0 0 0 0 0.105882 0 0 0 0 0.101961 0 0 0 0.02 0"/>
<feBlend mode="normal" in2="effect1_innerShadow_26_9" result="effect2_innerShadow_26_9"/>
</filter>
<filter id="filter5_ii_26_9" x="76" y="447" width="213" height="80" filterUnits="userSpaceOnUse" color-interpolation-filters="sRGB">
<feFlood flood-opacity="0" result="BackgroundImageFix"/>
<feBlend mode="normal" in="SourceGraphic" in2="BackgroundImageFix" result="shape"/>
<feColorMatrix in="SourceAlpha" type="matrix" values="0 0 0 0 0 0 0 0 0 0 0 0 0 0 0 0 0 0 127 0" result="hardAlpha"/>
<feOffset dy="2"/>
<feGaussianBlur stdDeviation="4"/>
<feComposite in2="hardAlpha" operator="arithmetic" k2="-1" k3="1"/>
<feColorMatrix type="matrix" values="0 0 0 0 0.105882 0 0 0 0 0.105882 0 0 0 0 0.101961 0 0 0 0.04 0"/>
<feBlend mode="normal" in2="shape" result="effect1_innerShadow_26_9"/>
<feColorMatrix in="SourceAlpha" type="matrix" values="0 0 0 0 0 0 0 0 0 0 0 0 0 0 0 0 0 0 127 0" result="hardAlpha"/>
<feOffset dy="2"/>
<feGaussianBlur stdDeviation="4"/>
<feComposite in2="hardAlpha" operator="arithmetic" k2="-1" k3="1"/>
<feColorMatrix type="matrix" values="0 0 0 0 0.105882 0 0 0 0 0.105882 0 0 0 0 0.101961 0 0 0 0.02 0"/>
<feBlend mode="normal" in2="effect1_innerShadow_26_9" result="effect2_innerShadow_26_9"/>
</filter>
<filter id="filter6_ii_26_9" x="48.2939" y="419.294" width="35.7411" height="37.7412" filterUnits="userSpaceOnUse" color-interpolation-filters="sRGB">
<feFlood flood-opacity="0" result="BackgroundImageFix"/>
<feBlend mode="normal" in="SourceGraphic" in2="BackgroundImageFix" result="shape"/>
<feColorMatrix in="SourceAlpha" type="matrix" values="0 0 0 0 0 0 0 0 0 0 0 0 0 0 0 0 0 0 127 0" result="hardAlpha"/>
<feOffset dy="2"/>
<feGaussianBlur stdDeviation="4"/>
<feComposite in2="hardAlpha" operator="arithmetic" k2="-1" k3="1"/>
<feColorMatrix type="matrix" values="0 0 0 0 0.105882 0 0 0 0 0.105882 0 0 0 0 0.101961 0 0 0 0.04 0"/>
<feBlend mode="normal" in2="shape" result="effect1_innerShadow_26_9"/>
<feColorMatrix in="SourceAlpha" type="matrix" values="0 0 0 0 0 0 0 0 0 0 0 0 0 0 0 0 0 0 127 0" result="hardAlpha"/>
<feOffset dy="2"/>
<feGaussianBlur stdDeviation="4"/>
<feComposite in2="hardAlpha" operator="arithmetic" k2="-1" k3="1"/>
<feColorMatrix type="matrix" values="0 0 0 0 0.105882 0 0 0 0 0.105882 0 0 0 0 0.101961 0 0 0 0.02 0"/>
<feBlend mode="normal" in2="effect1_innerShadow_26_9" result="effect2_innerShadow_26_9"/>
</filter>
<filter id="filter7_ii_26_9" x="227.613" y="332.461" width="203.226" height="149" filterUnits="userSpaceOnUse" color-interpolation-filters="sRGB">
<feFlood flood-opacity="0" result="BackgroundImageFix"/>
<feBlend mode="normal" in="SourceGraphic" in2="BackgroundImageFix" result="shape"/>
<feColorMatrix in="SourceAlpha" type="matrix" values="0 0 0 0 0 0 0 0 0 0 0 0 0 0 0 0 0 0 127 0" result="hardAlpha"/>
<feOffset dy="2"/>
<feGaussianBlur stdDeviation="4"/>
<feComposite in2="hardAlpha" operator="arithmetic" k2="-1" k3="1"/>
<feColorMatrix type="matrix" values="0 0 0 0 0.105882 0 0 0 0 0.105882 0 0 0 0 0.101961 0 0 0 0.04 0"/>
<feBlend mode="normal" in2="shape" result="effect1_innerShadow_26_9"/>
<feColorMatrix in="SourceAlpha" type="matrix" values="0 0 0 0 0 0 0 0 0 0 0 0 0 0 0 0 0 0 127 0" result="hardAlpha"/>
<feOffset dy="2"/>
<feGaussianBlur stdDeviation="4"/>
<feComposite in2="hardAlpha" operator="arithmetic" k2="-1" k3="1"/>
<feColorMatrix type="matrix" values="0 0 0 0 0.105882 0 0 0 0 0.105882 0 0 0 0 0.101961 0 0 0 0.02 0"/>
<feBlend mode="normal" in2="effect1_innerShadow_26_9" result="effect2_innerShadow_26_9"/>
</filter>
<filter id="filter8_ii_26_9" x="175.478" y="280.246" width="67.2548" height="69.3584" filterUnits="userSpaceOnUse" color-interpolation-filters="sRGB">
<feFlood flood-opacity="0" result="BackgroundImageFix"/>
<feBlend mode="normal" in="SourceGraphic" in2="BackgroundImageFix" result="shape"/>
<feColorMatrix in="SourceAlpha" type="matrix" values="0 0 0 0 0 0 0 0 0 0 0 0 0 0 0 0 0 0 127 0" result="hardAlpha"/>
<feOffset dy="2"/>
<feGaussianBlur stdDeviation="4"/>
<feComposite in2="hardAlpha" operator="arithmetic" k2="-1" k3="1"/>
<feColorMatrix type="matrix" values="0 0 0 0 0.105882 0 0 0 0 0.105882 0 0 0 0 0.101961 0 0 0 0.04 0"/>
<feBlend mode="normal" in2="shape" result="effect1_innerShadow_26_9"/>
<feColorMatrix in="SourceAlpha" type="matrix" values="0 0 0 0 0 0 0 0 0 0 0 0 0 0 0 0 0 0 127 0" result="hardAlpha"/>
<feOffset dy="2"/>
<feGaussianBlur stdDeviation="4"/>
<feComposite in2="hardAlpha" operator="arithmetic" k2="-1" k3="1"/>
<feColorMatrix type="matrix" values="0 0 0 0 0.105882 0 0 0 0 0.105882 0 0 0 0 0.101961 0 0 0 0.02 0"/>
<feBlend mode="normal" in2="effect1_innerShadow_26_9" result="effect2_innerShadow_26_9"/>
</filter>
<clipPath id="clip0_26_9">
<rect x="5" y="3" width="384" height="792" rx="12" fill="white"/>
</clipPath>
</defs>
</svg>
