<svg width="344" height="72" viewBox="0 0 344 72" fill="none" xmlns="http://www.w3.org/2000/svg">
<path d="M3.64 55H10.712V39.556H27.456V55H34.528V17.56H27.456V32.952H10.712V17.56H3.64V55ZM47.8855 42.936H67.5935C68.4515 32.744 63.3035 26.14 54.4635 26.14C46.1435 26.14 40.2675 32.12 40.2675 41.324C40.2675 49.748 46.2475 55.78 54.8795 55.78C60.2875 55.78 65.2275 52.816 67.3595 47.668L60.2875 45.64C59.2475 47.928 57.2195 49.176 54.4635 49.176C50.6415 49.176 48.4055 46.94 47.8855 42.936ZM54.7755 32.276C58.1815 32.276 59.9495 33.888 60.4435 37.684H48.0675C48.7955 34.122 50.9795 32.276 54.7755 32.276ZM95.3684 31.236C93.3924 27.492 89.3364 26.14 84.3964 26.14C77.6364 26.14 73.7884 29.364 72.3844 33.992L78.7804 36.02C79.6644 33.472 82.3164 32.588 84.3964 32.588C87.7244 32.588 89.2584 33.784 89.5444 36.41C84.2664 37.19 80.2364 37.788 77.5324 38.776C73.0084 40.44 71.3964 43.352 71.3964 47.252C71.3964 51.932 74.7244 55.78 80.7564 55.78C85.0724 55.78 87.8284 54.532 90.3244 51.568V55H96.5124V37.84C96.5124 35.292 96.4604 33.316 95.3684 31.236ZM88.7644 46.472C88.1924 47.668 86.1644 50.216 82.2644 50.216C79.8204 50.216 78.3124 49.072 78.3124 47.148C78.3124 45.744 79.1444 44.756 81.2244 43.924C82.8364 43.326 84.7604 42.936 89.4924 42.13C89.4664 43.482 89.3624 45.25 88.7644 46.472ZM121.369 17.56V27.856C119.627 26.764 117.495 26.14 115.025 26.14C106.965 26.14 101.713 32.38 101.713 40.96C101.713 49.384 106.913 55.78 114.661 55.78C117.755 55.78 120.277 54.896 122.253 53.388V55H128.493V17.56H121.369ZM115.805 49.488C111.229 49.488 109.201 45.692 109.201 40.96C109.201 36.28 111.333 32.432 116.065 32.432C120.485 32.432 122.253 35.864 122.253 40.96C122.253 46.056 120.537 49.488 115.805 49.488ZM158.819 55.78C167.243 55.78 173.067 49.696 173.067 40.96C173.067 32.276 167.295 26.14 158.819 26.14C150.499 26.14 144.623 32.172 144.623 40.96C144.623 49.644 150.343 55.78 158.819 55.78ZM158.819 49.176C154.399 49.176 152.111 46.004 152.111 40.96C152.111 36.072 154.191 32.744 158.819 32.744C163.291 32.744 165.579 35.968 165.579 40.96C165.579 45.796 163.343 49.176 158.819 49.176ZM191.473 22.5H194.697V16.78H191.213C189.185 16.78 185.597 16.468 182.997 19.38C180.995 21.59 181.125 24.788 181.125 26.92H176.705V32.38H181.125V55H188.197V32.38H194.697V26.92H188.197V25.36C188.197 23.8 189.237 22.5 191.473 22.5ZM223.397 55.78C231.041 55.78 238.425 51.932 238.425 43.872C238.425 36.332 231.925 34.46 228.077 33.42L221.577 31.652C219.185 31.028 216.585 30.092 216.585 27.648C216.585 24.996 219.705 23.332 223.033 23.436C226.413 23.54 229.637 25.464 230.469 29.104L238.113 27.804C236.293 20.784 230.885 16.936 223.137 16.832C215.441 16.78 209.149 20.472 209.149 28.012C209.149 35.136 214.713 36.956 217.625 37.788L227.349 40.648C230.261 41.532 230.989 42.884 230.989 44.392C230.989 47.512 227.349 49.176 223.865 49.176C219.705 49.176 216.117 46.784 215.077 42.468L207.693 43.56C208.837 51.152 215.077 55.78 223.397 55.78Z" fill="#1B1B1A"/>
<path d="M266.552 31.236C264.576 27.492 260.52 26.14 255.58 26.14C248.82 26.14 244.972 29.364 243.568 33.992L249.964 36.02C250.848 33.472 253.5 32.588 255.58 32.588C258.908 32.588 260.442 33.784 260.728 36.41C255.45 37.19 251.42 37.788 248.716 38.776C244.192 40.44 242.58 43.352 242.58 47.252C242.58 51.932 245.908 55.78 251.94 55.78C256.256 55.78 259.012 54.532 261.508 51.568V55H267.696V37.84C267.696 35.292 267.644 33.316 266.552 31.236ZM259.948 46.472C259.376 47.668 257.348 50.216 253.448 50.216C251.004 50.216 249.496 49.072 249.496 47.148C249.496 45.744 250.328 44.756 252.408 43.924C254.02 43.326 255.944 42.936 260.676 42.13C260.65 43.482 260.546 45.25 259.948 46.472Z" fill="#1B1B1A" fill-opacity="0.1"/>
<path d="M274.976 55H282.048V16.78H274.976V55Z" fill="#1B1B1A" fill-opacity="0.08"/>
<path d="M295.901 42.936H315.609C316.467 32.744 311.319 26.14 302.479 26.14C294.159 26.14 288.283 32.12 288.283 41.324C288.283 49.748 294.263 55.78 302.895 55.78C308.303 55.78 313.243 52.816 315.375 47.668L308.303 45.64C307.263 47.928 305.235 49.176 302.479 49.176C298.657 49.176 296.421 46.94 295.901 42.936ZM302.791 32.276C306.197 32.276 307.965 33.888 308.459 37.684H296.083C296.811 34.122 298.995 32.276 302.791 32.276Z" fill="#1B1B1A" fill-opacity="0.06"/>
<path d="M332.452 55.78C339.784 55.78 344.204 52.296 344.204 46.524C344.204 42.156 341.76 39.868 335.364 38.204C328.812 36.54 327.876 36.072 327.876 34.616C327.876 33.004 329.592 32.068 332.192 32.224C334.844 32.432 336.456 33.68 336.716 35.76L343.944 34.46C343.216 29.364 338.64 26.14 332.036 26.14C325.224 26.14 320.856 29.572 320.856 34.98C320.856 39.296 323.352 41.48 330.216 43.248C336.3 44.86 336.976 45.224 336.976 46.888C336.976 48.656 335.52 49.696 332.972 49.696C329.852 49.696 327.72 48.136 327.148 45.484L319.92 46.576C320.856 52.452 325.38 55.78 332.452 55.78Z" fill="#1B1B1A" fill-opacity="0.03"/>
<line x1="243" y1="8.74228e-08" x2="243" y2="72" stroke="#7348FF" stroke-width="4"/>
</svg>
