<svg width="311" height="272" viewBox="0 0 311 272" fill="none" xmlns="http://www.w3.org/2000/svg">
<g filter="url(#filter0_dd_26_188)">
<rect x="179" y="6" width="100" height="40" rx="12" fill="white" shape-rendering="crispEdges"/>
<path d="M192.773 34H202.898V31.9219H195.188V27.0234H202.281V24.9531H195.188V20.0781H202.805V18H192.773V34ZM208.178 26.875C208.178 24.9609 209.35 23.8672 210.975 23.8672C212.561 23.8672 213.521 24.9062 213.521 26.6484V34H215.857V26.3672C215.857 23.3984 214.225 21.8438 211.771 21.8438C209.967 21.8438 208.787 22.6797 208.232 23.9531H208.084V22H205.842V34H208.178V26.875ZM224.021 38.75C227.076 38.75 229.436 37.3516 229.436 34.2656V22H227.146V23.9453H226.975C226.561 23.2031 225.732 21.8438 223.498 21.8438C220.6 21.8438 218.467 24.1328 218.467 27.9531C218.467 31.7812 220.646 33.8203 223.482 33.8203C225.686 33.8203 226.537 32.5781 226.959 31.8125H227.107V34.1719C227.107 36.0547 225.818 36.8672 224.045 36.8672C222.1 36.8672 221.342 35.8906 220.928 35.2031L218.92 36.0313C219.553 37.5 221.154 38.75 224.021 38.75ZM223.998 31.8828C221.912 31.8828 220.826 30.2812 220.826 27.9219C220.826 25.6172 221.889 23.8281 223.998 23.8281C226.037 23.8281 227.131 25.4922 227.131 27.9219C227.131 30.3984 226.014 31.8828 223.998 31.8828ZM234.904 18H232.568V34H234.904V18ZM238.047 34H240.383V22H238.047V34ZM239.227 20.1484C240.031 20.1484 240.703 19.5234 240.703 18.7578C240.703 17.9922 240.031 17.3594 239.227 17.3594C238.414 17.3594 237.75 17.9922 237.75 18.7578C237.75 19.5234 238.414 20.1484 239.227 20.1484ZM252.518 24.9297C252.033 23.0625 250.572 21.8438 247.979 21.8438C245.268 21.8438 243.346 23.2734 243.346 25.3984C243.346 27.1016 244.377 28.2344 246.627 28.7344L248.658 29.1797C249.814 29.4375 250.354 29.9531 250.354 30.7031C250.354 31.6328 249.361 32.3594 247.83 32.3594C246.432 32.3594 245.533 31.7578 245.252 30.5781L242.994 30.9219C243.385 33.0469 245.15 34.2422 247.846 34.2422C250.744 34.2422 252.752 32.7031 252.752 30.5313C252.752 28.8359 251.674 27.7891 249.471 27.2812L247.564 26.8437C246.244 26.5312 245.674 26.0859 245.682 25.2734C245.674 24.3516 246.674 23.6953 248.002 23.6953C249.455 23.6953 250.127 24.5 250.4 25.3047L252.518 24.9297ZM257.656 26.875C257.656 24.9609 258.867 23.8672 260.531 23.8672C262.141 23.8672 263.102 24.8906 263.102 26.6484V34H265.438V26.3672C265.438 23.375 263.797 21.8438 261.328 21.8438C259.461 21.8438 258.336 22.6562 257.773 23.9531H257.625V18H255.32V34H257.656V26.875Z" fill="#33D1EA"/>
</g>
<g filter="url(#filter1_dd_26_188)">
<rect x="8" y="54" width="101" height="40" rx="12" fill="white" shape-rendering="crispEdges"/>
<path d="M35.0791 71.2031C34.5322 67.7813 31.8525 65.7812 28.4697 65.7812C24.3291 65.7812 21.2744 68.8828 21.2744 74C21.2744 79.1172 24.3135 82.2187 28.4697 82.2187C31.9854 82.2187 34.5557 80.0156 35.0791 76.8516L32.6416 76.8438C32.2275 78.8906 30.5088 80.0156 28.4854 80.0156C25.7432 80.0156 23.6729 77.9141 23.6729 74C23.6729 70.1172 25.7354 67.9844 28.4932 67.9844C30.5322 67.9844 32.2432 69.1328 32.6416 71.2031H35.0791ZM45.3818 77.0234C45.3896 79.0625 43.874 80.0312 42.5615 80.0312C41.1162 80.0312 40.1162 78.9844 40.1162 77.3516V70H37.7803V77.6328C37.7803 80.6094 39.4131 82.1563 41.7178 82.1563C43.5225 82.1563 44.749 81.2031 45.3037 79.9219H45.4287V82H47.7256V70H45.3818V77.0234ZM53.2002 66H50.8643V82H53.2002V66ZM61.9443 70H59.4834V67.125H57.1475V70H55.3896V71.875H57.1475V78.9609C57.1396 81.1406 58.8037 82.1953 60.6475 82.1563C61.3896 82.1484 61.8896 82.0078 62.1631 81.9062L61.7412 79.9766C61.585 80.0078 61.2959 80.0781 60.9209 80.0781C60.1631 80.0781 59.4834 79.8281 59.4834 78.4766V71.875H61.9443V70ZM72.1299 77.0234C72.1377 79.0625 70.6221 80.0312 69.3096 80.0312C67.8643 80.0312 66.8643 78.9844 66.8643 77.3516V70H64.5283V77.6328C64.5283 80.6094 66.1611 82.1563 68.4658 82.1563C70.2705 82.1563 71.4971 81.2031 72.0518 79.9219H72.1768V82H74.4736V70H72.1299V77.0234ZM77.6123 82H79.9482V74.6719C79.9482 73.1016 81.1592 71.9687 82.8154 71.9687C83.2998 71.9687 83.8467 72.0547 84.0342 72.1094V69.875C83.7998 69.8438 83.3389 69.8203 83.042 69.8203C81.6357 69.8203 80.4326 70.6172 79.9951 71.9062H79.8701V70H77.6123V82ZM90.7979 82.2422C93.415 82.2422 95.2666 80.9531 95.7979 79L93.5869 78.6016C93.165 79.7344 92.1494 80.3125 90.8213 80.3125C88.8213 80.3125 87.4775 79.0156 87.415 76.7031H95.9463V75.875C95.9463 71.5391 93.3525 69.8438 90.6338 69.8438C87.29 69.8438 85.0869 72.3906 85.0869 76.0781C85.0869 79.8047 87.2588 82.2422 90.7979 82.2422ZM87.4229 74.9531C87.5166 73.25 88.751 71.7734 90.6494 71.7734C92.4619 71.7734 93.6494 73.1172 93.6572 74.9531H87.4229Z" fill="#33D1EA"/>
</g>
<g filter="url(#filter2_dd_26_188)">
<rect x="195" y="102" width="108" height="40" rx="12" fill="white" shape-rendering="crispEdges"/>
<path d="M217.525 118.203H219.854C219.783 115.641 217.518 113.781 214.268 113.781C211.057 113.781 208.596 115.617 208.596 118.375C208.596 120.602 210.189 121.906 212.76 122.602L214.65 123.117C216.361 123.57 217.682 124.133 217.682 125.555C217.682 127.117 216.189 128.148 214.135 128.148C212.275 128.148 210.729 127.32 210.588 125.578H208.166C208.322 128.477 210.564 130.266 214.15 130.266C217.908 130.266 220.072 128.289 220.072 125.578C220.072 122.695 217.502 121.578 215.471 121.078L213.908 120.672C212.658 120.352 210.994 119.766 211.002 118.234C211.002 116.875 212.244 115.867 214.213 115.867C216.049 115.867 217.354 116.727 217.525 118.203ZM222.77 134.5H225.105V128.133H225.246C225.668 128.898 226.527 130.234 228.715 130.234C231.621 130.234 233.73 127.906 233.73 124.023C233.73 120.133 231.59 117.844 228.691 117.844C226.465 117.844 225.66 119.203 225.246 119.945H225.051V118H222.77V134.5ZM225.059 124C225.059 121.492 226.152 119.828 228.191 119.828C230.309 119.828 231.371 121.617 231.371 124C231.371 126.406 230.277 128.242 228.191 128.242C226.184 128.242 225.059 126.523 225.059 124ZM239.84 130.266C241.824 130.266 242.941 129.258 243.387 128.359H243.48V130H245.762V122.031C245.762 118.539 243.012 117.844 241.105 117.844C238.934 117.844 236.934 118.719 236.152 120.906L238.348 121.406C238.691 120.555 239.566 119.734 241.137 119.734C242.645 119.734 243.418 120.523 243.418 121.883V121.937C243.418 122.789 242.543 122.773 240.387 123.023C238.113 123.289 235.785 123.883 235.785 126.609C235.785 128.969 237.559 130.266 239.84 130.266ZM240.348 128.391C239.027 128.391 238.074 127.797 238.074 126.641C238.074 125.391 239.184 124.945 240.535 124.766C241.293 124.664 243.09 124.461 243.426 124.125V125.672C243.426 127.094 242.293 128.391 240.348 128.391ZM251.209 122.875C251.209 120.961 252.381 119.867 254.006 119.867C255.592 119.867 256.553 120.906 256.553 122.648V130H258.889V122.367C258.889 119.398 257.256 117.844 254.803 117.844C252.998 117.844 251.818 118.68 251.264 119.953H251.115V118H248.873V130H251.209V122.875ZM262.021 130H264.357V118H262.021V130ZM263.201 116.148C264.006 116.148 264.678 115.523 264.678 114.758C264.678 113.992 264.006 113.359 263.201 113.359C262.389 113.359 261.725 113.992 261.725 114.758C261.725 115.523 262.389 116.148 263.201 116.148ZM276.492 120.93C276.008 119.062 274.547 117.844 271.953 117.844C269.242 117.844 267.32 119.273 267.32 121.398C267.32 123.102 268.352 124.234 270.602 124.734L272.633 125.18C273.789 125.437 274.328 125.953 274.328 126.703C274.328 127.633 273.336 128.359 271.805 128.359C270.406 128.359 269.508 127.758 269.227 126.578L266.969 126.922C267.359 129.047 269.125 130.242 271.82 130.242C274.719 130.242 276.727 128.703 276.727 126.531C276.727 124.836 275.648 123.789 273.445 123.281L271.539 122.844C270.219 122.531 269.648 122.086 269.656 121.273C269.648 120.352 270.648 119.695 271.977 119.695C273.43 119.695 274.102 120.5 274.375 121.305L276.492 120.93ZM281.631 122.875C281.631 120.961 282.842 119.867 284.506 119.867C286.115 119.867 287.076 120.891 287.076 122.648V130H289.412V122.367C289.412 119.375 287.771 117.844 285.303 117.844C283.436 117.844 282.311 118.656 281.748 119.953H281.6V114H279.295V130H281.631V122.875Z" fill="#33D1EA"/>
</g>
<g filter="url(#filter3_dd_26_188)">
<rect x="8" y="6" width="163" height="40" rx="12" fill="white" shape-rendering="crispEdges"/>
<path d="M22.1963 18V34H24.4932V22.4141H24.6416L29.3604 33.9766H31.2666L35.9854 22.4219H36.1338V34H38.4307V18H35.501L30.4072 30.4375H30.2197L25.126 18H22.1963ZM45.2451 34.2656C47.2295 34.2656 48.3467 33.2578 48.792 32.3594H48.8857V34H51.167V26.0313C51.167 22.5391 48.417 21.8438 46.5107 21.8438C44.3389 21.8438 42.3389 22.7187 41.5576 24.9062L43.7529 25.4062C44.0967 24.5547 44.9717 23.7344 46.542 23.7344C48.0498 23.7344 48.8232 24.5234 48.8232 25.8828V25.9375C48.8232 26.7891 47.9482 26.7734 45.792 27.0234C43.5186 27.2891 41.1904 27.8828 41.1904 30.6094C41.1904 32.9688 42.9639 34.2656 45.2451 34.2656ZM45.7529 32.3906C44.4326 32.3906 43.4795 31.7969 43.4795 30.6406C43.4795 29.3906 44.5889 28.9453 45.9404 28.7656C46.6982 28.6641 48.4951 28.4609 48.8311 28.125V29.6719C48.8311 31.0937 47.6982 32.3906 45.7529 32.3906ZM56.6143 26.875C56.6143 24.9609 57.7861 23.8672 59.4111 23.8672C60.9971 23.8672 61.958 24.9062 61.958 26.6484V34H64.2939V26.3672C64.2939 23.3984 62.6611 21.8438 60.208 21.8438C58.4033 21.8438 57.2236 22.6797 56.6689 23.9531H56.5205V22H54.2783V34H56.6143V26.875ZM70.9189 34.2656C72.9033 34.2656 74.0205 33.2578 74.4658 32.3594H74.5596V34H76.8408V26.0313C76.8408 22.5391 74.0908 21.8438 72.1846 21.8438C70.0127 21.8438 68.0127 22.7187 67.2314 24.9062L69.4268 25.4062C69.7705 24.5547 70.6455 23.7344 72.2158 23.7344C73.7236 23.7344 74.4971 24.5234 74.4971 25.8828V25.9375C74.4971 26.7891 73.6221 26.7734 71.4658 27.0234C69.1924 27.2891 66.8643 27.8828 66.8643 30.6094C66.8643 32.9688 68.6377 34.2656 70.9189 34.2656ZM71.4268 32.3906C70.1064 32.3906 69.1533 31.7969 69.1533 30.6406C69.1533 29.3906 70.2627 28.9453 71.6143 28.7656C72.3721 28.6641 74.1689 28.4609 74.5049 28.125V29.6719C74.5049 31.0937 73.3721 32.3906 71.4268 32.3906ZM84.9834 38.75C88.0381 38.75 90.3975 37.3516 90.3975 34.2656V22H88.1084V23.9453H87.9365C87.5225 23.2031 86.6943 21.8438 84.46 21.8438C81.5615 21.8438 79.4287 24.1328 79.4287 27.9531C79.4287 31.7812 81.6084 33.8203 84.4443 33.8203C86.6475 33.8203 87.499 32.5781 87.9209 31.8125H88.0693V34.1719C88.0693 36.0547 86.7803 36.8672 85.0068 36.8672C83.0615 36.8672 82.3037 35.8906 81.8896 35.2031L79.8818 36.0313C80.5146 37.5 82.1162 38.75 84.9834 38.75ZM84.96 31.8828C82.874 31.8828 81.7881 30.2812 81.7881 27.9219C81.7881 25.6172 82.8506 23.8281 84.96 23.8281C86.999 23.8281 88.0928 25.4922 88.0928 27.9219C88.0928 30.3984 86.9756 31.8828 84.96 31.8828ZM98.7021 34.2422C101.319 34.2422 103.171 32.9531 103.702 31L101.491 30.6016C101.069 31.7344 100.054 32.3125 98.7256 32.3125C96.7256 32.3125 95.3818 31.0156 95.3193 28.7031H103.851V27.875C103.851 23.5391 101.257 21.8438 98.5381 21.8438C95.1943 21.8438 92.9912 24.3906 92.9912 28.0781C92.9912 31.8047 95.1631 34.2422 98.7021 34.2422ZM95.3271 26.9531C95.4209 25.25 96.6553 23.7734 98.5537 23.7734C100.366 23.7734 101.554 25.1172 101.562 26.9531H95.3271ZM106.442 34H108.778V26.6016C108.778 24.9844 109.911 23.8594 111.239 23.8594C112.536 23.8594 113.435 24.7188 113.435 26.0234V34H115.763V26.3516C115.763 24.9062 116.646 23.8594 118.169 23.8594C119.403 23.8594 120.419 24.5469 120.419 26.1719V34H122.755V25.9531C122.755 23.2109 121.224 21.8438 119.052 21.8438C117.325 21.8438 116.028 22.6719 115.45 23.9531H115.325C114.802 22.6406 113.7 21.8438 112.099 21.8438C110.513 21.8438 109.333 22.6328 108.833 23.9531H108.685V22H106.442V34ZM131.058 34.2422C133.675 34.2422 135.526 32.9531 136.058 31L133.847 30.6016C133.425 31.7344 132.409 32.3125 131.081 32.3125C129.081 32.3125 127.737 31.0156 127.675 28.7031H136.206V27.875C136.206 23.5391 133.612 21.8438 130.894 21.8438C127.55 21.8438 125.347 24.3906 125.347 28.0781C125.347 31.8047 127.519 34.2422 131.058 34.2422ZM127.683 26.9531C127.776 25.25 129.011 23.7734 130.909 23.7734C132.722 23.7734 133.909 25.1172 133.917 26.9531H127.683ZM141.134 26.875C141.134 24.9609 142.306 23.8672 143.931 23.8672C145.517 23.8672 146.478 24.9062 146.478 26.6484V34H148.813V26.3672C148.813 23.3984 147.181 21.8438 144.728 21.8438C142.923 21.8438 141.743 22.6797 141.188 23.9531H141.04V22H138.798V34H141.134V26.875ZM157.548 22H155.087V19.125H152.751V22H150.993V23.875H152.751V30.9609C152.743 33.1406 154.407 34.1953 156.251 34.1563C156.993 34.1484 157.493 34.0078 157.767 33.9062L157.345 31.9766C157.188 32.0078 156.899 32.0781 156.524 32.0781C155.767 32.0781 155.087 31.8281 155.087 30.4766V23.875H157.548V22Z" fill="#33D1EA"/>
</g>
<g filter="url(#filter4_dd_26_188)">
<rect x="117" y="54" width="105" height="40" rx="12" fill="white" shape-rendering="crispEdges"/>
<path d="M130.953 82H133.367V75.9453H136.648C136.703 75.9453 136.75 75.9453 136.805 75.9453L140.055 82H142.805L139.258 75.5234C141.219 74.7969 142.195 73.1641 142.195 71.0156C142.195 68.0703 140.367 66 136.656 66H130.953V82ZM133.367 73.8672V68.0703H136.398C138.781 68.0703 139.766 69.2031 139.766 71.0156C139.766 72.8203 138.781 73.8672 136.43 73.8672H133.367ZM149.967 82.2422C152.584 82.2422 154.436 80.9531 154.967 79L152.756 78.6016C152.334 79.7344 151.318 80.3125 149.99 80.3125C147.99 80.3125 146.646 79.0156 146.584 76.7031H155.115V75.875C155.115 71.5391 152.521 69.8438 149.803 69.8438C146.459 69.8438 144.256 72.3906 144.256 76.0781C144.256 79.8047 146.428 82.2422 149.967 82.2422ZM146.592 74.9531C146.686 73.25 147.92 71.7734 149.818 71.7734C151.631 71.7734 152.818 73.1172 152.826 74.9531H146.592ZM157.707 82H160.043V74.6016C160.043 72.9844 161.176 71.8594 162.504 71.8594C163.801 71.8594 164.699 72.7188 164.699 74.0234V82H167.027V74.3516C167.027 72.9062 167.91 71.8594 169.434 71.8594C170.668 71.8594 171.684 72.5469 171.684 74.1719V82H174.02V73.9531C174.02 71.2109 172.488 69.8438 170.316 69.8438C168.59 69.8438 167.293 70.6719 166.715 71.9531H166.59C166.066 70.6406 164.965 69.8438 163.363 69.8438C161.777 69.8438 160.598 70.6328 160.098 71.9531H159.949V70H157.707V82ZM182.205 82.2422C185.588 82.2422 187.799 79.7656 187.799 76.0547C187.799 72.3203 185.588 69.8438 182.205 69.8438C178.822 69.8438 176.611 72.3203 176.611 76.0547C176.611 79.7656 178.822 82.2422 182.205 82.2422ZM182.213 80.2812C180.002 80.2812 178.971 78.3516 178.971 76.0469C178.971 73.75 180.002 71.7969 182.213 71.7969C184.408 71.7969 185.439 73.75 185.439 76.0469C185.439 78.3516 184.408 80.2812 182.213 80.2812ZM196.008 70H193.547V67.125H191.211V70H189.453V71.875H191.211V78.9609C191.203 81.1406 192.867 82.1953 194.711 82.1563C195.453 82.1484 195.953 82.0078 196.227 81.9062L195.805 79.9766C195.648 80.0078 195.359 80.0781 194.984 80.0781C194.227 80.0781 193.547 79.8281 193.547 78.4766V71.875H196.008V70ZM203.635 82.2422C206.252 82.2422 208.104 80.9531 208.635 79L206.424 78.6016C206.002 79.7344 204.986 80.3125 203.658 80.3125C201.658 80.3125 200.314 79.0156 200.252 76.7031H208.783V75.875C208.783 71.5391 206.189 69.8438 203.471 69.8438C200.127 69.8438 197.924 72.3906 197.924 76.0781C197.924 79.8047 200.096 82.2422 203.635 82.2422ZM200.26 74.9531C200.354 73.25 201.588 71.7734 203.486 71.7734C205.299 71.7734 206.486 73.1172 206.494 74.9531H200.26Z" fill="#33D1EA"/>
</g>
<g filter="url(#filter5_dd_26_188)">
<rect x="230" y="54" width="63" height="40" rx="12" fill="white" shape-rendering="crispEdges"/>
<path d="M244.072 82H246.486V75.0234H253.283V72.9531H246.486V68.0781H253.994V66H244.072V82ZM263.625 77.0234C263.633 79.0625 262.117 80.0312 260.805 80.0312C259.359 80.0312 258.359 78.9844 258.359 77.3516V70H256.023V77.6328C256.023 80.6094 257.656 82.1563 259.961 82.1563C261.766 82.1563 262.992 81.2031 263.547 79.9219H263.672V82H265.969V70H263.625V77.0234ZM271.443 74.875C271.443 72.9609 272.615 71.8672 274.24 71.8672C275.826 71.8672 276.787 72.9062 276.787 74.6484V82H279.123V74.3672C279.123 71.3984 277.49 69.8438 275.037 69.8438C273.232 69.8438 272.053 70.6797 271.498 71.9531H271.35V70H269.107V82H271.443V74.875Z" fill="#33D1EA"/>
</g>
<g filter="url(#filter6_dd_26_188)">
<rect x="8" y="102" width="179" height="40" rx="12" fill="white" shape-rendering="crispEdges"/>
<path d="M35.1494 119.203C34.6025 115.781 31.9229 113.781 28.54 113.781C24.3994 113.781 21.3447 116.883 21.3447 122C21.3447 127.117 24.3838 130.219 28.54 130.219C32.0557 130.219 34.626 128.016 35.1494 124.852L32.7119 124.844C32.2979 126.891 30.5791 128.016 28.5557 128.016C25.8135 128.016 23.7432 125.914 23.7432 122C23.7432 118.117 25.8057 115.984 28.5635 115.984C30.6025 115.984 32.3135 117.133 32.7119 119.203H35.1494ZM42.9053 130.242C46.2881 130.242 48.499 127.766 48.499 124.055C48.499 120.32 46.2881 117.844 42.9053 117.844C39.5225 117.844 37.3115 120.32 37.3115 124.055C37.3115 127.766 39.5225 130.242 42.9053 130.242ZM42.9131 128.281C40.7021 128.281 39.6709 126.352 39.6709 124.047C39.6709 121.75 40.7021 119.797 42.9131 119.797C45.1084 119.797 46.1396 121.75 46.1396 124.047C46.1396 126.352 45.1084 128.281 42.9131 128.281ZM51.1064 130H53.4424V122.602C53.4424 120.984 54.5752 119.859 55.9033 119.859C57.2002 119.859 58.0986 120.719 58.0986 122.023V130H60.4268V122.352C60.4268 120.906 61.3096 119.859 62.833 119.859C64.0674 119.859 65.083 120.547 65.083 122.172V130H67.4189V121.953C67.4189 119.211 65.8877 117.844 63.7158 117.844C61.9893 117.844 60.6924 118.672 60.1143 119.953H59.9893C59.4658 118.641 58.3643 117.844 56.7627 117.844C55.1768 117.844 53.9971 118.633 53.4971 119.953H53.3486V118H51.1064V130ZM70.5498 130H72.8857V122.602C72.8857 120.984 74.0186 119.859 75.3467 119.859C76.6436 119.859 77.542 120.719 77.542 122.023V130H79.8701V122.352C79.8701 120.906 80.7529 119.859 82.2764 119.859C83.5107 119.859 84.5264 120.547 84.5264 122.172V130H86.8623V121.953C86.8623 119.211 85.3311 117.844 83.1592 117.844C81.4326 117.844 80.1357 118.672 79.5576 119.953H79.4326C78.9092 118.641 77.8076 117.844 76.2061 117.844C74.6201 117.844 73.4404 118.633 72.9404 119.953H72.792V118H70.5498V130ZM97.5947 125.023C97.6025 127.062 96.0869 128.031 94.7744 128.031C93.3291 128.031 92.3291 126.984 92.3291 125.352V118H89.9932V125.633C89.9932 128.609 91.626 130.156 93.9307 130.156C95.7354 130.156 96.9619 129.203 97.5166 127.922H97.6416V130H99.9385V118H97.5947V125.023ZM105.413 122.875C105.413 120.961 106.585 119.867 108.21 119.867C109.796 119.867 110.757 120.906 110.757 122.648V130H113.093V122.367C113.093 119.398 111.46 117.844 109.007 117.844C107.202 117.844 106.022 118.68 105.468 119.953H105.319V118H103.077V130H105.413V122.875ZM116.226 130H118.562V118H116.226V130ZM117.405 116.148C118.21 116.148 118.882 115.523 118.882 114.758C118.882 113.992 118.21 113.359 117.405 113.359C116.593 113.359 115.929 113.992 115.929 114.758C115.929 115.523 116.593 116.148 117.405 116.148ZM126.759 130.242C129.595 130.242 131.431 128.539 131.688 126.203H129.415C129.118 127.5 128.11 128.266 126.774 128.266C124.798 128.266 123.524 126.617 123.524 124C123.524 121.43 124.821 119.812 126.774 119.812C128.259 119.812 129.165 120.75 129.415 121.875H131.688C131.438 119.453 129.462 117.844 126.735 117.844C123.353 117.844 121.165 120.391 121.165 124.055C121.165 127.672 123.274 130.242 126.759 130.242ZM137.679 130.266C139.663 130.266 140.78 129.258 141.226 128.359H141.319V130H143.601V122.031C143.601 118.539 140.851 117.844 138.944 117.844C136.772 117.844 134.772 118.719 133.991 120.906L136.187 121.406C136.53 120.555 137.405 119.734 138.976 119.734C140.483 119.734 141.257 120.523 141.257 121.883V121.937C141.257 122.789 140.382 122.773 138.226 123.023C135.952 123.289 133.624 123.883 133.624 126.609C133.624 128.969 135.397 130.266 137.679 130.266ZM138.187 128.391C136.866 128.391 135.913 127.797 135.913 126.641C135.913 125.391 137.022 124.945 138.374 124.766C139.132 124.664 140.929 124.461 141.265 124.125V125.672C141.265 127.094 140.132 128.391 138.187 128.391ZM152.313 118H149.853V115.125H147.517V118H145.759V119.875H147.517V126.961C147.509 129.141 149.173 130.195 151.017 130.156C151.759 130.148 152.259 130.008 152.532 129.906L152.11 127.977C151.954 128.008 151.665 128.078 151.29 128.078C150.532 128.078 149.853 127.828 149.853 126.477V119.875H152.313V118ZM159.823 130.242C163.206 130.242 165.417 127.766 165.417 124.055C165.417 120.32 163.206 117.844 159.823 117.844C156.44 117.844 154.229 120.32 154.229 124.055C154.229 127.766 156.44 130.242 159.823 130.242ZM159.831 128.281C157.62 128.281 156.589 126.352 156.589 124.047C156.589 121.75 157.62 119.797 159.831 119.797C162.026 119.797 163.058 121.75 163.058 124.047C163.058 126.352 162.026 128.281 159.831 128.281ZM168.024 130H170.36V122.672C170.36 121.102 171.571 119.969 173.228 119.969C173.712 119.969 174.259 120.055 174.446 120.109V117.875C174.212 117.844 173.751 117.82 173.454 117.82C172.048 117.82 170.845 118.617 170.407 119.906H170.282V118H168.024V130Z" fill="#33D1EA"/>
</g>
<g filter="url(#filter7_dd_26_188)">
<rect x="8" y="150" width="97" height="40" rx="12" fill="white" shape-rendering="crispEdges"/>
<path d="M21.9922 178H24.4063V171.023H31.2031V168.953H24.4063V164.078H31.9141V162H21.9922V178ZM34.5449 178H36.8809V170.672C36.8809 169.102 38.0918 167.969 39.748 167.969C40.2324 167.969 40.7793 168.055 40.9668 168.109V165.875C40.7324 165.844 40.2715 165.82 39.9746 165.82C38.5684 165.82 37.3652 166.617 36.9277 167.906H36.8027V166H34.5449V178ZM47.7305 178.242C50.3477 178.242 52.1992 176.953 52.7305 175L50.5195 174.602C50.0977 175.734 49.082 176.312 47.7539 176.312C45.7539 176.312 44.4102 175.016 44.3477 172.703H52.8789V171.875C52.8789 167.539 50.2852 165.844 47.5664 165.844C44.2227 165.844 42.0195 168.391 42.0195 172.078C42.0195 175.805 44.1914 178.242 47.7305 178.242ZM44.3555 170.953C44.4492 169.25 45.6836 167.773 47.582 167.773C49.3945 167.773 50.582 169.117 50.5898 170.953H44.3555ZM57.8066 170.875C57.8066 168.961 58.9785 167.867 60.6035 167.867C62.1895 167.867 63.1504 168.906 63.1504 170.648V178H65.4863V170.367C65.4863 167.398 63.8535 165.844 61.4004 165.844C59.5957 165.844 58.416 166.68 57.8613 167.953H57.7129V166H55.4707V178H57.8066V170.875ZM73.6738 178.242C76.5098 178.242 78.3457 176.539 78.6035 174.203H76.3301C76.0332 175.5 75.0254 176.266 73.6895 176.266C71.7129 176.266 70.4395 174.617 70.4395 172C70.4395 169.43 71.7363 167.812 73.6895 167.812C75.1738 167.812 76.0801 168.75 76.3301 169.875H78.6035C78.3535 167.453 76.377 165.844 73.6504 165.844C70.2676 165.844 68.0801 168.391 68.0801 172.055C68.0801 175.672 70.1895 178.242 73.6738 178.242ZM83.4375 170.875C83.4375 168.961 84.6484 167.867 86.3125 167.867C87.9219 167.867 88.8828 168.891 88.8828 170.648V178H91.2188V170.367C91.2188 167.375 89.5781 165.844 87.1094 165.844C85.2422 165.844 84.1172 166.656 83.5547 167.953H83.4063V162H81.1016V178H83.4375V170.875Z" fill="#33D1EA"/>
</g>
<g filter="url(#filter8_dd_26_188)">
<rect x="8" y="222" width="138" height="40" rx="12" fill="#1B1B1A" shape-rendering="crispEdges"/>
<path d="M23.4336 250L24.9023 245.766H31.1523L32.6133 250H35.1758L29.418 234H26.6289L20.8711 250H23.4336ZM25.6055 243.734L27.9648 236.906H28.0898L30.4492 243.734H25.6055ZM41.5977 250.234C43.7852 250.234 44.6445 248.898 45.0664 248.133H45.2617V250H47.543V234H45.207V239.945H45.0664C44.6445 239.203 43.8477 237.844 41.6133 237.844C38.7148 237.844 36.582 240.133 36.582 244.023C36.582 247.906 38.6836 250.234 41.5977 250.234ZM42.1133 248.242C40.0273 248.242 38.9414 246.406 38.9414 244C38.9414 241.617 40.0039 239.828 42.1133 239.828C44.1523 239.828 45.2461 241.492 45.2461 244C45.2461 246.523 44.1289 248.242 42.1133 248.242ZM55.3691 250.234C57.5566 250.234 58.416 248.898 58.8379 248.133H59.0332V250H61.3145V234H58.9785V239.945H58.8379C58.416 239.203 57.6191 237.844 55.3848 237.844C52.4863 237.844 50.3535 240.133 50.3535 244.023C50.3535 247.906 52.4551 250.234 55.3691 250.234ZM55.8848 248.242C53.7988 248.242 52.7129 246.406 52.7129 244C52.7129 241.617 53.7754 239.828 55.8848 239.828C57.9238 239.828 59.0176 241.492 59.0176 244C59.0176 246.523 57.9004 248.242 55.8848 248.242ZM76.0723 238H73.6113V235.125H71.2754V238H69.5176V239.875H71.2754V246.961C71.2676 249.141 72.9316 250.195 74.7754 250.156C75.5176 250.148 76.0176 250.008 76.291 249.906L75.8691 247.977C75.7129 248.008 75.4238 248.078 75.0488 248.078C74.291 248.078 73.6113 247.828 73.6113 246.477V239.875H76.0723V238ZM82.1484 250.266C84.1328 250.266 85.25 249.258 85.6953 248.359H85.7891V250H88.0703V242.031C88.0703 238.539 85.3203 237.844 83.4141 237.844C81.2422 237.844 79.2422 238.719 78.4609 240.906L80.6563 241.406C81 240.555 81.875 239.734 83.4453 239.734C84.9531 239.734 85.7266 240.523 85.7266 241.883V241.937C85.7266 242.789 84.8516 242.773 82.6953 243.023C80.4219 243.289 78.0938 243.883 78.0938 246.609C78.0938 248.969 79.8672 250.266 82.1484 250.266ZM82.6563 248.391C81.3359 248.391 80.3828 247.797 80.3828 246.641C80.3828 245.391 81.4922 244.945 82.8438 244.766C83.6016 244.664 85.3984 244.461 85.7344 244.125V245.672C85.7344 247.094 84.6016 248.391 82.6563 248.391ZM96.2129 254.75C99.2676 254.75 101.627 253.352 101.627 250.266V238H99.3379V239.945H99.166C98.752 239.203 97.9238 237.844 95.6895 237.844C92.791 237.844 90.6582 240.133 90.6582 243.953C90.6582 247.781 92.8379 249.82 95.6738 249.82C97.877 249.82 98.7285 248.578 99.1504 247.812H99.2988V250.172C99.2988 252.055 98.0098 252.867 96.2363 252.867C94.291 252.867 93.5332 251.891 93.1191 251.203L91.1113 252.031C91.7441 253.5 93.3457 254.75 96.2129 254.75ZM96.1895 247.883C94.1035 247.883 93.0176 246.281 93.0176 243.922C93.0176 241.617 94.0801 239.828 96.1895 239.828C98.2285 239.828 99.3223 241.492 99.3223 243.922C99.3223 246.398 98.2051 247.883 96.1895 247.883ZM113.752 240.93C113.268 239.062 111.807 237.844 109.213 237.844C106.502 237.844 104.58 239.273 104.58 241.398C104.58 243.102 105.611 244.234 107.861 244.734L109.893 245.18C111.049 245.437 111.588 245.953 111.588 246.703C111.588 247.633 110.596 248.359 109.064 248.359C107.666 248.359 106.768 247.758 106.486 246.578L104.229 246.922C104.619 249.047 106.385 250.242 109.08 250.242C111.979 250.242 113.986 248.703 113.986 246.531C113.986 244.836 112.908 243.789 110.705 243.281L108.799 242.844C107.479 242.531 106.908 242.086 106.916 241.273C106.908 240.352 107.908 239.695 109.236 239.695C110.689 239.695 111.361 240.5 111.635 241.305L113.752 240.93ZM118.094 250.148C118.945 250.148 119.656 249.453 119.656 248.586C119.656 247.734 118.945 247.031 118.094 247.031C117.234 247.031 116.531 247.734 116.531 248.586C116.531 249.453 117.234 250.148 118.094 250.148ZM124.324 250.148C125.176 250.148 125.887 249.453 125.887 248.586C125.887 247.734 125.176 247.031 124.324 247.031C123.465 247.031 122.762 247.734 122.762 248.586C122.762 249.453 123.465 250.148 124.324 250.148ZM130.555 250.148C131.406 250.148 132.117 249.453 132.117 248.586C132.117 247.734 131.406 247.031 130.555 247.031C129.695 247.031 128.992 247.734 128.992 248.586C128.992 249.453 129.695 250.148 130.555 250.148Z" fill="white"/>
</g>
<g filter="url(#filter9_dd_26_188)">
<rect x="113" y="150" width="120" height="40" rx="12" fill="white" shape-rendering="crispEdges"/>
<path d="M126.837 178H129.251V171.945H132.532C132.587 171.945 132.634 171.945 132.688 171.945L135.938 178H138.688L135.142 171.523C137.103 170.797 138.079 169.164 138.079 167.016C138.079 164.07 136.251 162 132.54 162H126.837V178ZM129.251 169.867V164.07H132.282C134.665 164.07 135.649 165.203 135.649 167.016C135.649 168.82 134.665 169.867 132.313 169.867H129.251ZM145.851 178.242C148.468 178.242 150.319 176.953 150.851 175L148.64 174.602C148.218 175.734 147.202 176.312 145.874 176.312C143.874 176.312 142.53 175.016 142.468 172.703H150.999V171.875C150.999 167.539 148.405 165.844 145.687 165.844C142.343 165.844 140.14 168.391 140.14 172.078C140.14 175.805 142.312 178.242 145.851 178.242ZM142.476 170.953C142.569 169.25 143.804 167.773 145.702 167.773C147.515 167.773 148.702 169.117 148.71 170.953H142.476ZM158.646 178.242C161.481 178.242 163.317 176.539 163.575 174.203H161.302C161.005 175.5 159.997 176.266 158.661 176.266C156.685 176.266 155.411 174.617 155.411 172C155.411 169.43 156.708 167.812 158.661 167.812C160.146 167.812 161.052 168.75 161.302 169.875H163.575C163.325 167.453 161.349 165.844 158.622 165.844C155.239 165.844 153.052 168.391 153.052 172.055C153.052 175.672 155.161 178.242 158.646 178.242ZM166.073 178H168.409V170.672C168.409 169.102 169.62 167.969 171.276 167.969C171.761 167.969 172.308 168.055 172.495 168.109V165.875C172.261 165.844 171.8 165.82 171.503 165.82C170.097 165.82 168.894 166.617 168.456 167.906H168.331V166H166.073V178ZM182.118 173.023C182.126 175.062 180.61 176.031 179.298 176.031C177.853 176.031 176.853 174.984 176.853 173.352V166H174.517V173.633C174.517 176.609 176.149 178.156 178.454 178.156C180.259 178.156 181.485 177.203 182.04 175.922H182.165V178H184.462V166H182.118V173.023ZM187.601 178H189.937V166H187.601V178ZM188.78 164.148C189.585 164.148 190.257 163.523 190.257 162.758C190.257 161.992 189.585 161.359 188.78 161.359C187.968 161.359 187.304 161.992 187.304 162.758C187.304 163.523 187.968 164.148 188.78 164.148ZM198.681 166H196.22V163.125H193.884V166H192.126V167.875H193.884V174.961C193.876 177.141 195.54 178.195 197.384 178.156C198.126 178.148 198.626 178.008 198.899 177.906L198.478 175.977C198.321 176.008 198.032 176.078 197.657 176.078C196.899 176.078 196.22 175.828 196.22 174.477V167.875H198.681V166ZM206.308 178.242C208.925 178.242 210.776 176.953 211.308 175L209.097 174.602C208.675 175.734 207.659 176.312 206.331 176.312C204.331 176.312 202.987 175.016 202.925 172.703H211.456V171.875C211.456 167.539 208.862 165.844 206.144 165.844C202.8 165.844 200.597 168.391 200.597 172.078C200.597 175.805 202.769 178.242 206.308 178.242ZM202.933 170.953C203.026 169.25 204.261 167.773 206.159 167.773C207.972 167.773 209.159 169.117 209.167 170.953H202.933ZM214.048 178H216.384V170.672C216.384 169.102 217.595 167.969 219.251 167.969C219.735 167.969 220.282 168.055 220.47 168.109V165.875C220.235 165.844 219.774 165.82 219.478 165.82C218.071 165.82 216.868 166.617 216.431 167.906H216.306V166H214.048V178Z" fill="#33D1EA"/>
</g>
<defs>
<filter id="filter0_dd_26_188" x="171" y="0" width="116" height="56" filterUnits="userSpaceOnUse" color-interpolation-filters="sRGB">
<feFlood flood-opacity="0" result="BackgroundImageFix"/>
<feColorMatrix in="SourceAlpha" type="matrix" values="0 0 0 0 0 0 0 0 0 0 0 0 0 0 0 0 0 0 127 0" result="hardAlpha"/>
<feOffset dy="2"/>
<feGaussianBlur stdDeviation="4"/>
<feComposite in2="hardAlpha" operator="out"/>
<feColorMatrix type="matrix" values="0 0 0 0 0.105882 0 0 0 0 0.105882 0 0 0 0 0.101961 0 0 0 0.04 0"/>
<feBlend mode="normal" in2="BackgroundImageFix" result="effect1_dropShadow_26_188"/>
<feColorMatrix in="SourceAlpha" type="matrix" values="0 0 0 0 0 0 0 0 0 0 0 0 0 0 0 0 0 0 127 0" result="hardAlpha"/>
<feOffset dy="2"/>
<feGaussianBlur stdDeviation="4"/>
<feComposite in2="hardAlpha" operator="out"/>
<feColorMatrix type="matrix" values="0 0 0 0 0.105882 0 0 0 0 0.105882 0 0 0 0 0.101961 0 0 0 0.02 0"/>
<feBlend mode="normal" in2="effect1_dropShadow_26_188" result="effect2_dropShadow_26_188"/>
<feBlend mode="normal" in="SourceGraphic" in2="effect2_dropShadow_26_188" result="shape"/>
</filter>
<filter id="filter1_dd_26_188" x="0" y="48" width="117" height="56" filterUnits="userSpaceOnUse" color-interpolation-filters="sRGB">
<feFlood flood-opacity="0" result="BackgroundImageFix"/>
<feColorMatrix in="SourceAlpha" type="matrix" values="0 0 0 0 0 0 0 0 0 0 0 0 0 0 0 0 0 0 127 0" result="hardAlpha"/>
<feOffset dy="2"/>
<feGaussianBlur stdDeviation="4"/>
<feComposite in2="hardAlpha" operator="out"/>
<feColorMatrix type="matrix" values="0 0 0 0 0.105882 0 0 0 0 0.105882 0 0 0 0 0.101961 0 0 0 0.04 0"/>
<feBlend mode="normal" in2="BackgroundImageFix" result="effect1_dropShadow_26_188"/>
<feColorMatrix in="SourceAlpha" type="matrix" values="0 0 0 0 0 0 0 0 0 0 0 0 0 0 0 0 0 0 127 0" result="hardAlpha"/>
<feOffset dy="2"/>
<feGaussianBlur stdDeviation="4"/>
<feComposite in2="hardAlpha" operator="out"/>
<feColorMatrix type="matrix" values="0 0 0 0 0.105882 0 0 0 0 0.105882 0 0 0 0 0.101961 0 0 0 0.02 0"/>
<feBlend mode="normal" in2="effect1_dropShadow_26_188" result="effect2_dropShadow_26_188"/>
<feBlend mode="normal" in="SourceGraphic" in2="effect2_dropShadow_26_188" result="shape"/>
</filter>
<filter id="filter2_dd_26_188" x="187" y="96" width="124" height="56" filterUnits="userSpaceOnUse" color-interpolation-filters="sRGB">
<feFlood flood-opacity="0" result="BackgroundImageFix"/>
<feColorMatrix in="SourceAlpha" type="matrix" values="0 0 0 0 0 0 0 0 0 0 0 0 0 0 0 0 0 0 127 0" result="hardAlpha"/>
<feOffset dy="2"/>
<feGaussianBlur stdDeviation="4"/>
<feComposite in2="hardAlpha" operator="out"/>
<feColorMatrix type="matrix" values="0 0 0 0 0.105882 0 0 0 0 0.105882 0 0 0 0 0.101961 0 0 0 0.04 0"/>
<feBlend mode="normal" in2="BackgroundImageFix" result="effect1_dropShadow_26_188"/>
<feColorMatrix in="SourceAlpha" type="matrix" values="0 0 0 0 0 0 0 0 0 0 0 0 0 0 0 0 0 0 127 0" result="hardAlpha"/>
<feOffset dy="2"/>
<feGaussianBlur stdDeviation="4"/>
<feComposite in2="hardAlpha" operator="out"/>
<feColorMatrix type="matrix" values="0 0 0 0 0.105882 0 0 0 0 0.105882 0 0 0 0 0.101961 0 0 0 0.02 0"/>
<feBlend mode="normal" in2="effect1_dropShadow_26_188" result="effect2_dropShadow_26_188"/>
<feBlend mode="normal" in="SourceGraphic" in2="effect2_dropShadow_26_188" result="shape"/>
</filter>
<filter id="filter3_dd_26_188" x="0" y="0" width="179" height="56" filterUnits="userSpaceOnUse" color-interpolation-filters="sRGB">
<feFlood flood-opacity="0" result="BackgroundImageFix"/>
<feColorMatrix in="SourceAlpha" type="matrix" values="0 0 0 0 0 0 0 0 0 0 0 0 0 0 0 0 0 0 127 0" result="hardAlpha"/>
<feOffset dy="2"/>
<feGaussianBlur stdDeviation="4"/>
<feComposite in2="hardAlpha" operator="out"/>
<feColorMatrix type="matrix" values="0 0 0 0 0.105882 0 0 0 0 0.105882 0 0 0 0 0.101961 0 0 0 0.04 0"/>
<feBlend mode="normal" in2="BackgroundImageFix" result="effect1_dropShadow_26_188"/>
<feColorMatrix in="SourceAlpha" type="matrix" values="0 0 0 0 0 0 0 0 0 0 0 0 0 0 0 0 0 0 127 0" result="hardAlpha"/>
<feOffset dy="2"/>
<feGaussianBlur stdDeviation="4"/>
<feComposite in2="hardAlpha" operator="out"/>
<feColorMatrix type="matrix" values="0 0 0 0 0.105882 0 0 0 0 0.105882 0 0 0 0 0.101961 0 0 0 0.02 0"/>
<feBlend mode="normal" in2="effect1_dropShadow_26_188" result="effect2_dropShadow_26_188"/>
<feBlend mode="normal" in="SourceGraphic" in2="effect2_dropShadow_26_188" result="shape"/>
</filter>
<filter id="filter4_dd_26_188" x="109" y="48" width="121" height="56" filterUnits="userSpaceOnUse" color-interpolation-filters="sRGB">
<feFlood flood-opacity="0" result="BackgroundImageFix"/>
<feColorMatrix in="SourceAlpha" type="matrix" values="0 0 0 0 0 0 0 0 0 0 0 0 0 0 0 0 0 0 127 0" result="hardAlpha"/>
<feOffset dy="2"/>
<feGaussianBlur stdDeviation="4"/>
<feComposite in2="hardAlpha" operator="out"/>
<feColorMatrix type="matrix" values="0 0 0 0 0.105882 0 0 0 0 0.105882 0 0 0 0 0.101961 0 0 0 0.04 0"/>
<feBlend mode="normal" in2="BackgroundImageFix" result="effect1_dropShadow_26_188"/>
<feColorMatrix in="SourceAlpha" type="matrix" values="0 0 0 0 0 0 0 0 0 0 0 0 0 0 0 0 0 0 127 0" result="hardAlpha"/>
<feOffset dy="2"/>
<feGaussianBlur stdDeviation="4"/>
<feComposite in2="hardAlpha" operator="out"/>
<feColorMatrix type="matrix" values="0 0 0 0 0.105882 0 0 0 0 0.105882 0 0 0 0 0.101961 0 0 0 0.02 0"/>
<feBlend mode="normal" in2="effect1_dropShadow_26_188" result="effect2_dropShadow_26_188"/>
<feBlend mode="normal" in="SourceGraphic" in2="effect2_dropShadow_26_188" result="shape"/>
</filter>
<filter id="filter5_dd_26_188" x="222" y="48" width="79" height="56" filterUnits="userSpaceOnUse" color-interpolation-filters="sRGB">
<feFlood flood-opacity="0" result="BackgroundImageFix"/>
<feColorMatrix in="SourceAlpha" type="matrix" values="0 0 0 0 0 0 0 0 0 0 0 0 0 0 0 0 0 0 127 0" result="hardAlpha"/>
<feOffset dy="2"/>
<feGaussianBlur stdDeviation="4"/>
<feComposite in2="hardAlpha" operator="out"/>
<feColorMatrix type="matrix" values="0 0 0 0 0.105882 0 0 0 0 0.105882 0 0 0 0 0.101961 0 0 0 0.04 0"/>
<feBlend mode="normal" in2="BackgroundImageFix" result="effect1_dropShadow_26_188"/>
<feColorMatrix in="SourceAlpha" type="matrix" values="0 0 0 0 0 0 0 0 0 0 0 0 0 0 0 0 0 0 127 0" result="hardAlpha"/>
<feOffset dy="2"/>
<feGaussianBlur stdDeviation="4"/>
<feComposite in2="hardAlpha" operator="out"/>
<feColorMatrix type="matrix" values="0 0 0 0 0.105882 0 0 0 0 0.105882 0 0 0 0 0.101961 0 0 0 0.02 0"/>
<feBlend mode="normal" in2="effect1_dropShadow_26_188" result="effect2_dropShadow_26_188"/>
<feBlend mode="normal" in="SourceGraphic" in2="effect2_dropShadow_26_188" result="shape"/>
</filter>
<filter id="filter6_dd_26_188" x="0" y="96" width="195" height="56" filterUnits="userSpaceOnUse" color-interpolation-filters="sRGB">
<feFlood flood-opacity="0" result="BackgroundImageFix"/>
<feColorMatrix in="SourceAlpha" type="matrix" values="0 0 0 0 0 0 0 0 0 0 0 0 0 0 0 0 0 0 127 0" result="hardAlpha"/>
<feOffset dy="2"/>
<feGaussianBlur stdDeviation="4"/>
<feComposite in2="hardAlpha" operator="out"/>
<feColorMatrix type="matrix" values="0 0 0 0 0.105882 0 0 0 0 0.105882 0 0 0 0 0.101961 0 0 0 0.04 0"/>
<feBlend mode="normal" in2="BackgroundImageFix" result="effect1_dropShadow_26_188"/>
<feColorMatrix in="SourceAlpha" type="matrix" values="0 0 0 0 0 0 0 0 0 0 0 0 0 0 0 0 0 0 127 0" result="hardAlpha"/>
<feOffset dy="2"/>
<feGaussianBlur stdDeviation="4"/>
<feComposite in2="hardAlpha" operator="out"/>
<feColorMatrix type="matrix" values="0 0 0 0 0.105882 0 0 0 0 0.105882 0 0 0 0 0.101961 0 0 0 0.02 0"/>
<feBlend mode="normal" in2="effect1_dropShadow_26_188" result="effect2_dropShadow_26_188"/>
<feBlend mode="normal" in="SourceGraphic" in2="effect2_dropShadow_26_188" result="shape"/>
</filter>
<filter id="filter7_dd_26_188" x="0" y="144" width="113" height="56" filterUnits="userSpaceOnUse" color-interpolation-filters="sRGB">
<feFlood flood-opacity="0" result="BackgroundImageFix"/>
<feColorMatrix in="SourceAlpha" type="matrix" values="0 0 0 0 0 0 0 0 0 0 0 0 0 0 0 0 0 0 127 0" result="hardAlpha"/>
<feOffset dy="2"/>
<feGaussianBlur stdDeviation="4"/>
<feComposite in2="hardAlpha" operator="out"/>
<feColorMatrix type="matrix" values="0 0 0 0 0.105882 0 0 0 0 0.105882 0 0 0 0 0.101961 0 0 0 0.04 0"/>
<feBlend mode="normal" in2="BackgroundImageFix" result="effect1_dropShadow_26_188"/>
<feColorMatrix in="SourceAlpha" type="matrix" values="0 0 0 0 0 0 0 0 0 0 0 0 0 0 0 0 0 0 127 0" result="hardAlpha"/>
<feOffset dy="2"/>
<feGaussianBlur stdDeviation="4"/>
<feComposite in2="hardAlpha" operator="out"/>
<feColorMatrix type="matrix" values="0 0 0 0 0.105882 0 0 0 0 0.105882 0 0 0 0 0.101961 0 0 0 0.02 0"/>
<feBlend mode="normal" in2="effect1_dropShadow_26_188" result="effect2_dropShadow_26_188"/>
<feBlend mode="normal" in="SourceGraphic" in2="effect2_dropShadow_26_188" result="shape"/>
</filter>
<filter id="filter8_dd_26_188" x="0" y="216" width="154" height="56" filterUnits="userSpaceOnUse" color-interpolation-filters="sRGB">
<feFlood flood-opacity="0" result="BackgroundImageFix"/>
<feColorMatrix in="SourceAlpha" type="matrix" values="0 0 0 0 0 0 0 0 0 0 0 0 0 0 0 0 0 0 127 0" result="hardAlpha"/>
<feOffset dy="2"/>
<feGaussianBlur stdDeviation="4"/>
<feComposite in2="hardAlpha" operator="out"/>
<feColorMatrix type="matrix" values="0 0 0 0 0.105882 0 0 0 0 0.105882 0 0 0 0 0.101961 0 0 0 0.04 0"/>
<feBlend mode="normal" in2="BackgroundImageFix" result="effect1_dropShadow_26_188"/>
<feColorMatrix in="SourceAlpha" type="matrix" values="0 0 0 0 0 0 0 0 0 0 0 0 0 0 0 0 0 0 127 0" result="hardAlpha"/>
<feOffset dy="2"/>
<feGaussianBlur stdDeviation="4"/>
<feComposite in2="hardAlpha" operator="out"/>
<feColorMatrix type="matrix" values="0 0 0 0 0.105882 0 0 0 0 0.105882 0 0 0 0 0.101961 0 0 0 0.02 0"/>
<feBlend mode="normal" in2="effect1_dropShadow_26_188" result="effect2_dropShadow_26_188"/>
<feBlend mode="normal" in="SourceGraphic" in2="effect2_dropShadow_26_188" result="shape"/>
</filter>
<filter id="filter9_dd_26_188" x="105" y="144" width="136" height="56" filterUnits="userSpaceOnUse" color-interpolation-filters="sRGB">
<feFlood flood-opacity="0" result="BackgroundImageFix"/>
<feColorMatrix in="SourceAlpha" type="matrix" values="0 0 0 0 0 0 0 0 0 0 0 0 0 0 0 0 0 0 127 0" result="hardAlpha"/>
<feOffset dy="2"/>
<feGaussianBlur stdDeviation="4"/>
<feComposite in2="hardAlpha" operator="out"/>
<feColorMatrix type="matrix" values="0 0 0 0 0.105882 0 0 0 0 0.105882 0 0 0 0 0.101961 0 0 0 0.04 0"/>
<feBlend mode="normal" in2="BackgroundImageFix" result="effect1_dropShadow_26_188"/>
<feColorMatrix in="SourceAlpha" type="matrix" values="0 0 0 0 0 0 0 0 0 0 0 0 0 0 0 0 0 0 127 0" result="hardAlpha"/>
<feOffset dy="2"/>
<feGaussianBlur stdDeviation="4"/>
<feComposite in2="hardAlpha" operator="out"/>
<feColorMatrix type="matrix" values="0 0 0 0 0.105882 0 0 0 0 0.105882 0 0 0 0 0.101961 0 0 0 0.02 0"/>
<feBlend mode="normal" in2="effect1_dropShadow_26_188" result="effect2_dropShadow_26_188"/>
<feBlend mode="normal" in="SourceGraphic" in2="effect2_dropShadow_26_188" result="shape"/>
</filter>
</defs>
</svg>
