<svg width="304" height="176" viewBox="0 0 304 176" fill="none" xmlns="http://www.w3.org/2000/svg">
<rect width="304" height="176" rx="12" fill="#F2F1F0"/>
<path opacity="0.6" d="M26.8011 27.3636H27.9943C27.9396 25.8274 26.5227 24.679 24.554 24.679C22.6051 24.679 21.0739 25.8125 21.0739 27.5227C21.0739 28.8949 22.0682 29.7102 23.6591 30.1676L24.9119 30.5256C25.9858 30.8239 26.9403 31.2017 26.9403 32.2159C26.9403 33.3295 25.8665 34.0653 24.4545 34.0653C23.2415 34.0653 22.1676 33.5284 22.0682 32.375H20.7955C20.9148 34.0455 22.267 35.179 24.4545 35.179C26.8011 35.179 28.1335 33.8864 28.1335 32.2358C28.1335 30.3267 26.3239 29.7102 25.2699 29.4318L24.2358 29.1534C23.4801 28.9545 22.267 28.5568 22.267 27.4631C22.267 26.4886 23.1619 25.7727 24.5142 25.7727C25.7472 25.7727 26.6818 26.3594 26.8011 27.3636ZM33.3226 27.3636H31.6919V25.5341H30.5186V27.3636H29.3652V28.358H30.5186V33.1307C30.5186 34.4631 31.5925 35.0994 32.5868 35.0994C33.0243 35.0994 33.3027 35.0199 33.4618 34.9602L33.2232 33.9062C33.1238 33.9261 32.9647 33.9659 32.7061 33.9659C32.1891 33.9659 31.6919 33.8068 31.6919 32.8125V28.358H33.3226V27.3636ZM35.0875 35H36.2608V30.1676C36.2608 29.1335 37.0762 28.3778 38.1898 28.3778C38.503 28.3778 38.8262 28.4375 38.9057 28.4574V27.2642C38.7715 27.2543 38.4632 27.2443 38.2892 27.2443C37.3745 27.2443 36.579 27.7614 36.3006 28.517H36.2211V27.3636H35.0875V35ZM43.1664 35.1591C45.2346 35.1591 46.6266 33.5881 46.6266 31.2216C46.6266 28.8352 45.2346 27.2642 43.1664 27.2642C41.0982 27.2642 39.7061 28.8352 39.7061 31.2216C39.7061 33.5881 41.0982 35.1591 43.1664 35.1591ZM43.1664 34.1051C41.5953 34.1051 40.8794 32.7528 40.8794 31.2216C40.8794 29.6903 41.5953 28.3182 43.1664 28.3182C44.7374 28.3182 45.4533 29.6903 45.4533 31.2216C45.4533 32.7528 44.7374 34.1051 43.1664 34.1051ZM49.5909 30.4062C49.5909 29.0739 50.4162 28.3182 51.5398 28.3182C52.6286 28.3182 53.2898 29.0291 53.2898 30.2273V35H54.4631V30.1477C54.4631 28.1989 53.424 27.2642 51.8778 27.2642C50.7244 27.2642 50.0085 27.7812 49.6506 28.5568H49.5511V27.3636H48.4176V35H49.5909V30.4062ZM59.6895 38.0227C61.519 38.0227 62.9906 37.1875 62.9906 35.2188V27.3636H61.8571V28.5767H61.7377C61.4792 28.179 61.002 27.2642 59.5105 27.2642C57.5815 27.2642 56.2491 28.7955 56.2491 31.142C56.2491 33.5284 57.6412 34.8807 59.4906 34.8807C60.9821 34.8807 61.4593 34.0057 61.7179 33.5881H61.8173V35.1392C61.8173 36.4119 60.9224 36.9886 59.6895 36.9886C58.3024 36.9886 57.8152 36.2578 57.502 35.8352L56.5673 36.4915C57.0446 37.2919 57.9842 38.0227 59.6895 38.0227ZM59.6497 33.8267C58.1781 33.8267 57.4224 32.7131 57.4224 31.1222C57.4224 29.571 58.1582 28.3182 59.6497 28.3182C61.0815 28.3182 61.8372 29.4716 61.8372 31.1222C61.8372 32.8125 61.0616 33.8267 59.6497 33.8267ZM68.3599 24.8182L72.0389 30.804V35H73.2718V30.804L76.9508 24.8182H75.5389L72.715 29.571H72.5957L69.7718 24.8182H68.3599ZM80.508 35.1591C82.0591 35.1591 83.1926 34.3835 83.5506 33.2301L82.4171 32.9119C82.1188 33.7074 81.4277 34.1051 80.508 34.1051C79.1309 34.1051 78.1813 33.2152 78.1266 31.5795H83.6699V31.0824C83.6699 28.2386 81.9796 27.2642 80.3887 27.2642C78.3205 27.2642 76.9483 28.8949 76.9483 31.2415C76.9483 33.5881 78.3006 35.1591 80.508 35.1591ZM78.1266 30.5653C78.2061 29.3771 79.0463 28.3182 80.3887 28.3182C81.6614 28.3182 82.4767 29.2727 82.4767 30.5653H78.1266ZM90.8638 29.0739C90.4959 27.9901 89.6706 27.2642 88.1593 27.2642C86.5485 27.2642 85.3553 28.179 85.3553 29.4716C85.3553 30.5256 85.9817 31.2315 87.3837 31.5597L88.6564 31.858C89.427 32.0369 89.79 32.4048 89.79 32.9318C89.79 33.5881 89.0939 34.125 88.0002 34.125C87.0407 34.125 86.4391 33.7124 86.2303 32.892L85.1167 33.1705C85.3901 34.468 86.459 35.1591 88.0201 35.1591C89.7949 35.1591 91.003 34.1896 91.003 32.8722C91.003 31.8082 90.3368 31.1371 88.9746 30.804L87.8411 30.5256C86.9363 30.3018 86.5286 29.9986 86.5286 29.4119C86.5286 28.7557 87.2246 28.2784 88.1593 28.2784C89.1834 28.2784 89.606 28.8452 89.8098 29.3722L90.8638 29.0739ZM94.3203 24.8182H92.968L93.0675 32.1364H94.2209L94.3203 24.8182ZM93.6442 35.0795C94.1364 35.0795 94.5391 34.6768 94.5391 34.1847C94.5391 33.6925 94.1364 33.2898 93.6442 33.2898C93.152 33.2898 92.7493 33.6925 92.7493 34.1847C92.7493 34.6768 93.152 35.0795 93.6442 35.0795ZM102.612 35H103.884L106.132 26.8864H106.211L108.458 35H109.731L112.515 24.8182H111.262L109.134 33.1108H109.035L106.867 24.8182H105.475L103.308 33.1108H103.208L101.08 24.8182H99.8276L102.612 35ZM116.383 35.1591C117.934 35.1591 119.068 34.3835 119.426 33.2301L118.292 32.9119C117.994 33.7074 117.303 34.1051 116.383 34.1051C115.006 34.1051 114.056 33.2152 114.002 31.5795H119.545V31.0824C119.545 28.2386 117.855 27.2642 116.264 27.2642C114.195 27.2642 112.823 28.8949 112.823 31.2415C112.823 33.5881 114.176 35.1591 116.383 35.1591ZM114.002 30.5653C114.081 29.3771 114.921 28.3182 116.264 28.3182C117.536 28.3182 118.352 29.2727 118.352 30.5653H114.002ZM130.676 29.0739C130.308 27.9901 129.483 27.2642 127.972 27.2642C126.361 27.2642 125.168 28.179 125.168 29.4716C125.168 30.5256 125.794 31.2315 127.196 31.5597L128.469 31.858C129.24 32.0369 129.602 32.4048 129.602 32.9318C129.602 33.5881 128.906 34.125 127.813 34.125C126.853 34.125 126.252 33.7124 126.043 32.892L124.929 33.1705C125.203 34.468 126.271 35.1591 127.833 35.1591C129.607 35.1591 130.816 34.1896 130.816 32.8722C130.816 31.8082 130.149 31.1371 128.787 30.804L127.654 30.5256C126.749 30.3018 126.341 29.9986 126.341 29.4119C126.341 28.7557 127.037 28.2784 127.972 28.2784C128.996 28.2784 129.419 28.8452 129.622 29.3722L130.676 29.0739ZM133.755 30.4062C133.755 29.0739 134.605 28.3182 135.763 28.3182C136.867 28.3182 137.533 29.0142 137.533 30.2273V35H138.707V30.1477C138.707 28.1839 137.663 27.2642 136.102 27.2642C134.898 27.2642 134.212 27.7663 133.854 28.5568H133.755V24.8182H132.582V35H133.755V30.4062ZM143.955 35.1591C146.024 35.1591 147.416 33.5881 147.416 31.2216C147.416 28.8352 146.024 27.2642 143.955 27.2642C141.887 27.2642 140.495 28.8352 140.495 31.2216C140.495 33.5881 141.887 35.1591 143.955 35.1591ZM143.955 34.1051C142.384 34.1051 141.669 32.7528 141.669 31.2216C141.669 29.6903 142.384 28.3182 143.955 28.3182C145.526 28.3182 146.242 29.6903 146.242 31.2216C146.242 32.7528 145.526 34.1051 143.955 34.1051ZM154.019 31.8778C154.019 33.3097 152.925 33.9659 152.05 33.9659C151.076 33.9659 150.38 33.25 150.38 32.1364V27.3636H149.207V32.2159C149.207 34.1648 150.241 35.0994 151.673 35.0994C152.826 35.0994 153.582 34.483 153.94 33.7074H154.019V35H155.192V27.3636H154.019V31.8778ZM158.515 24.8182H157.341V35H158.515V24.8182ZM163.547 35.1591C165.019 35.1591 165.516 34.2443 165.775 33.8267H165.914V35H167.047V24.8182H165.874V28.5767H165.775C165.516 28.179 165.059 27.2642 163.567 27.2642C161.638 27.2642 160.306 28.7955 160.306 31.2017C160.306 33.6278 161.638 35.1591 163.547 35.1591ZM163.706 34.1051C162.235 34.1051 161.479 32.8125 161.479 31.1818C161.479 29.571 162.215 28.3182 163.706 28.3182C165.138 28.3182 165.894 29.4716 165.894 31.1818C165.894 32.9119 165.118 34.1051 163.706 34.1051ZM173.297 35H174.47V30.2273C174.47 29.1087 175.285 28.3182 176.2 28.3182C177.09 28.3182 177.711 28.8999 177.711 29.7699V35H178.904V30.0284C178.904 29.044 179.521 28.3182 180.595 28.3182C181.43 28.3182 182.146 28.7607 182.146 29.8892V35H183.319V29.8892C183.319 28.0945 182.355 27.2642 180.993 27.2642C179.899 27.2642 179.098 27.7663 178.706 28.5568H178.626C178.248 27.7415 177.582 27.2642 176.578 27.2642C175.583 27.2642 174.848 27.7415 174.529 28.5568H174.43V27.3636H173.297V35ZM188.567 35.1591C190.635 35.1591 192.027 33.5881 192.027 31.2216C192.027 28.8352 190.635 27.2642 188.567 27.2642C186.499 27.2642 185.107 28.8352 185.107 31.2216C185.107 33.5881 186.499 35.1591 188.567 35.1591ZM188.567 34.1051C186.996 34.1051 186.28 32.7528 186.28 31.2216C186.28 29.6903 186.996 28.3182 188.567 28.3182C190.138 28.3182 190.854 29.6903 190.854 31.2216C190.854 32.7528 190.138 34.1051 188.567 34.1051ZM199.789 27.3636H198.516L196.408 33.4489H196.329L194.221 27.3636H192.948L195.772 35H196.965L199.789 27.3636ZM204.266 35.1591C205.817 35.1591 206.95 34.3835 207.308 33.2301L206.175 32.9119C205.877 33.7074 205.186 34.1051 204.266 34.1051C202.889 34.1051 201.939 33.2152 201.884 31.5795H207.428V31.0824C207.428 28.2386 205.737 27.2642 204.146 27.2642C202.078 27.2642 200.706 28.8949 200.706 31.2415C200.706 33.5881 202.058 35.1591 204.266 35.1591ZM201.884 30.5653C201.964 29.3771 202.804 28.3182 204.146 28.3182C205.419 28.3182 206.235 29.2727 206.235 30.5653H201.884ZM216.551 27.3636H214.84V26.5881C214.84 25.8324 215.159 25.4347 215.934 25.4347C216.272 25.4347 216.471 25.5142 216.59 25.554L216.928 24.5398C216.749 24.4602 216.392 24.3409 215.815 24.3409C214.721 24.3409 213.667 24.9972 213.667 26.3097V27.3636H212.434V28.358H213.667V35H214.84V28.358H216.551V27.3636ZM220.983 35.1591C223.051 35.1591 224.443 33.5881 224.443 31.2216C224.443 28.8352 223.051 27.2642 220.983 27.2642C218.915 27.2642 217.523 28.8352 217.523 31.2216C217.523 33.5881 218.915 35.1591 220.983 35.1591ZM220.983 34.1051C219.412 34.1051 218.696 32.7528 218.696 31.2216C218.696 29.6903 219.412 28.3182 220.983 28.3182C222.554 28.3182 223.27 29.6903 223.27 31.2216C223.27 32.7528 222.554 34.1051 220.983 34.1051ZM226.234 35H227.407V30.1676C227.407 29.1335 228.223 28.3778 229.336 28.3778C229.65 28.3778 229.973 28.4375 230.052 28.4574V27.2642C229.918 27.2543 229.61 27.2443 229.436 27.2443C228.521 27.2443 227.725 27.7614 227.447 28.517H227.368V27.3636H226.234V35ZM233.296 35H234.45L236.12 29.1335H236.239L237.91 35H239.063L241.39 27.3636H240.157L238.506 33.1903H238.427L236.816 27.3636H235.563L233.933 33.2102H233.853L232.202 27.3636H230.969L233.296 35ZM245.188 35.179C246.521 35.179 247.217 34.4631 247.455 33.9659H247.515V35H248.688V29.9688C248.688 27.5426 246.839 27.2642 245.864 27.2642C244.711 27.2642 243.398 27.6619 242.802 29.054L243.915 29.4517C244.174 28.8949 244.786 28.2983 245.904 28.2983C246.983 28.2983 247.515 28.87 247.515 29.8494V29.8892C247.515 30.456 246.938 30.4062 245.546 30.5852C244.129 30.7692 242.583 31.0824 242.583 32.8324C242.583 34.3239 243.737 35.179 245.188 35.179ZM245.367 34.125C244.433 34.125 243.756 33.7074 243.756 32.892C243.756 31.9972 244.572 31.7188 245.487 31.5994C245.984 31.5398 247.316 31.4006 247.515 31.1619V32.2358C247.515 33.1903 246.759 34.125 245.367 34.125ZM250.83 35H252.003V30.1676C252.003 29.1335 252.818 28.3778 253.932 28.3778C254.245 28.3778 254.568 28.4375 254.648 28.4574V27.2642C254.514 27.2543 254.205 27.2443 254.031 27.2443C253.117 27.2443 252.321 27.7614 252.043 28.517H251.963V27.3636H250.83V35ZM258.69 35.1591C260.161 35.1591 260.659 34.2443 260.917 33.8267H261.056V35H262.19V24.8182H261.017V28.5767H260.917C260.659 28.179 260.201 27.2642 258.71 27.2642C256.781 27.2642 255.448 28.7955 255.448 31.2017C255.448 33.6278 256.781 35.1591 258.69 35.1591ZM258.849 34.1051C257.377 34.1051 256.622 32.8125 256.622 31.1818C256.622 29.571 257.357 28.3182 258.849 28.3182C260.281 28.3182 261.036 29.4716 261.036 31.1818C261.036 32.9119 260.261 34.1051 258.849 34.1051ZM22.804 55H23.9574L25.6278 49.1335H25.7472L27.4176 55H28.571L30.8977 47.3636H29.6648L28.0142 53.1903H27.9347L26.3239 47.3636H25.071L23.4403 53.2102H23.3608L21.7102 47.3636H20.4773L22.804 55ZM32.4489 55H33.6222V47.3636H32.4489V55ZM33.0455 46.0909C33.5028 46.0909 33.8807 45.733 33.8807 45.2955C33.8807 44.858 33.5028 44.5 33.0455 44.5C32.5881 44.5 32.2102 44.858 32.2102 45.2955C32.2102 45.733 32.5881 46.0909 33.0455 46.0909ZM39.0922 47.3636H37.4615V45.5341H36.2882V47.3636H35.1348V48.358H36.2882V53.1307C36.2882 54.4631 37.362 55.0994 38.3564 55.0994C38.7939 55.0994 39.0723 55.0199 39.2314 54.9602L38.9927 53.9062C38.8933 53.9261 38.7342 53.9659 38.4757 53.9659C37.9586 53.9659 37.4615 53.8068 37.4615 52.8125V48.358H39.0922V47.3636ZM42.1944 50.4062C42.1944 49.0739 43.0446 48.3182 44.2029 48.3182C45.3066 48.3182 45.9728 49.0142 45.9728 50.2273V55H47.1461V50.1477C47.1461 48.1839 46.1021 47.2642 44.541 47.2642C43.3379 47.2642 42.6518 47.7663 42.2939 48.5568H42.1944V44.8182H41.0211V55H42.1944V50.4062ZM54.4034 50.4062C54.4034 49.0739 55.2536 48.3182 56.4119 48.3182C57.5156 48.3182 58.1818 49.0142 58.1818 50.2273V55H59.3551V50.1477C59.3551 48.1839 58.3111 47.2642 56.75 47.2642C55.5469 47.2642 54.8608 47.7663 54.5028 48.5568H54.4034V44.8182H53.2301V55H54.4034V50.4062ZM61.5016 55H62.6749V47.3636H61.5016V55ZM62.0982 46.0909C62.5556 46.0909 62.9334 45.733 62.9334 45.2955C62.9334 44.858 62.5556 44.5 62.0982 44.5C61.6408 44.5 61.263 44.858 61.263 45.2955C61.263 45.733 61.6408 46.0909 62.0982 46.0909ZM64.8239 55H65.9972V50.2273C65.9972 49.1087 66.8125 48.3182 67.7273 48.3182C68.6172 48.3182 69.2386 48.8999 69.2386 49.7699V55H70.4318V50.0284C70.4318 49.044 71.0483 48.3182 72.1222 48.3182C72.9574 48.3182 73.6733 48.7607 73.6733 49.8892V55H74.8466V49.8892C74.8466 48.0945 73.8821 47.2642 72.5199 47.2642C71.4261 47.2642 70.6257 47.7663 70.233 48.5568H70.1534C69.7756 47.7415 69.1094 47.2642 68.1051 47.2642C67.1108 47.2642 66.375 47.7415 66.0568 48.5568H65.9574V47.3636H64.8239V55ZM83.1765 55.179C84.5089 55.179 85.2049 54.4631 85.4435 53.9659H85.5032V55H86.6765V49.9688C86.6765 47.5426 84.8271 47.2642 83.8526 47.2642C82.6992 47.2642 81.3867 47.6619 80.7901 49.054L81.9038 49.4517C82.1623 48.8949 82.7738 48.2983 83.8924 48.2983C84.9712 48.2983 85.5032 48.87 85.5032 49.8494V49.8892C85.5032 50.456 84.9265 50.4062 83.5344 50.5852C82.1175 50.7692 80.5714 51.0824 80.5714 52.8324C80.5714 54.3239 81.7248 55.179 83.1765 55.179ZM83.3555 54.125C82.4208 54.125 81.7447 53.7074 81.7447 52.892C81.7447 51.9972 82.56 51.7188 83.4748 51.5994C83.9719 51.5398 85.3043 51.4006 85.5032 51.1619V52.2358C85.5032 53.1903 84.7475 54.125 83.3555 54.125ZM89.9913 50.4062C89.9913 49.0739 90.8166 48.3182 91.9402 48.3182C93.0289 48.3182 93.6902 49.0291 93.6902 50.2273V55H94.8635V50.1477C94.8635 48.1989 93.8244 47.2642 92.2782 47.2642C91.1248 47.2642 90.4089 47.7812 90.051 48.5568H89.9515V47.3636H88.818V55H89.9913V50.4062ZM99.891 55.1591C101.363 55.1591 101.86 54.2443 102.118 53.8267H102.257V55H103.391V44.8182H102.218V48.5767H102.118C101.86 48.179 101.402 47.2642 99.9109 47.2642C97.9819 47.2642 96.6495 48.7955 96.6495 51.2017C96.6495 53.6278 97.9819 55.1591 99.891 55.1591ZM100.05 54.1051C98.5785 54.1051 97.8228 52.8125 97.8228 51.1818C97.8228 49.571 98.5586 48.3182 100.05 48.3182C101.482 48.3182 102.238 49.4716 102.238 51.1818C102.238 52.9119 101.462 54.1051 100.05 54.1051ZM115.049 49.0739C114.681 47.9901 113.856 47.2642 112.345 47.2642C110.734 47.2642 109.541 48.179 109.541 49.4716C109.541 50.5256 110.167 51.2315 111.569 51.5597L112.842 51.858C113.613 52.0369 113.975 52.4048 113.975 52.9318C113.975 53.5881 113.279 54.125 112.186 54.125C111.226 54.125 110.625 53.7124 110.416 52.892L109.302 53.1705C109.576 54.468 110.645 55.1591 112.206 55.1591C113.98 55.1591 115.189 54.1896 115.189 52.8722C115.189 51.8082 114.522 51.1371 113.16 50.804L112.027 50.5256C111.122 50.3018 110.714 49.9986 110.714 49.4119C110.714 48.7557 111.41 48.2784 112.345 48.2784C113.369 48.2784 113.792 48.8452 113.995 49.3722L115.049 49.0739ZM120.156 55.1591C121.708 55.1591 122.841 54.3835 123.199 53.2301L122.066 52.9119C121.767 53.7074 121.076 54.1051 120.156 54.1051C118.779 54.1051 117.83 53.2152 117.775 51.5795H123.318V51.0824C123.318 48.2386 121.628 47.2642 120.037 47.2642C117.969 47.2642 116.597 48.8949 116.597 51.2415C116.597 53.5881 117.949 55.1591 120.156 55.1591ZM117.775 50.5653C117.855 49.3771 118.695 48.3182 120.037 48.3182C121.31 48.3182 122.125 49.2727 122.125 50.5653H117.775ZM128.305 55.1591C129.856 55.1591 130.99 54.3835 131.347 53.2301L130.214 52.9119C129.916 53.7074 129.225 54.1051 128.305 54.1051C126.928 54.1051 125.978 53.2152 125.923 51.5795H131.467V51.0824C131.467 48.2386 129.776 47.2642 128.186 47.2642C126.117 47.2642 124.745 48.8949 124.745 51.2415C124.745 53.5881 126.097 55.1591 128.305 55.1591ZM125.923 50.5653C126.003 49.3771 126.843 48.3182 128.186 48.3182C129.458 48.3182 130.274 49.2727 130.274 50.5653H125.923ZM138.362 50.4062C138.362 49.0739 139.213 48.3182 140.371 48.3182C141.475 48.3182 142.141 49.0142 142.141 50.2273V55H143.314V50.1477C143.314 48.1839 142.27 47.2642 140.709 47.2642C139.506 47.2642 138.82 47.7663 138.462 48.5568H138.362V44.8182H137.189V55H138.362V50.4062ZM148.563 55.1591C150.631 55.1591 152.023 53.5881 152.023 51.2216C152.023 48.8352 150.631 47.2642 148.563 47.2642C146.495 47.2642 145.103 48.8352 145.103 51.2216C145.103 53.5881 146.495 55.1591 148.563 55.1591ZM148.563 54.1051C146.992 54.1051 146.276 52.7528 146.276 51.2216C146.276 49.6903 146.992 48.3182 148.563 48.3182C150.134 48.3182 150.85 49.6903 150.85 51.2216C150.85 52.7528 150.134 54.1051 148.563 54.1051ZM155.284 55H156.438L158.108 49.1335H158.228L159.898 55H161.051L163.378 47.3636H162.145L160.495 53.1903H160.415L158.804 47.3636H157.551L155.921 53.2102H155.841L154.191 47.3636H152.958L155.284 55ZM168.867 55H170.04V47.3636H168.867V55ZM169.463 46.0909C169.921 46.0909 170.299 45.733 170.299 45.2955C170.299 44.858 169.921 44.5 169.463 44.5C169.006 44.5 168.628 44.858 168.628 45.2955C168.628 45.733 169.006 46.0909 169.463 46.0909ZM175.51 47.3636H173.879V45.5341H172.706V47.3636H171.553V48.358H172.706V53.1307C172.706 54.4631 173.78 55.0994 174.774 55.0994C175.212 55.0994 175.49 55.0199 175.649 54.9602L175.411 53.9062C175.311 53.9261 175.152 53.9659 174.894 53.9659C174.377 53.9659 173.879 53.8068 173.879 52.8125V48.358H175.51V47.3636ZM184.295 58.0227C186.124 58.0227 187.596 57.1875 187.596 55.2188V47.3636H186.463V48.5767H186.343C186.085 48.179 185.607 47.2642 184.116 47.2642C182.187 47.2642 180.855 48.7955 180.855 51.142C180.855 53.5284 182.247 54.8807 184.096 54.8807C185.588 54.8807 186.065 54.0057 186.323 53.5881H186.423V55.1392C186.423 56.4119 185.528 56.9886 184.295 56.9886C182.908 56.9886 182.421 56.2578 182.107 55.8352L181.173 56.4915C181.65 57.2919 182.59 58.0227 184.295 58.0227ZM184.255 53.8267C182.784 53.8267 182.028 52.7131 182.028 51.1222C182.028 49.571 182.764 48.3182 184.255 48.3182C185.687 48.3182 186.443 49.4716 186.443 51.1222C186.443 52.8125 185.667 53.8267 184.255 53.8267ZM192.846 55.1591C194.914 55.1591 196.306 53.5881 196.306 51.2216C196.306 48.8352 194.914 47.2642 192.846 47.2642C190.778 47.2642 189.386 48.8352 189.386 51.2216C189.386 53.5881 190.778 55.1591 192.846 55.1591ZM192.846 54.1051C191.275 54.1051 190.559 52.7528 190.559 51.2216C190.559 49.6903 191.275 48.3182 192.846 48.3182C194.417 48.3182 195.133 49.6903 195.133 51.2216C195.133 52.7528 194.417 54.1051 192.846 54.1051ZM201.299 55.1591C202.85 55.1591 203.984 54.3835 204.342 53.2301L203.208 52.9119C202.91 53.7074 202.219 54.1051 201.299 54.1051C199.922 54.1051 198.972 53.2152 198.918 51.5795H204.461V51.0824C204.461 48.2386 202.771 47.2642 201.18 47.2642C199.112 47.2642 197.739 48.8949 197.739 51.2415C197.739 53.5881 199.092 55.1591 201.299 55.1591ZM198.918 50.5653C198.997 49.3771 199.837 48.3182 201.18 48.3182C202.452 48.3182 203.268 49.2727 203.268 50.5653H198.918ZM211.655 49.0739C211.287 47.9901 210.462 47.2642 208.95 47.2642C207.339 47.2642 206.146 48.179 206.146 49.4716C206.146 50.5256 206.773 51.2315 208.175 51.5597L209.447 51.858C210.218 52.0369 210.581 52.4048 210.581 52.9318C210.581 53.5881 209.885 54.125 208.791 54.125C207.832 54.125 207.23 53.7124 207.021 52.892L205.908 53.1705C206.181 54.468 207.25 55.1591 208.811 55.1591C210.586 55.1591 211.794 54.1896 211.794 52.8722C211.794 51.8082 211.128 51.1371 209.766 50.804L208.632 50.5256C207.727 50.3018 207.32 49.9986 207.32 49.4119C207.32 48.7557 208.016 48.2784 208.95 48.2784C209.974 48.2784 210.397 48.8452 210.601 49.3722L211.655 49.0739ZM218.353 55.0795C218.845 55.0795 219.248 54.6768 219.248 54.1847C219.248 53.6925 218.845 53.2898 218.353 53.2898C217.861 53.2898 217.458 53.6925 217.458 54.1847C217.458 54.6768 217.861 55.0795 218.353 55.0795ZM218.353 49.4119C218.845 49.4119 219.248 49.0092 219.248 48.517C219.248 48.0249 218.845 47.6222 218.353 47.6222C217.861 47.6222 217.458 48.0249 217.458 48.517C217.458 49.0092 217.861 49.4119 218.353 49.4119ZM223.859 50.7045C223.859 48.1989 223.183 46.1108 221.97 44.3409H220.936C221.89 45.6534 222.646 48.3381 222.646 50.7045C222.646 53.071 221.89 55.7557 220.936 57.0682H221.97C223.183 55.2983 223.859 53.2102 223.859 50.7045ZM21.233 75H22.4659V70.446H27.8949V75H29.1278V64.8182H27.8949V69.3523H22.4659V64.8182H21.233V75ZM34.6388 75.1591C36.19 75.1591 37.3235 74.3835 37.6815 73.2301L36.5479 72.9119C36.2496 73.7074 35.5586 74.1051 34.6388 74.1051C33.2617 74.1051 32.3121 73.2152 32.2575 71.5795H37.8008V71.0824C37.8008 68.2386 36.1104 67.2642 34.5195 67.2642C32.4513 67.2642 31.0792 68.8949 31.0792 71.2415C31.0792 73.5881 32.4315 75.1591 34.6388 75.1591ZM32.2575 70.5653C32.337 69.3771 33.1772 68.3182 34.5195 68.3182C35.7923 68.3182 36.6076 69.2727 36.6076 70.5653H32.2575ZM44.6964 70.4062C44.6964 69.0739 45.5465 68.3182 46.7049 68.3182C47.8086 68.3182 48.4748 69.0142 48.4748 70.2273V75H49.6481V70.1477C49.6481 68.1839 48.604 67.2642 47.043 67.2642C45.8398 67.2642 45.1538 67.7663 44.7958 68.5568H44.6964V64.8182H43.5231V75H44.6964V70.4062ZM54.0417 75.179C55.3741 75.179 56.0701 74.4631 56.3088 73.9659H56.3684V75H57.5417V69.9688C57.5417 67.5426 55.6923 67.2642 54.7179 67.2642C53.5645 67.2642 52.252 67.6619 51.6554 69.054L52.769 69.4517C53.0275 68.8949 53.639 68.2983 54.7576 68.2983C55.8365 68.2983 56.3684 68.87 56.3684 69.8494V69.8892C56.3684 70.456 55.7917 70.4062 54.3997 70.5852C52.9828 70.7692 51.4366 71.0824 51.4366 72.8324C51.4366 74.3239 52.59 75.179 54.0417 75.179ZM54.2207 74.125C53.286 74.125 52.6099 73.7074 52.6099 72.892C52.6099 71.9972 53.4252 71.7188 54.34 71.5994C54.8372 71.5398 56.1696 71.4006 56.3684 71.1619V72.2358C56.3684 73.1903 55.6127 74.125 54.2207 74.125ZM65.0923 69.0739C64.7244 67.9901 63.8991 67.2642 62.3878 67.2642C60.777 67.2642 59.5838 68.179 59.5838 69.4716C59.5838 70.5256 60.2102 71.2315 61.6122 71.5597L62.8849 71.858C63.6555 72.0369 64.0185 72.4048 64.0185 72.9318C64.0185 73.5881 63.3224 74.125 62.2287 74.125C61.2692 74.125 60.6676 73.7124 60.4588 72.892L59.3452 73.1705C59.6186 74.468 60.6875 75.1591 62.2486 75.1591C64.0234 75.1591 65.2315 74.1896 65.2315 72.8722C65.2315 71.8082 64.5653 71.1371 63.2031 70.804L62.0696 70.5256C61.1648 70.3018 60.7571 69.9986 60.7571 69.4119C60.7571 68.7557 61.4531 68.2784 62.3878 68.2784C63.4119 68.2784 63.8345 68.8452 64.0384 69.3722L65.0923 69.0739ZM73.8187 75.1591C75.2903 75.1591 75.7875 74.2443 76.046 73.8267H76.1852V75H77.3187V64.8182H76.1454V68.5767H76.046C75.7875 68.179 75.3301 67.2642 73.8386 67.2642C71.9096 67.2642 70.5772 68.7955 70.5772 71.2017C70.5772 73.6278 71.9096 75.1591 73.8187 75.1591ZM73.9778 74.1051C72.5062 74.1051 71.7505 72.8125 71.7505 71.1818C71.7505 69.571 72.4863 68.3182 73.9778 68.3182C75.4096 68.3182 76.1653 69.4716 76.1653 71.1818C76.1653 72.9119 75.3897 74.1051 73.9778 74.1051ZM82.8322 75.1591C84.3833 75.1591 85.5169 74.3835 85.8748 73.2301L84.7413 72.9119C84.443 73.7074 83.752 74.1051 82.8322 74.1051C81.4551 74.1051 80.5055 73.2152 80.4508 71.5795H85.9941V71.0824C85.9941 68.2386 84.3038 67.2642 82.7129 67.2642C80.6447 67.2642 79.2725 68.8949 79.2725 71.2415C79.2725 73.5881 80.6248 75.1591 82.8322 75.1591ZM80.4508 70.5653C80.5304 69.3771 81.3706 68.3182 82.7129 68.3182C83.9856 68.3182 84.801 69.2727 84.801 70.5653H80.4508ZM87.7789 75H88.9522V70.2273C88.9522 69.1087 89.7676 68.3182 90.6824 68.3182C91.5723 68.3182 92.1937 68.8999 92.1937 69.7699V75H93.3869V70.0284C93.3869 69.044 94.0034 68.3182 95.0772 68.3182C95.9125 68.3182 96.6284 68.7607 96.6284 69.8892V75H97.8017V69.8892C97.8017 68.0945 96.8372 67.2642 95.475 67.2642C94.3812 67.2642 93.5808 67.7663 93.188 68.5568H93.1085C92.7306 67.7415 92.0645 67.2642 91.0602 67.2642C90.0659 67.2642 89.3301 67.7415 89.0119 68.5568H88.9125V67.3636H87.7789V75ZM103.049 75.1591C105.117 75.1591 106.509 73.5881 106.509 71.2216C106.509 68.8352 105.117 67.2642 103.049 67.2642C100.981 67.2642 99.589 68.8352 99.589 71.2216C99.589 73.5881 100.981 75.1591 103.049 75.1591ZM103.049 74.1051C101.478 74.1051 100.762 72.7528 100.762 71.2216C100.762 69.6903 101.478 68.3182 103.049 68.3182C104.62 68.3182 105.336 69.6903 105.336 71.2216C105.336 72.7528 104.62 74.1051 103.049 74.1051ZM109.474 70.4062C109.474 69.0739 110.299 68.3182 111.423 68.3182C112.511 68.3182 113.173 69.0291 113.173 70.2273V75H114.346V70.1477C114.346 68.1989 113.307 67.2642 111.761 67.2642C110.607 67.2642 109.891 67.7812 109.533 68.5568H109.434V67.3636H108.3V75H109.474V70.4062ZM121.899 69.0739C121.531 67.9901 120.706 67.2642 119.194 67.2642C117.584 67.2642 116.39 68.179 116.39 69.4716C116.39 70.5256 117.017 71.2315 118.419 71.5597L119.692 71.858C120.462 72.0369 120.825 72.4048 120.825 72.9318C120.825 73.5881 120.129 74.125 119.035 74.125C118.076 74.125 117.474 73.7124 117.265 72.892L116.152 73.1705C116.425 74.468 117.494 75.1591 119.055 75.1591C120.83 75.1591 122.038 74.1896 122.038 72.8722C122.038 71.8082 121.372 71.1371 120.01 70.804L118.876 70.5256C117.971 70.3018 117.564 69.9986 117.564 69.4119C117.564 68.7557 118.26 68.2784 119.194 68.2784C120.219 68.2784 120.641 68.8452 120.845 69.3722L121.899 69.0739ZM127.125 67.3636H125.495V65.5341H124.321V67.3636H123.168V68.358H124.321V73.1307C124.321 74.4631 125.395 75.0994 126.39 75.0994C126.827 75.0994 127.105 75.0199 127.265 74.9602L127.026 73.9062C126.926 73.9261 126.767 73.9659 126.509 73.9659C125.992 73.9659 125.495 73.8068 125.495 72.8125V68.358H127.125V67.3636ZM128.89 75H130.064V70.1676C130.064 69.1335 130.879 68.3778 131.993 68.3778C132.306 68.3778 132.629 68.4375 132.708 68.4574V67.2642C132.574 67.2543 132.266 67.2443 132.092 67.2443C131.177 67.2443 130.382 67.7614 130.103 68.517H130.024V67.3636H128.89V75ZM136.346 75.179C137.679 75.179 138.375 74.4631 138.613 73.9659H138.673V75H139.846V69.9688C139.846 67.5426 137.997 67.2642 137.023 67.2642C135.869 67.2642 134.557 67.6619 133.96 69.054L135.074 69.4517C135.332 68.8949 135.944 68.2983 137.062 68.2983C138.141 68.2983 138.673 68.87 138.673 69.8494V69.8892C138.673 70.456 138.096 70.4062 136.704 70.5852C135.287 70.7692 133.741 71.0824 133.741 72.8324C133.741 74.3239 134.895 75.179 136.346 75.179ZM136.525 74.125C135.591 74.125 134.915 73.7074 134.915 72.892C134.915 71.9972 135.73 71.7188 136.645 71.5994C137.142 71.5398 138.474 71.4006 138.673 71.1619V72.2358C138.673 73.1903 137.917 74.125 136.525 74.125ZM145.309 67.3636H143.678V65.5341H142.505V67.3636H141.352V68.358H142.505V73.1307C142.505 74.4631 143.579 75.0994 144.573 75.0994C145.011 75.0994 145.289 75.0199 145.448 74.9602L145.21 73.9062C145.11 73.9261 144.951 73.9659 144.692 73.9659C144.175 73.9659 143.678 73.8068 143.678 72.8125V68.358H145.309V67.3636ZM150.194 75.1591C151.745 75.1591 152.878 74.3835 153.236 73.2301L152.103 72.9119C151.804 73.7074 151.113 74.1051 150.194 74.1051C148.816 74.1051 147.867 73.2152 147.812 71.5795H153.355V71.0824C153.355 68.2386 151.665 67.2642 150.074 67.2642C148.006 67.2642 146.634 68.8949 146.634 71.2415C146.634 73.5881 147.986 75.1591 150.194 75.1591ZM147.812 70.5653C147.892 69.3771 148.732 68.3182 150.074 68.3182C151.347 68.3182 152.162 69.2727 152.162 70.5653H147.812ZM158.024 75.1591C159.495 75.1591 159.993 74.2443 160.251 73.8267H160.39V75H161.524V64.8182H160.35V68.5767H160.251C159.993 68.179 159.535 67.2642 158.044 67.2642C156.115 67.2642 154.782 68.7955 154.782 71.2017C154.782 73.6278 156.115 75.1591 158.024 75.1591ZM158.183 74.1051C156.711 74.1051 155.956 72.8125 155.956 71.1818C155.956 69.571 156.691 68.3182 158.183 68.3182C159.615 68.3182 160.37 69.4716 160.37 71.1818C160.37 72.9119 159.595 74.1051 158.183 74.1051ZM170.02 75.179C171.353 75.179 172.049 74.4631 172.287 73.9659H172.347V75H173.52V69.9688C173.52 67.5426 171.671 67.2642 170.696 67.2642C169.543 67.2642 168.23 67.6619 167.634 69.054L168.748 69.4517C169.006 68.8949 169.618 68.2983 170.736 68.2983C171.815 68.2983 172.347 68.87 172.347 69.8494V69.8892C172.347 70.456 171.77 70.4062 170.378 70.5852C168.961 70.7692 167.415 71.0824 167.415 72.8324C167.415 74.3239 168.569 75.179 170.02 75.179ZM170.199 74.125C169.265 74.125 168.588 73.7074 168.588 72.892C168.588 71.9972 169.404 71.7188 170.319 71.5994C170.816 71.5398 172.148 71.4006 172.347 71.1619V72.2358C172.347 73.1903 171.591 74.125 170.199 74.125ZM176.835 64.8182H175.662V75H176.835V64.8182ZM180.157 64.8182H178.984V75H180.157V64.8182ZM189.565 67.3636H187.934V65.5341H186.761V67.3636H185.607V68.358H186.761V73.1307C186.761 74.4631 187.835 75.0994 188.829 75.0994C189.267 75.0994 189.545 75.0199 189.704 74.9602L189.465 73.9062C189.366 73.9261 189.207 73.9659 188.948 73.9659C188.431 73.9659 187.934 73.8068 187.934 72.8125V68.358H189.565V67.3636ZM192.667 70.4062C192.667 69.0739 193.517 68.3182 194.676 68.3182C195.779 68.3182 196.445 69.0142 196.445 70.2273V75H197.619V70.1477C197.619 68.1839 196.575 67.2642 195.014 67.2642C193.811 67.2642 193.124 67.7663 192.767 68.5568H192.667V64.8182H191.494V75H192.667V70.4062ZM202.967 75.1591C204.518 75.1591 205.652 74.3835 206.01 73.2301L204.876 72.9119C204.578 73.7074 203.887 74.1051 202.967 74.1051C201.59 74.1051 200.64 73.2152 200.586 71.5795H206.129V71.0824C206.129 68.2386 204.439 67.2642 202.848 67.2642C200.779 67.2642 199.407 68.8949 199.407 71.2415C199.407 73.5881 200.76 75.1591 202.967 75.1591ZM200.586 70.5653C200.665 69.3771 201.505 68.3182 202.848 68.3182C204.12 68.3182 204.936 69.2727 204.936 70.5653H200.586ZM217.26 69.0739C216.892 67.9901 216.067 67.2642 214.556 67.2642C212.945 67.2642 211.752 68.179 211.752 69.4716C211.752 70.5256 212.378 71.2315 213.78 71.5597L215.053 71.858C215.824 72.0369 216.186 72.4048 216.186 72.9318C216.186 73.5881 215.49 74.125 214.397 74.125C213.437 74.125 212.836 73.7124 212.627 72.892L211.513 73.1705C211.787 74.468 212.855 75.1591 214.417 75.1591C216.191 75.1591 217.4 74.1896 217.4 72.8722C217.4 71.8082 216.733 71.1371 215.371 70.804L214.238 70.5256C213.333 70.3018 212.925 69.9986 212.925 69.4119C212.925 68.7557 213.621 68.2784 214.556 68.2784C215.58 68.2784 216.002 68.8452 216.206 69.3722L217.26 69.0739ZM222.268 75.1591C224.336 75.1591 225.728 73.5881 225.728 71.2216C225.728 68.8352 224.336 67.2642 222.268 67.2642C220.2 67.2642 218.808 68.8352 218.808 71.2216C218.808 73.5881 220.2 75.1591 222.268 75.1591ZM222.268 74.1051C220.697 74.1051 219.981 72.7528 219.981 71.2216C219.981 69.6903 220.697 68.3182 222.268 68.3182C223.839 68.3182 224.555 69.6903 224.555 71.2216C224.555 72.7528 223.839 74.1051 222.268 74.1051ZM230.92 67.3636H229.21V66.5881C229.21 65.8324 229.528 65.4347 230.303 65.4347C230.641 65.4347 230.84 65.5142 230.96 65.554L231.298 64.5398C231.119 64.4602 230.761 64.3409 230.184 64.3409C229.09 64.3409 228.036 64.9972 228.036 66.3097V67.3636H226.803V68.358H228.036V75H229.21V68.358H230.92V67.3636ZM235.885 67.3636H234.254V65.5341H233.081V67.3636H231.928V68.358H233.081V73.1307C233.081 74.4631 234.155 75.0994 235.149 75.0994C235.587 75.0994 235.865 75.0199 236.024 74.9602L235.786 73.9062C235.686 73.9261 235.527 73.9659 235.269 73.9659C234.752 73.9659 234.254 73.8068 234.254 72.8125V68.358H235.885V67.3636ZM246.997 69.0739C246.629 67.9901 245.803 67.2642 244.292 67.2642C242.681 67.2642 241.488 68.179 241.488 69.4716C241.488 70.5256 242.115 71.2315 243.517 71.5597L244.789 71.858C245.56 72.0369 245.923 72.4048 245.923 72.9318C245.923 73.5881 245.227 74.125 244.133 74.125C243.173 74.125 242.572 73.7124 242.363 72.892L241.249 73.1705C241.523 74.468 242.592 75.1591 244.153 75.1591C245.928 75.1591 247.136 74.1896 247.136 72.8722C247.136 71.8082 246.47 71.1371 245.107 70.804L243.974 70.5256C243.069 70.3018 242.661 69.9986 242.661 69.4119C242.661 68.7557 243.357 68.2784 244.292 68.2784C245.316 68.2784 245.739 68.8452 245.943 69.3722L246.997 69.0739ZM248.902 75H250.075V72.1413L250.896 71.3807L253.754 75H255.246L251.781 70.625L255.007 67.3636H253.555L250.214 70.7642H250.075V64.8182H248.902V75ZM256.517 75H257.691V67.3636H256.517V75ZM257.114 66.0909C257.571 66.0909 257.949 65.733 257.949 65.2955C257.949 64.858 257.571 64.5 257.114 64.5C256.656 64.5 256.279 64.858 256.279 65.2955C256.279 65.733 256.656 66.0909 257.114 66.0909ZM261.013 64.8182H259.839V75H261.013V64.8182ZM264.335 64.8182H263.162V75H264.335V64.8182ZM271.893 69.0739C271.525 67.9901 270.7 67.2642 269.189 67.2642C267.578 67.2642 266.385 68.179 266.385 69.4716C266.385 70.5256 267.011 71.2315 268.413 71.5597L269.686 71.858C270.456 72.0369 270.819 72.4048 270.819 72.9318C270.819 73.5881 270.123 74.125 269.029 74.125C268.07 74.125 267.468 73.7124 267.26 72.892L266.146 73.1705C266.419 74.468 267.488 75.1591 269.049 75.1591C270.824 75.1591 272.032 74.1896 272.032 72.8722C272.032 71.8082 271.366 71.1371 270.004 70.804L268.87 70.5256C267.966 70.3018 267.558 69.9986 267.558 69.4119C267.558 68.7557 268.254 68.2784 269.189 68.2784C270.213 68.2784 270.635 68.8452 270.839 69.3722L271.893 69.0739ZM22.804 95H23.9574L25.6278 89.1335H25.7472L27.4176 95H28.571L30.8977 87.3636H29.6648L28.0142 93.1903H27.9347L26.3239 87.3636H25.071L23.4403 93.2102H23.3608L21.7102 87.3636H20.4773L22.804 95ZM35.3908 95.1591C36.9419 95.1591 38.0755 94.3835 38.4334 93.2301L37.2999 92.9119C37.0016 93.7074 36.3105 94.1051 35.3908 94.1051C34.0137 94.1051 33.0641 93.2152 33.0094 91.5795H38.5527V91.0824C38.5527 88.2386 36.8624 87.2642 35.2715 87.2642C33.2033 87.2642 31.8311 88.8949 31.8311 91.2415C31.8311 93.5881 33.1834 95.1591 35.3908 95.1591ZM33.0094 90.5653C33.089 89.3771 33.9292 88.3182 35.2715 88.3182C36.5442 88.3182 37.3596 89.2727 37.3596 90.5653H33.0094ZM46.0051 95H47.1586L48.829 89.1335H48.9483L50.6188 95H51.7722L54.0989 87.3636H52.8659L51.2154 93.1903H51.1358L49.525 87.3636H48.2722L46.6415 93.2102H46.562L44.9114 87.3636H43.6784L46.0051 95ZM58.592 95.1591C60.1431 95.1591 61.2766 94.3835 61.6346 93.2301L60.5011 92.9119C60.2028 93.7074 59.5117 94.1051 58.592 94.1051C57.2148 94.1051 56.2653 93.2152 56.2106 91.5795H61.7539V91.0824C61.7539 88.2386 60.0636 87.2642 58.4727 87.2642C56.4045 87.2642 55.0323 88.8949 55.0323 91.2415C55.0323 93.5881 56.3846 95.1591 58.592 95.1591ZM56.2106 90.5653C56.2901 89.3771 57.1303 88.3182 58.4727 88.3182C59.7454 88.3182 60.5607 89.2727 60.5607 90.5653H56.2106ZM63.5387 95H64.712V90.1676C64.712 89.1335 65.5273 88.3778 66.641 88.3778C66.9542 88.3778 67.2773 88.4375 67.3569 88.4574V87.2642C67.2227 87.2543 66.9144 87.2443 66.7404 87.2443C65.8256 87.2443 65.0302 87.7614 64.7518 88.517H64.6722V87.3636H63.5387V95ZM71.717 95.1591C73.2681 95.1591 74.4016 94.3835 74.7596 93.2301L73.6261 92.9119C73.3278 93.7074 72.6367 94.1051 71.717 94.1051C70.3398 94.1051 69.3903 93.2152 69.3356 91.5795H74.8789V91.0824C74.8789 88.2386 73.1886 87.2642 71.5977 87.2642C69.5295 87.2642 68.1573 88.8949 68.1573 91.2415C68.1573 93.5881 69.5096 95.1591 71.717 95.1591ZM69.3356 90.5653C69.4151 89.3771 70.2553 88.3182 71.5977 88.3182C72.8704 88.3182 73.6857 89.2727 73.6857 90.5653H69.3356ZM81.7745 84.8182H80.6012V95H81.7745V84.8182ZM87.0257 95.1591C89.0939 95.1591 90.486 93.5881 90.486 91.2216C90.486 88.8352 89.0939 87.2642 87.0257 87.2642C84.9576 87.2642 83.5655 88.8352 83.5655 91.2216C83.5655 93.5881 84.9576 95.1591 87.0257 95.1591ZM87.0257 94.1051C85.4547 94.1051 84.7388 92.7528 84.7388 91.2216C84.7388 89.6903 85.4547 88.3182 87.0257 88.3182C88.5968 88.3182 89.3127 89.6903 89.3127 91.2216C89.3127 92.7528 88.5968 94.1051 87.0257 94.1051ZM95.3793 95.1591C97.4474 95.1591 98.8395 93.5881 98.8395 91.2216C98.8395 88.8352 97.4474 87.2642 95.3793 87.2642C93.3111 87.2642 91.919 88.8352 91.919 91.2216C91.919 93.5881 93.3111 95.1591 95.3793 95.1591ZM95.3793 94.1051C93.8082 94.1051 93.0923 92.7528 93.0923 91.2216C93.0923 89.6903 93.8082 88.3182 95.3793 88.3182C96.9503 88.3182 97.6662 89.6903 97.6662 91.2216C97.6662 92.7528 96.9503 94.1051 95.3793 94.1051ZM100.631 95H101.804V92.1413L102.624 91.3807L105.483 95H106.974L103.509 90.625L106.736 87.3636H105.284L101.943 90.7642H101.804V84.8182H100.631V95ZM108.246 95H109.419V87.3636H108.246V95ZM108.842 86.0909C109.3 86.0909 109.678 85.733 109.678 85.2955C109.678 84.858 109.3 84.5 108.842 84.5C108.385 84.5 108.007 84.858 108.007 85.2955C108.007 85.733 108.385 86.0909 108.842 86.0909ZM112.741 90.4062C112.741 89.0739 113.567 88.3182 114.69 88.3182C115.779 88.3182 116.44 89.0291 116.44 90.2273V95H117.613V90.1477C117.613 88.1989 116.574 87.2642 115.028 87.2642C113.875 87.2642 113.159 87.7812 112.801 88.5568H112.702V87.3636H111.568V95H112.741V90.4062ZM122.84 98.0227C124.669 98.0227 126.141 97.1875 126.141 95.2188V87.3636H125.007V88.5767H124.888C124.63 88.179 124.152 87.2642 122.661 87.2642C120.732 87.2642 119.4 88.7955 119.4 91.142C119.4 93.5284 120.792 94.8807 122.641 94.8807C124.132 94.8807 124.61 94.0057 124.868 93.5881H124.968V95.1392C124.968 96.4119 124.073 96.9886 122.84 96.9886C121.453 96.9886 120.966 96.2578 120.652 95.8352L119.718 96.4915C120.195 97.2919 121.135 98.0227 122.84 98.0227ZM122.8 93.8267C121.328 93.8267 120.573 92.7131 120.573 91.1222C120.573 89.571 121.309 88.3182 122.8 88.3182C124.232 88.3182 124.988 89.4716 124.988 91.1222C124.988 92.8125 124.212 93.8267 122.8 93.8267ZM135.627 87.3636H133.917V86.5881C133.917 85.8324 134.235 85.4347 135.01 85.4347C135.348 85.4347 135.547 85.5142 135.667 85.554L136.005 84.5398C135.826 84.4602 135.468 84.3409 134.891 84.3409C133.797 84.3409 132.743 84.9972 132.743 86.3097V87.3636H131.51V88.358H132.743V95H133.917V88.358H135.627V87.3636ZM140.059 95.1591C142.127 95.1591 143.519 93.5881 143.519 91.2216C143.519 88.8352 142.127 87.2642 140.059 87.2642C137.991 87.2642 136.599 88.8352 136.599 91.2216C136.599 93.5881 137.991 95.1591 140.059 95.1591ZM140.059 94.1051C138.488 94.1051 137.772 92.7528 137.772 91.2216C137.772 89.6903 138.488 88.3182 140.059 88.3182C141.63 88.3182 142.346 89.6903 142.346 91.2216C142.346 92.7528 141.63 94.1051 140.059 94.1051ZM145.31 95H146.483V90.1676C146.483 89.1335 147.299 88.3778 148.412 88.3778C148.726 88.3778 149.049 88.4375 149.128 88.4574V87.2642C148.994 87.2543 148.686 87.2443 148.512 87.2443C147.597 87.2443 146.802 87.7614 146.523 88.517H146.444V87.3636H145.31V95Z" fill="#1B1B1A"/>
<line x1="151.5" y1="80" x2="151.5" y2="100" stroke="#7348FF"/>
</svg>
