<svg width="75" height="26" viewBox="0 0 75 26" fill="#8B8B8A" xmlns="http://www.w3.org/2000/svg">
<g filter="url(#filter0_d_17_252)">
<path d="M13.2238 16.8398C12.2219 17.0157 11.2023 17.0685 10.1477 17.209L6.9308 7.78715V17.6133C5.92889 17.7188 5.01484 17.8594 4.06561 18V0H6.73756L10.3937 10.213V0H13.2238V16.8398ZM18.7609 6.5918C19.8508 6.5918 21.5208 6.53905 22.5227 6.53905V9.35149C21.2746 9.35149 19.8157 9.35149 18.7609 9.40424V13.5879C20.4133 13.4825 22.0657 13.3417 23.7355 13.289V15.9958L15.9484 16.6112V0H23.7355V2.8125H18.7609V6.5918ZM34.1945 2.81257H31.2765V15.75C30.3273 15.75 29.3781 15.75 28.4642 15.7851V2.81257H25.5462V0H34.1946L34.1945 2.81257ZM38.7648 6.39849H42.6144V9.21093H38.7648V15.5919H36.0048V0H43.8625V2.8125H38.7648V6.39849ZM48.4327 13.1309C50.0324 13.1659 51.6495 13.2892 53.214 13.3769V16.1543C50.7004 15.996 48.1867 15.838 45.6203 15.7851V0H48.4327V13.1309ZM55.587 16.3477C56.4835 16.4005 57.4327 16.4532 58.3468 16.5585V0H55.587V16.3477ZM70.6692 0L67.1007 8.56057L70.6692 18C69.6144 17.8594 68.5597 17.666 67.505 17.4902L65.4836 12.2872L63.4271 17.0685C62.4074 16.8925 61.423 16.8398 60.4037 16.6992L64.0247 8.45501L60.7551 0H63.7784L65.6241 4.72853L67.593 0H70.6692Z" fill="#D9D9D9"/>
<path d="M6.4308 7.78715V17.166C5.78833 17.2416 5.17643 17.3298 4.56561 17.4203V0.5H6.38548L9.92299 10.3816L10.8937 10.213V0.5H12.7238V16.4131C12.3746 16.4634 12.0195 16.5027 11.6543 16.5403C11.5565 16.5504 11.4579 16.5603 11.3584 16.5704C11.0742 16.5991 10.7836 16.6285 10.4895 16.6627L7.40398 7.6256L6.4308 7.78715ZM18.2609 6.5918V7.0918H18.7609C19.3117 7.0918 20.007 7.07849 20.6845 7.06533L20.7236 7.06457C21.1815 7.05568 21.6296 7.04697 22.0227 7.04238V8.8516C20.8994 8.85238 19.6655 8.85837 18.736 8.90486L18.2609 8.92862V9.40424V13.5879V14.1208L18.7928 14.0869C19.268 14.0566 19.7405 14.0236 20.2116 13.9906C21.2212 13.9201 22.2246 13.85 23.2355 13.8077V15.5338L16.4484 16.0701V0.5H23.2355V2.3125H18.7609H18.2609V2.8125V6.5918ZM30.7765 15.2502C30.17 15.2509 29.5619 15.2541 28.9642 15.2691V2.81257V2.31257H28.4642H26.0462V0.5H33.6946L33.6945 2.31257H31.2765H30.7765V2.81257V15.2502ZM38.2648 6.39849V6.89849H38.7648H42.1144V8.71093H38.7648H38.2648V9.21093V15.0919H36.5048V0.5H43.3625V2.3125H38.7648H38.2648V2.8125V6.39849ZM47.9327 13.1309V13.62L48.4218 13.6307C49.5784 13.6561 50.74 13.7277 51.8953 13.7989C52.1686 13.8158 52.4416 13.8326 52.714 13.8488V15.6219C50.5366 15.4852 48.3479 15.3538 46.1203 15.2966V0.5H47.9327V13.1309ZM69.919 0.5L66.6392 8.3682L66.5628 8.55156L66.633 8.73738L69.9015 17.3834C69.3986 17.3053 68.8948 17.2193 68.3867 17.1325C68.2144 17.103 68.0416 17.0735 67.8681 17.0442L65.9496 12.1061L65.5071 10.967L65.0243 12.0896L63.1215 16.5135C62.73 16.4561 62.3454 16.4131 61.9676 16.3733C61.8793 16.364 61.7914 16.3549 61.704 16.3458C61.5119 16.3259 61.3216 16.3061 61.1317 16.285L64.4825 8.65608L64.5655 8.46714L64.4911 8.27467L61.4846 0.5H63.4369L65.1584 4.91034L65.6092 6.06525L66.0857 4.92072L67.9264 0.5H69.919ZM56.087 0.5H57.8468V16.0039C57.2565 15.9487 56.6611 15.9105 56.087 15.8763V0.5Z" stroke="#8B8B8A"/>
</g>
<defs>
<filter id="filter0_d_17_252" x="0.0656128" y="0" width="74.6036" height="26" filterUnits="userSpaceOnUse" color-interpolation-filters="sRGB">
<feFlood flood-opacity="0" result="BackgroundImageFix"/>
<feColorMatrix in="SourceAlpha" type="matrix" values="0 0 0 0 0 0 0 0 0 0 0 0 0 0 0 0 0 0 127 0" result="hardAlpha"/>
<feOffset dy="4"/>
<feGaussianBlur stdDeviation="2"/>
<feComposite in2="hardAlpha" operator="out"/>
<feColorMatrix type="matrix" values="0 0 0 0 0 0 0 0 0 0 0 0 0 0 0 0 0 0 0.25 0"/>
<feBlend mode="normal" in2="BackgroundImageFix" result="effect1_dropShadow_17_252"/>
<feBlend mode="normal" in="SourceGraphic" in2="effect1_dropShadow_17_252" result="shape"/>
</filter>
</defs>
</svg>
