<svg width="394" height="394" viewBox="0 0 394 394" fill="none" xmlns="http://www.w3.org/2000/svg">
<g filter="url(#filter0_ddd_26_12)">
<rect x="5" y="3" width="384" height="384" rx="12" fill="#7348FF"/>
<path d="M57.6 306L55 300.66C56.64 299.91 57.4 298.32 57.4 296.36C57.4 293.94 56.26 292.08 53.68 291.68C53.3 291.62 52.76 291.6 52.48 291.6H46.4V306H49.12V301.12H52.15L54.52 306H57.6ZM49.12 294.14H52.36C52.64 294.14 53 294.16 53.28 294.24C54.38 294.54 54.66 295.58 54.66 296.36C54.66 297.14 54.38 298.18 53.28 298.48C53 298.56 52.64 298.58 52.36 298.58H49.12V294.14ZM62.1284 301.36H69.7084C70.0384 297.44 68.0584 294.9 64.6584 294.9C61.4584 294.9 59.1984 297.2 59.1984 300.74C59.1984 303.98 61.4984 306.3 64.8184 306.3C66.8984 306.3 68.7984 305.16 69.6184 303.18L66.8984 302.4C66.4984 303.28 65.7184 303.76 64.6584 303.76C63.1884 303.76 62.3284 302.9 62.1284 301.36ZM64.7784 297.26C66.0884 297.26 66.7684 297.88 66.9584 299.34H62.1984C62.4784 297.97 63.3184 297.26 64.7784 297.26ZM76.1864 306.3C79.0064 306.3 80.7064 304.96 80.7064 302.74C80.7064 301.06 79.7664 300.18 77.3064 299.54C74.7864 298.9 74.4264 298.72 74.4264 298.16C74.4264 297.54 75.0864 297.18 76.0864 297.24C77.1064 297.32 77.7264 297.8 77.8264 298.6L80.6064 298.1C80.3264 296.14 78.5664 294.9 76.0264 294.9C73.4064 294.9 71.7264 296.22 71.7264 298.3C71.7264 299.96 72.6864 300.8 75.3264 301.48C77.6664 302.1 77.9264 302.24 77.9264 302.88C77.9264 303.56 77.3664 303.96 76.3864 303.96C75.1864 303.96 74.3664 303.36 74.1464 302.34L71.3664 302.76C71.7264 305.02 73.4664 306.3 76.1864 306.3ZM88.0639 294.9C86.9439 294.9 86.0139 295.23 85.2839 295.8V295.2H82.8839V310.8H85.6239V305.61C86.3239 306.05 87.1839 306.3 88.2039 306.3C91.1839 306.3 93.1839 303.84 93.1839 300.6C93.1839 297.3 91.1639 294.9 88.0639 294.9ZM87.7639 303.88C85.9439 303.88 85.2839 302.56 85.2839 300.6C85.2839 298.64 85.9639 297.32 87.6639 297.32C89.4839 297.32 90.3039 298.8 90.3039 300.6C90.3039 302.42 89.5239 303.88 87.7639 303.88ZM100.244 306.3C103.484 306.3 105.724 303.96 105.724 300.6C105.724 297.26 103.504 294.9 100.244 294.9C97.0444 294.9 94.7844 297.22 94.7844 300.6C94.7844 303.94 96.9844 306.3 100.244 306.3ZM100.244 303.76C98.5444 303.76 97.6644 302.54 97.6644 300.6C97.6644 298.72 98.4644 297.44 100.244 297.44C101.964 297.44 102.844 298.68 102.844 300.6C102.844 302.46 101.984 303.76 100.244 303.76ZM113.823 294.88C112.273 294.88 111.103 295.44 110.323 296.31V295.2H107.903V306H110.663V300.52C110.663 297.84 112.023 297.44 112.963 297.44C115.283 297.44 115.283 299.92 115.283 300.9V306H118.043V299.94C118.043 299.04 118.043 294.88 113.823 294.88ZM124.858 306.3C127.678 306.3 129.378 304.96 129.378 302.74C129.378 301.06 128.438 300.18 125.978 299.54C123.458 298.9 123.098 298.72 123.098 298.16C123.098 297.54 123.758 297.18 124.758 297.24C125.778 297.32 126.398 297.8 126.498 298.6L129.278 298.1C128.998 296.14 127.238 294.9 124.698 294.9C122.078 294.9 120.398 296.22 120.398 298.3C120.398 299.96 121.358 300.8 123.998 301.48C126.338 302.1 126.598 302.24 126.598 302.88C126.598 303.56 126.038 303.96 125.058 303.96C123.858 303.96 123.038 303.36 122.818 302.34L120.038 302.76C120.398 305.02 122.138 306.3 124.858 306.3ZM131.776 293.7H134.496V291.3H131.776V293.7ZM131.776 306H134.496V295.2H131.776V306ZM140.414 306H143.134L147.054 295.2H144.334L141.774 302.68L139.214 295.2H136.494L140.414 306ZM150.8 301.36H158.38C158.71 297.44 156.73 294.9 153.33 294.9C150.13 294.9 147.87 297.2 147.87 300.74C147.87 303.98 150.17 306.3 153.49 306.3C155.57 306.3 157.47 305.16 158.29 303.18L155.57 302.4C155.17 303.28 154.39 303.76 153.33 303.76C151.86 303.76 151 302.9 150.8 301.36ZM153.45 297.26C154.76 297.26 155.44 297.88 155.63 299.34H150.87C151.15 297.97 151.99 297.26 153.45 297.26Z" fill="white"/>
<path opacity="0.9" d="M46.4091 341H47.8182V335.795H52.8636V334.545H47.8182V330.614H53.3864V329.364H46.4091V341ZM56.9588 329.364H55.6179V341H56.9588V329.364ZM63.0739 341.182C64.8466 341.182 66.142 340.295 66.5511 338.977L65.2557 338.614C64.9148 339.523 64.125 339.977 63.0739 339.977C61.5 339.977 60.4148 338.96 60.3523 337.091H66.6875V336.523C66.6875 333.273 64.7557 332.159 62.9375 332.159C60.5739 332.159 59.0057 334.023 59.0057 336.705C59.0057 339.386 60.5511 341.182 63.0739 341.182ZM60.3523 335.932C60.4432 334.574 61.4034 333.364 62.9375 333.364C64.392 333.364 65.3239 334.455 65.3239 335.932H60.3523ZM69.4929 332.273H67.9474L70.7202 336.636L67.9474 341H69.4929L71.5838 337.614L73.6747 341H75.2202L72.402 336.636L75.2202 332.273H73.6747L71.5838 335.841L69.4929 332.273ZM77.1335 341H78.4744V332.273H77.1335V341ZM77.8153 330.818C78.3381 330.818 78.7699 330.409 78.7699 329.909C78.7699 329.409 78.3381 329 77.8153 329C77.2926 329 76.8608 329.409 76.8608 329.909C76.8608 330.409 77.2926 330.818 77.8153 330.818ZM81.1122 341H82.4077V339.659H82.5668C82.8622 340.136 83.4304 341.182 85.1122 341.182C87.294 341.182 88.8168 339.432 88.8168 336.659C88.8168 333.909 87.294 332.159 85.0895 332.159C83.3849 332.159 82.8622 333.205 82.5668 333.659H82.4531V329.364H81.1122V341ZM82.4304 336.636C82.4304 334.682 83.294 333.364 84.9304 333.364C86.6349 333.364 87.4759 334.795 87.4759 336.636C87.4759 338.5 86.6122 339.977 84.9304 339.977C83.3168 339.977 82.4304 338.614 82.4304 336.636ZM92.2088 329.364H90.8679V341H92.2088V329.364ZM98.3239 341.182C100.097 341.182 101.392 340.295 101.801 338.977L100.506 338.614C100.165 339.523 99.375 339.977 98.3239 339.977C96.75 339.977 95.6648 338.96 95.6023 337.091H101.938V336.523C101.938 333.273 100.006 332.159 98.1875 332.159C95.8239 332.159 94.2557 334.023 94.2557 336.705C94.2557 339.386 95.8011 341.182 98.3239 341.182ZM95.6023 335.932C95.6932 334.574 96.6534 333.364 98.1875 333.364C99.642 333.364 100.574 334.455 100.574 335.932H95.6023ZM111.045 341.205C112.568 341.205 113.364 340.386 113.636 339.818H113.705V341H115.045V335.25C115.045 332.477 112.932 332.159 111.818 332.159C110.5 332.159 109 332.614 108.318 334.205L109.591 334.659C109.886 334.023 110.585 333.341 111.864 333.341C113.097 333.341 113.705 333.994 113.705 335.114V335.159C113.705 335.807 113.045 335.75 111.455 335.955C109.835 336.165 108.068 336.523 108.068 338.523C108.068 340.227 109.386 341.205 111.045 341.205ZM111.25 340C110.182 340 109.409 339.523 109.409 338.591C109.409 337.568 110.341 337.25 111.386 337.114C111.955 337.045 113.477 336.886 113.705 336.614V337.841C113.705 338.932 112.841 340 111.25 340ZM120.788 341.182C122.47 341.182 123.038 340.136 123.334 339.659H123.493V341H124.788V329.364H123.447V333.659H123.334C123.038 333.205 122.516 332.159 120.811 332.159C118.607 332.159 117.084 333.909 117.084 336.659C117.084 339.432 118.607 341.182 120.788 341.182ZM120.97 339.977C119.288 339.977 118.425 338.5 118.425 336.636C118.425 334.795 119.266 333.364 120.97 333.364C122.607 333.364 123.47 334.682 123.47 336.636C123.47 338.614 122.584 339.977 120.97 339.977ZM133.612 334.227C133.192 332.989 132.249 332.159 130.521 332.159C128.68 332.159 127.317 333.205 127.317 334.682C127.317 335.886 128.033 336.693 129.635 337.068L131.089 337.409C131.97 337.614 132.385 338.034 132.385 338.636C132.385 339.386 131.589 340 130.339 340C129.243 340 128.555 339.528 128.317 338.591L127.044 338.909C127.357 340.392 128.578 341.182 130.362 341.182C132.391 341.182 133.771 340.074 133.771 338.568C133.771 337.352 133.01 336.585 131.453 336.205L130.158 335.886C129.124 335.631 128.658 335.284 128.658 334.614C128.658 333.864 129.453 333.318 130.521 333.318C131.692 333.318 132.175 333.966 132.408 334.568L133.612 334.227ZM142.267 341H143.585L145.494 334.295H145.631L147.54 341H148.858L151.517 332.273H150.108L148.222 338.932H148.131L146.29 332.273H144.858L142.994 338.955H142.903L141.017 332.273H139.608L142.267 341ZM153.29 341H154.631V332.273H153.29V341ZM153.972 330.818C154.494 330.818 154.926 330.409 154.926 329.909C154.926 329.409 154.494 329 153.972 329C153.449 329 153.017 329.409 153.017 329.909C153.017 330.409 153.449 330.818 153.972 330.818ZM160.882 332.273H159.018V330.182H157.678V332.273H156.359V333.409H157.678V338.864C157.678 340.386 158.905 341.114 160.041 341.114C160.541 341.114 160.859 341.023 161.041 340.955L160.768 339.75C160.655 339.773 160.473 339.818 160.178 339.818C159.587 339.818 159.018 339.636 159.018 338.5V333.409H160.882V332.273ZM164.428 335.75C164.428 334.227 165.399 333.364 166.723 333.364C167.984 333.364 168.746 334.159 168.746 335.545V341H170.087V335.455C170.087 333.21 168.893 332.159 167.109 332.159C165.734 332.159 164.95 332.733 164.541 333.636H164.428V329.364H163.087V341H164.428V335.75ZM176.085 341.182C178.449 341.182 180.04 339.386 180.04 336.682C180.04 333.955 178.449 332.159 176.085 332.159C173.722 332.159 172.131 333.955 172.131 336.682C172.131 339.386 173.722 341.182 176.085 341.182ZM176.085 339.977C174.29 339.977 173.472 338.432 173.472 336.682C173.472 334.932 174.29 333.364 176.085 333.364C177.881 333.364 178.699 334.932 178.699 336.682C178.699 338.432 177.881 339.977 176.085 339.977ZM187.587 337.432C187.587 339.068 186.337 339.818 185.337 339.818C184.223 339.818 183.428 339 183.428 337.727V332.273H182.087V337.818C182.087 340.045 183.268 341.114 184.905 341.114C186.223 341.114 187.087 340.409 187.496 339.523H187.587V341H188.928V332.273H187.587V337.432ZM195.179 332.273H193.315V330.182H191.974V332.273H190.656V333.409H191.974V338.864C191.974 340.386 193.202 341.114 194.338 341.114C194.838 341.114 195.156 341.023 195.338 340.955L195.065 339.75C194.952 339.773 194.77 339.818 194.474 339.818C193.884 339.818 193.315 339.636 193.315 338.5V333.409H195.179V332.273ZM201.878 341H203.173V339.659H203.332C203.628 340.136 204.196 341.182 205.878 341.182C208.06 341.182 209.582 339.432 209.582 336.659C209.582 333.909 208.06 332.159 205.855 332.159C204.151 332.159 203.628 333.205 203.332 333.659H203.219V329.364H201.878V341ZM203.196 336.636C203.196 334.682 204.06 333.364 205.696 333.364C207.401 333.364 208.241 334.795 208.241 336.636C208.241 338.5 207.378 339.977 205.696 339.977C204.082 339.977 203.196 338.614 203.196 336.636ZM215.293 341.182C217.065 341.182 218.361 340.295 218.77 338.977L217.474 338.614C217.134 339.523 216.344 339.977 215.293 339.977C213.719 339.977 212.634 338.96 212.571 337.091H218.906V336.523C218.906 333.273 216.974 332.159 215.156 332.159C212.793 332.159 211.224 334.023 211.224 336.705C211.224 339.386 212.77 341.182 215.293 341.182ZM212.571 335.932C212.662 334.574 213.622 333.364 215.156 333.364C216.611 333.364 217.543 334.455 217.543 335.932H212.571ZM220.946 341H222.287V332.273H220.946V341ZM221.628 330.818C222.151 330.818 222.582 330.409 222.582 329.909C222.582 329.409 222.151 329 221.628 329C221.105 329 220.673 329.409 220.673 329.909C220.673 330.409 221.105 330.818 221.628 330.818ZM226.084 335.75C226.084 334.227 227.027 333.364 228.311 333.364C229.555 333.364 230.311 334.176 230.311 335.545V341H231.652V335.455C231.652 333.227 230.464 332.159 228.697 332.159C227.379 332.159 226.561 332.75 226.152 333.636H226.038V332.273H224.743V341H226.084V335.75ZM237.625 344.455C239.716 344.455 241.398 343.5 241.398 341.25V332.273H240.102V333.659H239.966C239.67 333.205 239.125 332.159 237.42 332.159C235.216 332.159 233.693 333.909 233.693 336.591C233.693 339.318 235.284 340.864 237.398 340.864C239.102 340.864 239.648 339.864 239.943 339.386H240.057V341.159C240.057 342.614 239.034 343.273 237.625 343.273C236.04 343.273 235.483 342.438 235.125 341.955L234.057 342.705C234.602 343.619 235.676 344.455 237.625 344.455ZM237.58 339.659C235.898 339.659 235.034 338.386 235.034 336.568C235.034 334.795 235.875 333.364 237.58 333.364C239.216 333.364 240.08 334.682 240.08 336.568C240.08 338.5 239.193 339.659 237.58 339.659ZM250.92 341.205C252.443 341.205 253.239 340.386 253.511 339.818H253.58V341H254.92V335.25C254.92 332.477 252.807 332.159 251.693 332.159C250.375 332.159 248.875 332.614 248.193 334.205L249.466 334.659C249.761 334.023 250.46 333.341 251.739 333.341C252.972 333.341 253.58 333.994 253.58 335.114V335.159C253.58 335.807 252.92 335.75 251.33 335.955C249.71 336.165 247.943 336.523 247.943 338.523C247.943 340.227 249.261 341.205 250.92 341.205ZM251.125 340C250.057 340 249.284 339.523 249.284 338.591C249.284 337.568 250.216 337.25 251.261 337.114C251.83 337.045 253.352 336.886 253.58 336.614V337.841C253.58 338.932 252.716 340 251.125 340ZM265.663 332.273H263.8V330.182H262.459V332.273H261.141V333.409H262.459V338.864C262.459 340.386 263.686 341.114 264.822 341.114C265.322 341.114 265.641 341.023 265.822 340.955L265.55 339.75C265.436 339.773 265.254 339.818 264.959 339.818C264.368 339.818 263.8 339.636 263.8 338.5V333.409H265.663V332.273ZM271.246 341.182C273.018 341.182 274.314 340.295 274.723 338.977L273.428 338.614C273.087 339.523 272.297 339.977 271.246 339.977C269.672 339.977 268.587 338.96 268.524 337.091H274.859V336.523C274.859 333.273 272.928 332.159 271.109 332.159C268.746 332.159 267.178 334.023 267.178 336.705C267.178 339.386 268.723 341.182 271.246 341.182ZM268.524 335.932C268.615 334.574 269.575 333.364 271.109 333.364C272.564 333.364 273.496 334.455 273.496 335.932H268.524ZM280.445 341.182C282.376 341.182 283.649 340 283.876 338.455H282.536C282.286 339.409 281.49 339.977 280.445 339.977C278.854 339.977 277.831 338.659 277.831 336.636C277.831 334.659 278.876 333.364 280.445 333.364C281.626 333.364 282.331 334.091 282.536 334.886H283.876C283.649 333.25 282.263 332.159 280.422 332.159C278.058 332.159 276.49 334.023 276.49 336.682C276.49 339.295 277.99 341.182 280.445 341.182ZM287.178 335.75C287.178 334.227 288.149 333.364 289.473 333.364C290.734 333.364 291.496 334.159 291.496 335.545V341H292.837V335.455C292.837 333.21 291.643 332.159 289.859 332.159C288.484 332.159 287.7 332.733 287.291 333.636H287.178V329.364H285.837V341H287.178V335.75ZM295.29 341H296.631V332.273H295.29V341ZM295.972 330.818C296.494 330.818 296.926 330.409 296.926 329.909C296.926 329.409 296.494 329 295.972 329C295.449 329 295.017 329.409 295.017 329.909C295.017 330.409 295.449 330.818 295.972 330.818ZM302.746 341.182C304.518 341.182 305.814 340.295 306.223 338.977L304.928 338.614C304.587 339.523 303.797 339.977 302.746 339.977C301.172 339.977 300.087 338.96 300.024 337.091H306.359V336.523C306.359 333.273 304.428 332.159 302.609 332.159C300.246 332.159 298.678 334.023 298.678 336.705C298.678 339.386 300.223 341.182 302.746 341.182ZM300.024 335.932C300.115 334.574 301.075 333.364 302.609 333.364C304.064 333.364 304.996 334.455 304.996 335.932H300.024ZM309.376 341.091C309.939 341.091 310.399 340.631 310.399 340.068C310.399 339.506 309.939 339.045 309.376 339.045C308.814 339.045 308.354 339.506 308.354 340.068C308.354 340.631 308.814 341.091 309.376 341.091Z" fill="white"/>
<rect opacity="0.2" x="55" y="55" width="284" height="180" rx="12" stroke="white" stroke-width="6"/>
<rect opacity="0.4" x="130" y="71" width="193" height="148" rx="12" stroke="white" stroke-width="6"/>
<rect opacity="0.7" x="253" y="99" width="54" height="104" rx="12" stroke="white" stroke-width="6"/>
</g>
<defs>
<filter id="filter0_ddd_26_12" x="0" y="0" width="394" height="394" filterUnits="userSpaceOnUse" color-interpolation-filters="sRGB">
<feFlood flood-opacity="0" result="BackgroundImageFix"/>
<feColorMatrix in="SourceAlpha" type="matrix" values="0 0 0 0 0 0 0 0 0 0 0 0 0 0 0 0 0 0 127 0" result="hardAlpha"/>
<feMorphology radius="1" operator="dilate" in="SourceAlpha" result="effect1_dropShadow_26_12"/>
<feOffset/>
<feComposite in2="hardAlpha" operator="out"/>
<feColorMatrix type="matrix" values="0 0 0 0 0.45098 0 0 0 0 0.282353 0 0 0 0 1 0 0 0 1 0"/>
<feBlend mode="normal" in2="BackgroundImageFix" result="effect1_dropShadow_26_12"/>
<feColorMatrix in="SourceAlpha" type="matrix" values="0 0 0 0 0 0 0 0 0 0 0 0 0 0 0 0 0 0 127 0" result="hardAlpha"/>
<feOffset dy="1"/>
<feGaussianBlur stdDeviation="0.5"/>
<feComposite in2="hardAlpha" operator="out"/>
<feColorMatrix type="matrix" values="0 0 0 0 0.105882 0 0 0 0 0.105882 0 0 0 0 0.101961 0 0 0 0.12 0"/>
<feBlend mode="normal" in2="effect1_dropShadow_26_12" result="effect2_dropShadow_26_12"/>
<feColorMatrix in="SourceAlpha" type="matrix" values="0 0 0 0 0 0 0 0 0 0 0 0 0 0 0 0 0 0 127 0" result="hardAlpha"/>
<feOffset dy="2"/>
<feGaussianBlur stdDeviation="2.5"/>
<feComposite in2="hardAlpha" operator="out"/>
<feColorMatrix type="matrix" values="0 0 0 0 0.105882 0 0 0 0 0.105882 0 0 0 0 0.101961 0 0 0 0.08 0"/>
<feBlend mode="normal" in2="effect2_dropShadow_26_12" result="effect3_dropShadow_26_12"/>
<feBlend mode="normal" in="SourceGraphic" in2="effect3_dropShadow_26_12" result="shape"/>
</filter>
</defs>
</svg>
